{
.appVersion = "3436";
copyright = "Copyright (c) 2011-2015 by tyPoland Lukasz Dziedzic (http://www.typoland.com/) with Reserved Font Name \"Lato\". Licensed under the SIL Open Font License, Version 1.1 (http://scripts.sil.org/OFL). ";
customParameters = (
{
name = "Enforce Compatibility Check";
value = 0;
},
{
name = description;
value = "Letterspacer Test Font is a derivative of the Lato fonts, made for distribution alongside the HT Letterspacer software, to use as a demo/trial font.";
},
{
name = license;
value = "Copyright (c) 2011-2015 by tyPoland Lukasz Dziedzic (http://www.typoland.com/) with Reserved Font Name \"Lato\". Licensed under the SIL Open Font License, Version 1.1 (http://scripts.sil.org/OFL). ";
},
{
name = licenseURL;
value = "http://scripts.sil.org/OFL";
},
{
name = Axes;
value = (
{
Name = Weight;
Tag = wght;
},
{
Name = Width;
Tag = wdth;
}
);
}
);
date = "2016-02-03 02:56:06 +0000";
designer = "Lukasz Dziedzic with Adam Twardoch and Botio Nikoltchev";
designerURL = "http://www.latofonts.com/";
familyName = "Letterspacer Test Font";
featurePrefixes = (
{
automatic = 1;
code = "languagesystem DFLT dflt;\012";
name = Languagesystems;
}
);
features = (
{
automatic = 1;
code = "feature sups;\012feature frac;\012feature ordn;\012";
name = aalt;
},
{
automatic = 1;
code = "sub one by onesuperior;\012sub two by twosuperior;\012sub three by threesuperior;\012";
name = sups;
},
{
automatic = 1;
code = "sub one slash four by onequarter;\012sub one slash two by onehalf;\012sub three slash four by threequarters;\012";
name = frac;
},
{
automatic = 1;
code = "sub [zero one two three four five six seven eight nine] [A a]' by ordfeminine;\012sub [zero one two three four five six seven eight nine] [O o]' by ordmasculine;\012";
name = ordn;
},
{
automatic = 1;
code = "sub f i by fi;\012sub f l by fl;\012";
name = liga;
}
);
fontMaster = (
{
ascender = 805;
capHeight = 700;
customParameters = (
{
name = paramArea;
value = "500";
},
{
name = paramDepth;

glyphs = (
{
glyphname = A;
lastChange = "2026-06-19 17:27:37 +0000";
layers = (
{
layerId = "7DA69401-B8BB-4CEF-A33A-65E5ADA83450";
paths = (
{
closed = 1;
nodes = (
"66 0 LINE SMOOTH",
"69 0 OFFCURVE",
"72 2 OFFCURVE",
"73 5 CURVE",
"170 239 LINE",
"539 239 LINE",
"637 5 LINE",
"638 2 OFFCURVE",
"640 0 OFFCURVE",
"643 0 CURVE SMOOTH",
"652 0 LINE",
"360 700 LINE",
"350 700 LINE",
"58 0 LINE"
);
},
{
closed = 1;
nodes = (
"347 663 LINE SMOOTH",
"348 667 OFFCURVE",
"350 670 OFFCURVE",
"351 674 CURVE",
"352 677 OFFCURVE",
"353 681 OFFCURVE",
"355 684 CURVE",
"356 681 OFFCURVE",
"357 677 OFFCURVE",
"359 674 CURVE",
"360 670 OFFCURVE",
"361 667 OFFCURVE",
"363 663 CURVE SMOOTH",
"535 249 LINE",
"174 249 LINE"
);
}
);
width = 710;
},
{
layerId = "F36DCCA2-8A71-42CF-9609-F852DF368EC0";
paths = (
{
closed = 1;
nodes = (
"112 0 LINE SMOOTH",
"129 0 OFFCURVE",
"141 11 OFFCURVE",
"145 23 CURVE",
"212 196 LINE",
"533 196 LINE",
"600 23 LINE SMOOTH",
"606 10 OFFCURVE",
"616 0 OFFCURVE",
"633 0 CURVE SMOOTH",
"708 0 LINE",
"422 717 LINE",
"324 717 LINE",
"37 0 LINE"
);
},
{
closed = 1;
nodes = (
"351 557 LINE SMOOTH",
"359 575 OFFCURVE",
"366 598 OFFCURVE",
"373 625 CURVE",
"379 599 OFFCURVE",
"387 575 OFFCURVE",
"394 558 CURVE SMOOTH",
"506 266 LINE",
"239 266 LINE"
);
}
);
width = 745;
},
{
layerId = "A9E408DD-A955-440F-BEB6-B96F0772F152";
paths = (
{
closed = 1;
nodes = (
"134 0 LINE SMOOTH",
"156 0 OFFCURVE",
"172 15 OFFCURVE",
"178 31 CURVE SMOOTH",
"232 178 LINE",
"531 178 LINE",
"585 31 LINE",
"593 13 OFFCURVE",
"607 0 OFFCURVE",
"630 0 CURVE SMOOTH",
"734 0 LINE",
"450 723 LINE",
"313 723 LINE",
"28 0 LINE"
);
},
{
closed = 1;
nodes = (
"354 513 LINE SMOOTH",
"363 535 OFFCURVE",
"373 565 OFFCURVE",
"381 599 CURVE",
"391 565 OFFCURVE",
"400 535 OFFCURVE",
"409 514 CURVE SMOOTH",
"497 273 LINE",
"267 273 LINE"
);
}
);
width = 762;
}
);
leftKerningGroup = A;
note = A;
rightKerningGroup = A;
unicode = 0041;
},
{
glyphname = Aacute;
lastChange = "2026-06-19 17:27:37 +0000";
layers = (
{
layerId = "7DA69401-B8BB-4CEF-A33A-65E5ADA83450";
paths = (
{
closed = 1;
nodes = (
"66 0 LINE SMOOTH",
"69 0 OFFCURVE",
"72 2 OFFCURVE",
"73 5 CURVE",
"170 239 LINE",
"539 239 LINE",
"637 5 LINE",
"638 2 OFFCURVE",
"640 0 OFFCURVE",
"643 0 CURVE SMOOTH",
"652 0 LINE",
"360 700 LINE",
"350 700 LINE",
"58 0 LINE"
);
},
{
closed = 1;
nodes = (
"347 663 LINE SMOOTH",
"348 667 OFFCURVE",
"350 670 OFFCURVE",
"351 674 CURVE",
"352 677 OFFCURVE",
"353 681 OFFCURVE",
"355 684 CURVE",
"356 681 OFFCURVE",
"357 677 OFFCURVE",
"359 674 CURVE",
"360 670 OFFCURVE",
"361 667 OFFCURVE",
"363 663 CURVE SMOOTH",
"535 249 LINE",
"174 249 LINE"
);
},
{
closed = 1;
nodes = (
"323 769 LINE SMOOTH",
"326 769 OFFCURVE",
"329 770 OFFCURVE",
"332 772 CURVE",
"496 916 LINE",
"478 916 LINE SMOOTH",
"467 916 OFFCURVE",
"463 915 OFFCURVE",
"457 909 CURVE SMOOTH",
"317 769 LINE"
);
}
);
width = 710;
},
{
layerId = "F36DCCA2-8A71-42CF-9609-F852DF368EC0";
paths = (
{
closed = 1;
nodes = (
"112 0 LINE SMOOTH",
"129 0 OFFCURVE",
"141 11 OFFCURVE",
"145 23 CURVE",
"212 196 LINE",
"533 196 LINE",
"600 23 LINE SMOOTH",
"606 10 OFFCURVE",
"616 0 OFFCURVE",
"633 0 CURVE SMOOTH",
"708 0 LINE",
"422 717 LINE",
"324 717 LINE",
"37 0 LINE"
);
},
{
closed = 1;
nodes = (
"351 557 LINE SMOOTH",
"359 575 OFFCURVE",
"366 598 OFFCURVE",
"373 625 CURVE",
"379 599 OFFCURVE",
"387 575 OFFCURVE",
"394 558 CURVE SMOOTH",
"506 266 LINE",
"239 266 LINE"
);
},
{
closed = 1;
nodes = (
"367 773 LINE SMOOTH",
"381 773 OFFCURVE",
"389 774 OFFCURVE",
"399 783 CURVE",
"562 926 LINE",
"461 926 LINE SMOOTH",
"439 926 OFFCURVE",
"430 925 OFFCURVE",
"419 910 CURVE SMOOTH",
"303 773 LINE"
);
}
);
width = 745;
},
{
layerId = "A9E408DD-A955-440F-BEB6-B96F0772F152";
paths = (
{
closed = 1;
nodes = (
"134 0 LINE SMOOTH",
"156 0 OFFCURVE",
"172 15 OFFCURVE",
"178 31 CURVE SMOOTH",
"232 178 LINE",
"531 178 LINE",
"585 31 LINE",
"593 13 OFFCURVE",
"607 0 OFFCURVE",
"630 0 CURVE SMOOTH",
"734 0 LINE",
"450 723 LINE",
"313 723 LINE",
"28 0 LINE"
);
},
{
closed = 1;
nodes = (
"354 513 LINE SMOOTH",
"363 535 OFFCURVE",
"373 565 OFFCURVE",
"381 599 CURVE",
"391 565 OFFCURVE",
"400 535 OFFCURVE",
"409 514 CURVE SMOOTH",
"497 273 LINE",
"267 273 LINE"
);
},
{
closed = 1;
nodes = (
"387 775 LINE SMOOTH",
"406 775 OFFCURVE",
"416 776 OFFCURVE",
"429 788 CURVE SMOOTH",
"591 931 LINE",
"454 931 LINE SMOOTH",
"440 931 OFFCURVE",
"431 930 OFFCURVE",
"423 928 CURVE SMOOTH",
"415 925 OFFCURVE",
"409 920 OFFCURVE",
"402 910 CURVE",
"298 775 LINE"
);
}
);
width = 762;
}
);
leftKerningGroup = A;
note = Aacute;
rightKerningGroup = A;
unicode = 00C1;
},
{
glyphname = Acircumflex;
lastChange = "2026-06-19 17:27:37 +0000";
layers = (
{
layerId = "7DA69401-B8BB-4CEF-A33A-65E5ADA83450";
paths = (
{
closed = 1;
nodes = (
"66 0 LINE SMOOTH",
"69 0 OFFCURVE",
"72 2 OFFCURVE",
"73 5 CURVE",
"170 239 LINE",
"539 239 LINE",
"637 5 LINE",
"638 2 OFFCURVE",
"640 0 OFFCURVE",
"643 0 CURVE SMOOTH",
"652 0 LINE",
"360 700 LINE",
"350 700 LINE",
"58 0 LINE"
);
},
{
closed = 1;
nodes = (
"347 663 LINE SMOOTH",
"348 667 OFFCURVE",
"350 670 OFFCURVE",
"351 674 CURVE",
"352 677 OFFCURVE",
"353 681 OFFCURVE",
"355 684 CURVE",
"356 681 OFFCURVE",
"357 677 OFFCURVE",
"359 674 CURVE",
"360 670 OFFCURVE",
"361 667 OFFCURVE",
"363 663 CURVE SMOOTH",
"535 249 LINE",
"174 249 LINE"
);
},
{
closed = 1;
nodes = (
"245 769 LINE SMOOTH",
"248 769 OFFCURVE",
"251 770 OFFCURVE",
"255 773 CURVE",
"353 885 LINE",
"353 886 OFFCURVE",
"354 887 OFFCURVE",
"355 888 CURVE",
"355 887 OFFCURVE",
"356 886 OFFCURVE",
"357 885 CURVE",
"455 773 LINE",
"458 770 OFFCURVE",
"461 769 OFFCURVE",
"465 769 CURVE SMOOTH",
"475 769 LINE",
"359 901 LINE",
"351 901 LINE",
"235 769 LINE"
);
}
);
width = 710;
},
{
layerId = "F36DCCA2-8A71-42CF-9609-F852DF368EC0";
paths = (
{
closed = 1;
nodes = (
"112 0 LINE SMOOTH",
"129 0 OFFCURVE",
"141 11 OFFCURVE",
"145 23 CURVE",
"212 196 LINE",
"533 196 LINE",
"600 23 LINE SMOOTH",
"606 10 OFFCURVE",
"616 0 OFFCURVE",
"633 0 CURVE SMOOTH",
"708 0 LINE",
"422 717 LINE",
"324 717 LINE",
"37 0 LINE"
);
},
{
closed = 1;
nodes = (
"351 557 LINE SMOOTH",
"359 575 OFFCURVE",
"366 598 OFFCURVE",
"373 625 CURVE",
"379 599 OFFCURVE",
"387 575 OFFCURVE",
"394 558 CURVE SMOOTH",
"506 266 LINE",
"239 266 LINE"
);
},
{
closed = 1;
nodes = (
"277 773 LINE SMOOTH",
"285 773 OFFCURVE",
"296 774 OFFCURVE",
"308 788 CURVE SMOOTH",
"366 858 LINE",
"372 867 LINE",
"378 858 LINE",
"437 788 LINE SMOOTH",
"448 774 OFFCURVE",
"460 773 OFFCURVE",
"468 773 CURVE SMOOTH",
"533 773 LINE",
"414 909 LINE",
"334 909 LINE",
"214 773 LINE"
);
}
);
width = 745;
},
{
layerId = "A9E408DD-A955-440F-BEB6-B96F0772F152";
paths = (
{
closed = 1;
nodes = (
"134 0 LINE SMOOTH",
"156 0 OFFCURVE",
"172 15 OFFCURVE",
"178 31 CURVE SMOOTH",
"232 178 LINE",
"531 178 LINE",
"585 31 LINE",
"593 13 OFFCURVE",
"607 0 OFFCURVE",
"630 0 CURVE SMOOTH",
"734 0 LINE",
"450 723 LINE",
"313 723 LINE",
"28 0 LINE"
);
},
{
closed = 1;
nodes = (
"354 513 LINE SMOOTH",
"363 535 OFFCURVE",
"373 565 OFFCURVE",
"381 599 CURVE",
"391 565 OFFCURVE",
"400 535 OFFCURVE",
"409 514 CURVE SMOOTH",
"497 273 LINE",
"267 273 LINE"
);
},
{
closed = 1;
nodes = (
"292 775 LINE SMOOTH",
"302 775 OFFCURVE",
"317 776 OFFCURVE",
"333 794 CURVE",
"374 847 LINE SMOOTH",
"377 851 OFFCURVE",
"380 855 OFFCURVE",
"381 858 CURVE",
"383 855 OFFCURVE",
"385 851 OFFCURVE",
"389 847 CURVE SMOOTH",
"430 794 LINE",
"445 776 OFFCURVE",
"460 775 OFFCURVE",
"470 775 CURVE SMOOTH",
"560 775 LINE",
"439 912 LINE",
"327 912 LINE",
"207 775 LINE"
);
}
);
width = 762;
}
);
leftKerningGroup = A;
note = Acircumflex;
rightKerningGroup = A;
unicode = 00C2;
},
{
glyphname = Adieresis;
lastChange = "2026-06-19 17:27:37 +0000";
layers = (
{
layerId = "7DA69401-B8BB-4CEF-A33A-65E5ADA83450";
paths = (
{
closed = 1;
nodes = (
"66 0 LINE SMOOTH",
"69 0 OFFCURVE",
"72 2 OFFCURVE",
"73 5 CURVE",
"170 239 LINE",
"539 239 LINE",
"637 5 LINE",
"638 2 OFFCURVE",
"640 0 OFFCURVE",
"643 0 CURVE SMOOTH",
"652 0 LINE",
"360 700 LINE",
"350 700 LINE",
"58 0 LINE"
);
},
{
closed = 1;
nodes = (
"347 663 LINE SMOOTH",
"348 667 OFFCURVE",
"350 670 OFFCURVE",
"351 674 CURVE",
"352 677 OFFCURVE",
"353 681 OFFCURVE",
"355 684 CURVE",
"356 681 OFFCURVE",
"357 677 OFFCURVE",
"359 674 CURVE",
"360 670 OFFCURVE",
"361 667 OFFCURVE",
"363 663 CURVE SMOOTH",
"535 249 LINE",
"174 249 LINE"
);
},
{
closed = 1;
nodes = (
"277 805 OFFCURVE",
"291 818 OFFCURVE",
"291 832 CURVE SMOOTH",
"291 848 OFFCURVE",
"277 860 OFFCURVE",
"263 860 CURVE SMOOTH",
"247 860 OFFCURVE",
"235 848 OFFCURVE",
"235 832 CURVE SMOOTH",
"235 818 OFFCURVE",
"247 805 OFFCURVE",
"263 805 CURVE SMOOTH"
);
},
{
closed = 1;
nodes = (
"461 805 OFFCURVE",
"475 818 OFFCURVE",
"475 832 CURVE SMOOTH",
"475 848 OFFCURVE",
"461 860 OFFCURVE",
"447 860 CURVE SMOOTH",
"431 860 OFFCURVE",
"419 848 OFFCURVE",
"419 832 CURVE SMOOTH",
"419 818 OFFCURVE",
"431 805 OFFCURVE",
"447 805 CURVE SMOOTH"
);
}
);
width = 710;
},
{
layerId = "F36DCCA2-8A71-42CF-9609-F852DF368EC0";
paths = (
{
closed = 1;
nodes = (
"112 0 LINE SMOOTH",
"129 0 OFFCURVE",
"141 11 OFFCURVE",
"145 23 CURVE",
"212 196 LINE",
"533 196 LINE",
"600 23 LINE SMOOTH",
"606 10 OFFCURVE",
"616 0 OFFCURVE",
"633 0 CURVE SMOOTH",
"708 0 LINE",
"422 717 LINE",
"324 717 LINE",
"37 0 LINE"
);
},
{
closed = 1;
nodes = (
"351 557 LINE SMOOTH",
"359 575 OFFCURVE",
"366 598 OFFCURVE",
"373 625 CURVE",
"379 599 OFFCURVE",
"387 575 OFFCURVE",
"394 558 CURVE SMOOTH",
"506 266 LINE",
"239 266 LINE"
);
},
{
closed = 1;
nodes = (
"281 779 OFFCURVE",
"296 785 OFFCURVE",
"306 795 CURVE SMOOTH",
"316 805 OFFCURVE",
"323 819 OFFCURVE",
"323 833 CURVE SMOOTH",
"323 849 OFFCURVE",
"316 863 OFFCURVE",
"306 873 CURVE SMOOTH",
"296 883 OFFCURVE",
"281 889 OFFCURVE",
"267 889 CURVE SMOOTH",
"253 889 OFFCURVE",
"239 883 OFFCURVE",
"229 873 CURVE SMOOTH",
"219 863 OFFCURVE",
"213 849 OFFCURVE",
"213 833 CURVE SMOOTH",
"213 819 OFFCURVE",
"219 805 OFFCURVE",
"229 795 CURVE SMOOTH",
"239 785 OFFCURVE",
"253 779 OFFCURVE",
"267 779 CURVE SMOOTH"
);
},
{
closed = 1;
nodes = (
"491 779 OFFCURVE",
"505 785 OFFCURVE",
"515 795 CURVE SMOOTH",
"525 805 OFFCURVE",
"532 819 OFFCURVE",
"532 833 CURVE SMOOTH",
"532 849 OFFCURVE",
"525 863 OFFCURVE",
"515 873 CURVE SMOOTH",
"505 883 OFFCURVE",
"491 889 OFFCURVE",
"477 889 CURVE SMOOTH",
"461 889 OFFCURVE",
"448 883 OFFCURVE",
"438 873 CURVE SMOOTH",
"428 863 OFFCURVE",
"422 849 OFFCURVE",
"422 833 CURVE SMOOTH",
"422 819 OFFCURVE",
"428 805 OFFCURVE",
"438 795 CURVE SMOOTH",
"448 785 OFFCURVE",
"461 779 OFFCURVE",
"477 779 CURVE SMOOTH"
);
}
);
width = 745;
},
{
layerId = "A9E408DD-A955-440F-BEB6-B96F0772F152";
paths = (
{
closed = 1;
nodes = (
"134 0 LINE SMOOTH",
"156 0 OFFCURVE",
"172 15 OFFCURVE",
"178 31 CURVE SMOOTH",
"232 178 LINE",
"531 178 LINE",
"585 31 LINE",
"593 13 OFFCURVE",
"607 0 OFFCURVE",
"630 0 CURVE SMOOTH",
"734 0 LINE",
"450 723 LINE",
"313 723 LINE",
"28 0 LINE"
);
},
{
closed = 1;
nodes = (
"354 513 LINE SMOOTH",
"363 535 OFFCURVE",
"373 565 OFFCURVE",
"381 599 CURVE",
"391 565 OFFCURVE",
"400 535 OFFCURVE",
"409 514 CURVE SMOOTH",
"497 273 LINE",
"267 273 LINE"
);
},
{
closed = 1;
nodes = (
"288 768 OFFCURVE",
"306 775 OFFCURVE",
"318 787 CURVE SMOOTH",
"330 799 OFFCURVE",
"338 816 OFFCURVE",
"338 834 CURVE SMOOTH",
"338 852 OFFCURVE",
"330 869 OFFCURVE",
"318 881 CURVE",
"306 893 OFFCURVE",
"288 901 OFFCURVE",
"270 901 CURVE SMOOTH",
"252 901 OFFCURVE",
"236 893 OFFCURVE",
"224 881 CURVE SMOOTH",
"212 869 OFFCURVE",
"204 852 OFFCURVE",
"204 834 CURVE SMOOTH",
"204 816 OFFCURVE",
"212 799 OFFCURVE",
"224 787 CURVE SMOOTH",
"236 775 OFFCURVE",
"252 768 OFFCURVE",
"270 768 CURVE SMOOTH"
);
},
{
closed = 1;
nodes = (
"509 768 OFFCURVE",
"526 775 OFFCURVE",
"539 787 CURVE SMOOTH",
"551 799 OFFCURVE",
"558 816 OFFCURVE",
"558 834 CURVE SMOOTH",
"558 852 OFFCURVE",
"551 869 OFFCURVE",
"539 881 CURVE",
"526 893 OFFCURVE",
"509 901 OFFCURVE",
"491 901 CURVE SMOOTH",
"473 901 OFFCURVE",
"456 893 OFFCURVE",
"444 881 CURVE SMOOTH",
"432 869 OFFCURVE",
"424 852 OFFCURVE",
"424 834 CURVE SMOOTH",
"424 816 OFFCURVE",
"432 799 OFFCURVE",
"444 787 CURVE SMOOTH",
"456 775 OFFCURVE",
"473 768 OFFCURVE",
"491 768 CURVE SMOOTH"
);
}
);
width = 762;
}
);
leftKerningGroup = A;
note = Adieresis;
rightKerningGroup = A;
unicode = 00C4;
},
{
glyphname = Agrave;
lastChange = "2026-06-19 17:27:37 +0000";
layers = (
{
layerId = "7DA69401-B8BB-4CEF-A33A-65E5ADA83450";
paths = (
{
closed = 1;
nodes = (
"66 0 LINE SMOOTH",
"69 0 OFFCURVE",
"72 2 OFFCURVE",
"73 5 CURVE",
"170 239 LINE",
"539 239 LINE",
"637 5 LINE",
"638 2 OFFCURVE",
"640 0 OFFCURVE",
"643 0 CURVE SMOOTH",
"652 0 LINE",
"360 700 LINE",
"350 700 LINE",
"58 0 LINE"
);
},
{
closed = 1;
nodes = (
"347 663 LINE SMOOTH",
"348 667 OFFCURVE",
"350 670 OFFCURVE",
"351 674 CURVE",
"352 677 OFFCURVE",
"353 681 OFFCURVE",
"355 684 CURVE",
"356 681 OFFCURVE",
"357 677 OFFCURVE",
"359 674 CURVE",
"360 670 OFFCURVE",
"361 667 OFFCURVE",
"363 663 CURVE SMOOTH",
"535 249 LINE",
"174 249 LINE"
);
},
{
closed = 1;
nodes = (
"397 769 LINE",
"272 909 LINE SMOOTH",
"267 915 OFFCURVE",
"263 916 OFFCURVE",
"251 916 CURVE SMOOTH",
"233 916 LINE",
"382 772 LINE SMOOTH",
"384 770 OFFCURVE",
"387 769 OFFCURVE",
"391 769 CURVE SMOOTH"
);
}
);
width = 710;
},
{
layerId = "F36DCCA2-8A71-42CF-9609-F852DF368EC0";
paths = (
{
closed = 1;
nodes = (
"112 0 LINE SMOOTH",
"129 0 OFFCURVE",
"141 11 OFFCURVE",
"145 23 CURVE",
"212 196 LINE",
"533 196 LINE",
"600 23 LINE SMOOTH",
"606 10 OFFCURVE",
"616 0 OFFCURVE",
"633 0 CURVE SMOOTH",
"708 0 LINE",
"422 717 LINE",
"324 717 LINE",
"37 0 LINE"
);
},
{
closed = 1;
nodes = (
"351 557 LINE SMOOTH",
"359 575 OFFCURVE",
"366 598 OFFCURVE",
"373 625 CURVE",
"379 599 OFFCURVE",
"387 575 OFFCURVE",
"394 558 CURVE SMOOTH",
"506 266 LINE",
"239 266 LINE"
);
},
{
closed = 1;
nodes = (
"440 773 LINE",
"326 910 LINE SMOOTH",
"315 925 OFFCURVE",
"306 926 OFFCURVE",
"284 926 CURVE SMOOTH",
"189 926 LINE",
"345 783 LINE SMOOTH",
"355 773 OFFCURVE",
"362 773 OFFCURVE",
"376 773 CURVE SMOOTH"
);
}
);
width = 745;
},
{
layerId = "A9E408DD-A955-440F-BEB6-B96F0772F152";
paths = (
{
closed = 1;
nodes = (
"134 0 LINE SMOOTH",
"156 0 OFFCURVE",
"172 15 OFFCURVE",
"178 31 CURVE SMOOTH",
"232 178 LINE",
"531 178 LINE",
"585 31 LINE",
"593 13 OFFCURVE",
"607 0 OFFCURVE",
"630 0 CURVE SMOOTH",
"734 0 LINE",
"450 723 LINE",
"313 723 LINE",
"28 0 LINE"
);
},
{
closed = 1;
nodes = (
"354 513 LINE SMOOTH",
"363 535 OFFCURVE",
"373 565 OFFCURVE",
"381 599 CURVE",
"391 565 OFFCURVE",
"400 535 OFFCURVE",
"409 514 CURVE SMOOTH",
"497 273 LINE",
"267 273 LINE"
);
},
{
closed = 1;
nodes = (
"460 775 LINE",
"351 910 LINE SMOOTH",
"343 920 OFFCURVE",
"337 925 OFFCURVE",
"330 928 CURVE SMOOTH",
"322 931 OFFCURVE",
"313 931 OFFCURVE",
"299 931 CURVE SMOOTH",
"170 931 LINE",
"329 787 LINE SMOOTH",
"343 775 OFFCURVE",
"351 775 OFFCURVE",
"370 775 CURVE SMOOTH"
);
}
);
width = 762;
}
);
leftKerningGroup = A;
note = Agrave;
rightKerningGroup = A;
unicode = 00C0;
},
{
glyphname = Aring;
lastChange = "2026-06-19 17:27:37 +0000";
layers = (
{
layerId = "7DA69401-B8BB-4CEF-A33A-65E5ADA83450";
paths = (
{
closed = 1;
nodes = (
"66 0 LINE SMOOTH",
"69 0 OFFCURVE",
"72 2 OFFCURVE",
"73 5 CURVE",
"170 239 LINE",
"539 239 LINE",
"637 5 LINE",
"638 2 OFFCURVE",
"640 0 OFFCURVE",
"643 0 CURVE SMOOTH",
"652 0 LINE",
"360 700 LINE",
"350 700 LINE",
"58 0 LINE"
);
},
{
closed = 1;
nodes = (
"347 663 LINE SMOOTH",
"348 667 OFFCURVE",
"350 670 OFFCURVE",
"351 674 CURVE",
"352 677 OFFCURVE",
"353 681 OFFCURVE",
"355 684 CURVE",
"356 681 OFFCURVE",
"357 677 OFFCURVE",
"359 674 CURVE",
"360 670 OFFCURVE",
"361 667 OFFCURVE",
"363 663 CURVE SMOOTH",
"535 249 LINE",
"174 249 LINE"
);
},
{
closed = 1;
nodes = (
"375 765 OFFCURVE",
"394 773 OFFCURVE",
"407 786 CURVE SMOOTH",
"421 799 OFFCURVE",
"429 817 OFFCURVE",
"429 837 CURVE SMOOTH",
"429 858 OFFCURVE",
"421 876 OFFCURVE",
"407 889 CURVE SMOOTH",
"394 902 OFFCURVE",
"375 909 OFFCURVE",
"355 909 CURVE SMOOTH",
"334 909 OFFCURVE",
"316 902 OFFCURVE",
"302 889 CURVE SMOOTH",
"289 876 OFFCURVE",
"281 858 OFFCURVE",
"281 837 CURVE SMOOTH",
"281 817 OFFCURVE",
"289 799 OFFCURVE",
"302 786 CURVE SMOOTH",
"316 773 OFFCURVE",
"334 765 OFFCURVE",
"355 765 CURVE SMOOTH"
);
},
{
closed = 1;
nodes = (
"337 774 OFFCURVE",
"321 781 OFFCURVE",
"310 792 CURVE SMOOTH",
"298 804 OFFCURVE",
"292 819 OFFCURVE",
"292 837 CURVE SMOOTH",
"292 855 OFFCURVE",
"298 871 OFFCURVE",
"310 882 CURVE SMOOTH",
"321 894 OFFCURVE",
"337 900 OFFCURVE",
"355 900 CURVE SMOOTH",
"373 900 OFFCURVE",
"388 894 OFFCURVE",
"400 882 CURVE SMOOTH",
"411 871 OFFCURVE",
"418 855 OFFCURVE",
"418 837 CURVE SMOOTH",
"418 819 OFFCURVE",
"411 804 OFFCURVE",
"400 792 CURVE SMOOTH",
"388 781 OFFCURVE",
"373 774 OFFCURVE",
"355 774 CURVE SMOOTH"
);
}
);
width = 710;
},
{
layerId = "F36DCCA2-8A71-42CF-9609-F852DF368EC0";
paths = (
{
closed = 1;
nodes = (
"112 0 LINE SMOOTH",
"129 0 OFFCURVE",
"141 11 OFFCURVE",
"145 23 CURVE",
"212 196 LINE",
"533 196 LINE",
"600 23 LINE SMOOTH",
"606 10 OFFCURVE",
"616 0 OFFCURVE",
"633 0 CURVE SMOOTH",
"708 0 LINE",
"422 717 LINE",
"324 717 LINE",
"37 0 LINE"
);
},
{
closed = 1;
nodes = (
"351 557 LINE SMOOTH",
"359 575 OFFCURVE",
"366 598 OFFCURVE",
"373 625 CURVE",
"379 599 OFFCURVE",
"387 575 OFFCURVE",
"394 558 CURVE SMOOTH",
"506 266 LINE",
"239 266 LINE"
);
},
{
closed = 1;
nodes = (
"398 761 OFFCURVE",
"422 770 OFFCURVE",
"439 786 CURVE SMOOTH",
"457 801 OFFCURVE",
"468 823 OFFCURVE",
"468 849 CURVE SMOOTH",
"468 875 OFFCURVE",
"457 897 OFFCURVE",
"439 913 CURVE SMOOTH",
"422 928 OFFCURVE",
"398 937 OFFCURVE",
"372 937 CURVE SMOOTH",
"346 937 OFFCURVE",
"323 928 OFFCURVE",
"306 913 CURVE SMOOTH",
"289 897 OFFCURVE",
"278 875 OFFCURVE",
"278 849 CURVE SMOOTH",
"278 823 OFFCURVE",
"289 801 OFFCURVE",
"306 786 CURVE SMOOTH",
"323 770 OFFCURVE",
"346 761 OFFCURVE",
"372 761 CURVE SMOOTH"
);
},
{
closed = 1;
nodes = (
"341 799 OFFCURVE",
"322 819 OFFCURVE",
"322 849 CURVE SMOOTH",
"322 879 OFFCURVE",
"341 899 OFFCURVE",
"373 899 CURVE SMOOTH",
"403 899 OFFCURVE",
"423 879 OFFCURVE",
"423 849 CURVE SMOOTH",
"423 819 OFFCURVE",
"403 799 OFFCURVE",
"373 799 CURVE SMOOTH"
);
}
);
width = 745;
},
{
layerId = "A9E408DD-A955-440F-BEB6-B96F0772F152";
paths = (
{
closed = 1;
nodes = (
"134 0 LINE SMOOTH",
"156 0 OFFCURVE",
"172 15 OFFCURVE",
"178 31 CURVE SMOOTH",
"232 178 LINE",
"531 178 LINE",
"585 31 LINE",
"593 13 OFFCURVE",
"607 0 OFFCURVE",
"630 0 CURVE SMOOTH",
"734 0 LINE",
"450 723 LINE",
"313 723 LINE",
"28 0 LINE"
);
},
{
closed = 1;
nodes = (
"354 513 LINE SMOOTH",
"363 535 OFFCURVE",
"373 565 OFFCURVE",
"381 599 CURVE",
"391 565 OFFCURVE",
"400 535 OFFCURVE",
"409 514 CURVE SMOOTH",
"497 273 LINE",
"267 273 LINE"
);
},
{
closed = 1;
nodes = (
"409 760 OFFCURVE",
"436 769 OFFCURVE",
"455 786 CURVE SMOOTH",
"474 802 OFFCURVE",
"486 825 OFFCURVE",
"486 853 CURVE SMOOTH",
"486 882 OFFCURVE",
"474 906 OFFCURVE",
"455 923 CURVE SMOOTH",
"436 939 OFFCURVE",
"409 949 OFFCURVE",
"381 949 CURVE SMOOTH",
"353 949 OFFCURVE",
"328 939 OFFCURVE",
"309 923 CURVE SMOOTH",
"290 906 OFFCURVE",
"278 882 OFFCURVE",
"278 853 CURVE SMOOTH",
"278 825 OFFCURVE",
"290 802 OFFCURVE",
"309 786 CURVE SMOOTH",
"328 769 OFFCURVE",
"353 760 OFFCURVE",
"381 760 CURVE SMOOTH"
);
},
{
closed = 1;
nodes = (
"353 809 OFFCURVE",
"337 827 OFFCURVE",
"337 853 CURVE SMOOTH",
"337 881 OFFCURVE",
"353 899 OFFCURVE",
"382 899 CURVE SMOOTH",
"409 899 OFFCURVE",
"426 881 OFFCURVE",
"426 853 CURVE SMOOTH",
"426 827 OFFCURVE",
"409 809 OFFCURVE",
"382 809 CURVE SMOOTH"
);
}
);
width = 762;
}
);
leftKerningGroup = A;
note = Aring;
rightKerningGroup = A;
unicode = 00C5;
},
{
glyphname = Atilde;
lastChange = "2026-06-19 17:27:37 +0000";
layers = (
{
layerId = "7DA69401-B8BB-4CEF-A33A-65E5ADA83450";
paths = (
{
closed = 1;
nodes = (
"66 0 LINE SMOOTH",
"69 0 OFFCURVE",
"72 2 OFFCURVE",
"73 5 CURVE",
"170 239 LINE",
"539 239 LINE",
"637 5 LINE",
"638 2 OFFCURVE",
"640 0 OFFCURVE",
"643 0 CURVE SMOOTH",
"652 0 LINE",
"360 700 LINE",
"350 700 LINE",
"58 0 LINE"
);
},
{
closed = 1;
nodes = (
"347 663 LINE SMOOTH",
"348 667 OFFCURVE",
"350 670 OFFCURVE",
"351 674 CURVE",
"352 677 OFFCURVE",
"353 681 OFFCURVE",
"355 684 CURVE",
"356 681 OFFCURVE",
"357 677 OFFCURVE",
"359 674 CURVE",
"360 670 OFFCURVE",
"361 667 OFFCURVE",
"363 663 CURVE SMOOTH",
"535 249 LINE",
"174 249 LINE"
);
},
{
closed = 1;
nodes = (
"439 778 OFFCURVE",
"455 786 OFFCURVE",
"465 798 CURVE SMOOTH",
"476 810 OFFCURVE",
"482 827 OFFCURVE",
"482 845 CURVE",
"474 845 LINE",
"472 813 OFFCURVE",
"452 788 OFFCURVE",
"419 788 CURVE SMOOTH",
"399 788 OFFCURVE",
"380 803 OFFCURVE",
"360 817 CURVE SMOOTH",
"340 832 OFFCURVE",
"319 846 OFFCURVE",
"297 846 CURVE SMOOTH",
"277 846 OFFCURVE",
"261 838 OFFCURVE",
"250 826 CURVE SMOOTH",
"239 814 OFFCURVE",
"233 797 OFFCURVE",
"233 779 CURVE",
"242 779 LINE",
"242 795 OFFCURVE",
"248 809 OFFCURVE",
"258 820 CURVE SMOOTH",
"267 830 OFFCURVE",
"281 836 OFFCURVE",
"297 836 CURVE SMOOTH",
"316 836 OFFCURVE",
"336 822 OFFCURVE",
"356 807 CURVE SMOOTH",
"376 793 OFFCURVE",
"397 778 OFFCURVE",
"419 778 CURVE SMOOTH"
);
}
);
width = 710;
},
{
layerId = "F36DCCA2-8A71-42CF-9609-F852DF368EC0";
paths = (
{
closed = 1;
nodes = (
"112 0 LINE SMOOTH",
"129 0 OFFCURVE",
"141 11 OFFCURVE",
"145 23 CURVE",
"212 196 LINE",
"533 196 LINE",
"600 23 LINE SMOOTH",
"606 10 OFFCURVE",
"616 0 OFFCURVE",
"633 0 CURVE SMOOTH",
"708 0 LINE",
"422 717 LINE",
"324 717 LINE",
"37 0 LINE"
);
},
{
closed = 1;
nodes = (
"351 557 LINE SMOOTH",
"359 575 OFFCURVE",
"366 598 OFFCURVE",
"373 625 CURVE",
"379 599 OFFCURVE",
"387 575 OFFCURVE",
"394 558 CURVE SMOOTH",
"506 266 LINE",
"239 266 LINE"
);
},
{
closed = 1;
nodes = (
"475 772 OFFCURVE",
"497 785 OFFCURVE",
"513 806 CURVE SMOOTH",
"529 826 OFFCURVE",
"537 853 OFFCURVE",
"537 882 CURVE",
"482 882 LINE",
"482 870 OFFCURVE",
"478 857 OFFCURVE",
"470 848 CURVE SMOOTH",
"462 838 OFFCURVE",
"451 832 OFFCURVE",
"435 832 CURVE SMOOTH",
"417 832 OFFCURVE",
"399 845 OFFCURVE",
"379 858 CURVE SMOOTH",
"359 871 OFFCURVE",
"336 884 OFFCURVE",
"306 884 CURVE SMOOTH",
"276 884 OFFCURVE",
"254 871 OFFCURVE",
"238 851 CURVE SMOOTH",
"223 831 OFFCURVE",
"214 803 OFFCURVE",
"214 774 CURVE",
"270 774 LINE",
"270 786 OFFCURVE",
"274 799 OFFCURVE",
"282 809 CURVE SMOOTH",
"289 818 OFFCURVE",
"300 825 OFFCURVE",
"316 825 CURVE SMOOTH",
"334 825 OFFCURVE",
"352 812 OFFCURVE",
"372 799 CURVE SMOOTH",
"392 786 OFFCURVE",
"415 772 OFFCURVE",
"445 772 CURVE SMOOTH"
);
}
);
width = 745;
},
{
layerId = "A9E408DD-A955-440F-BEB6-B96F0772F152";
paths = (
{
closed = 1;
nodes = (
"134 0 LINE SMOOTH",
"156 0 OFFCURVE",
"172 15 OFFCURVE",
"178 31 CURVE SMOOTH",
"232 178 LINE",
"531 178 LINE",
"585 31 LINE",
"593 13 OFFCURVE",
"607 0 OFFCURVE",
"630 0 CURVE SMOOTH",
"734 0 LINE",
"450 723 LINE",
"313 723 LINE",
"28 0 LINE"
);
},
{
closed = 1;
nodes = (
"354 513 LINE SMOOTH",
"363 535 OFFCURVE",
"373 565 OFFCURVE",
"381 599 CURVE",
"391 565 OFFCURVE",
"400 535 OFFCURVE",
"409 514 CURVE SMOOTH",
"497 273 LINE",
"267 273 LINE"
);
},
{
closed = 1;
nodes = (
"492 770 OFFCURVE",
"518 785 OFFCURVE",
"536 809 CURVE SMOOTH",
"553 832 OFFCURVE",
"562 863 OFFCURVE",
"562 897 CURVE",
"487 897 LINE",
"487 886 OFFCURVE",
"484 875 OFFCURVE",
"477 866 CURVE SMOOTH",
"470 857 OFFCURVE",
"458 850 OFFCURVE",
"444 850 CURVE SMOOTH",
"426 850 OFFCURVE",
"409 863 OFFCURVE",
"389 875 CURVE SMOOTH",
"369 887 OFFCURVE",
"345 900 OFFCURVE",
"311 900 CURVE SMOOTH",
"277 900 OFFCURVE",
"252 885 OFFCURVE",
"234 861 CURVE SMOOTH",
"216 837 OFFCURVE",
"207 805 OFFCURVE",
"207 772 CURVE",
"283 772 LINE",
"283 783 OFFCURVE",
"287 795 OFFCURVE",
"293 804 CURVE SMOOTH",
"300 814 OFFCURVE",
"310 820 OFFCURVE",
"326 820 CURVE SMOOTH",
"335 820 OFFCURVE",
"344 818 OFFCURVE",
"352 812 CURVE SMOOTH",
"361 807 OFFCURVE",
"370 801 OFFCURVE",
"380 795 CURVE SMOOTH",
"401 783 OFFCURVE",
"425 770 OFFCURVE",
"459 770 CURVE SMOOTH"
);
}
);
width = 762;
}
);
leftKerningGroup = A;
note = Atilde;
rightKerningGroup = A;
unicode = 00C3;
},
{
glyphname = AE;
lastChange = "2026-06-19 17:27:37 +0000";
layers = (
{
layerId = "7DA69401-B8BB-4CEF-A33A-65E5ADA83450";
paths = (
{
closed = 1;
nodes = (
"65 0 LINE SMOOTH",
"68 0 OFFCURVE",
"70 2 OFFCURVE",
"71 4 CURVE SMOOTH",
"206 239 LINE",
"521 239 LINE",
"552 0 LINE",
"910 0 LINE",
"911 11 LINE",
"561 11 LINE",
"517 350 LINE",
"850 350 LINE",
"850 361 LINE",
"516 361 LINE",
"473 689 LINE",
"910 689 LINE",
"910 700 LINE",
"457 700 LINE",
"55 0 LINE"
);
},
{
closed = 1;
nodes = (
"450 663 LINE SMOOTH",
"456 674 OFFCURVE",
"459 680 OFFCURVE",
"462 690 CURVE",
"519 249 LINE",
"212 249 LINE"
);
}
);
width = 971;
},
{
layerId = "F36DCCA2-8A71-42CF-9609-F852DF368EC0";
paths = (
{
closed = 1;
nodes = (
"108 0 LINE SMOOTH",
"125 0 OFFCURVE",
"138 9 OFFCURVE",
"145 23 CURVE SMOOTH",
"235 196 LINE",
"513 196 LINE",
"537 0 LINE",
"923 0 LINE",
"924 79 LINE",
"618 79 LINE",
"588 324 LINE",
"858 324 LINE",
"858 400 LINE",
"579 400 LINE",
"549 638 LINE",
"923 638 LINE",
"923 717 LINE",
"412 717 LINE",
"34 0 LINE"
);
},
{
closed = 1;
nodes = (
"429 572 LINE",
"439 594 OFFCURVE",
"448 616 OFFCURVE",
"457 644 CURVE",
"504 266 LINE",
"271 266 LINE"
);
}
);
width = 980;
},
{
layerId = "A9E408DD-A955-440F-BEB6-B96F0772F152";
paths = (
{
closed = 1;
nodes = (
"127 0 LINE SMOOTH",
"151 0 OFFCURVE",
"169 12 OFFCURVE",
"178 30 CURVE SMOOTH",
"249 178 LINE",
"509 178 LINE",
"531 0 LINE",
"929 0 LINE",
"929 108 LINE",
"645 108 LINE",
"620 312 LINE",
"861 312 LINE",
"861 416 LINE",
"607 416 LINE",
"582 616 LINE",
"929 616 LINE",
"929 723 LINE",
"393 723 LINE",
"25 0 LINE"
);
},
{
closed = 1;
nodes = (
"420 534 LINE SMOOTH",
"432 559 OFFCURVE",
"444 589 OFFCURVE",
"454 623 CURVE",
"497 273 LINE",
"295 273 LINE"
);
}
);
width = 983;
}
);
leftKerningGroup = AE;
note = AE;
rightKerningGroup = AE;
unicode = 00C6;
},
{
glyphname = B;
lastChange = "2026-06-19 17:27:37 +0000";
layers = (
{
layerId = "7DA69401-B8BB-4CEF-A33A-65E5ADA83450";
paths = (
{
closed = 1;
nodes = (
"337 0 LINE SMOOTH",
"409 0 OFFCURVE",
"466 17 OFFCURVE",
"505 48 CURVE SMOOTH",
"544 79 OFFCURVE",
"564 125 OFFCURVE",
"564 184 CURVE SMOOTH",
"564 235 OFFCURVE",
"546 276 OFFCURVE",
"512 306 CURVE SMOOTH",
"478 335 OFFCURVE",
"430 353 OFFCURVE",
"370 357 CURVE",
"416 362 OFFCURVE",
"457 384 OFFCURVE",
"485 414 CURVE SMOOTH",
"514 445 OFFCURVE",
"531 485 OFFCURVE",
"531 526 CURVE SMOOTH",
"531 639 OFFCURVE",
"459 700 OFFCURVE",
"310 700 CURVE SMOOTH",
"128 700 LINE",
"128 0 LINE"
);
},
{
closed = 1;
nodes = (
"140 350 LINE",
"338 350 LINE SMOOTH",
"403 350 OFFCURVE",
"457 335 OFFCURVE",
"494 306 CURVE SMOOTH",
"531 277 OFFCURVE",
"552 235 OFFCURVE",
"552 184 CURVE SMOOTH",
"552 127 OFFCURVE",
"533 83 OFFCURVE",
"496 54 CURVE SMOOTH",
"459 25 OFFCURVE",
"405 10 OFFCURVE",
"337 10 CURVE SMOOTH",
"140 10 LINE"
);
},
{
closed = 1;
nodes = (
"140 690 LINE",
"310 690 LINE SMOOTH",
"452 690 OFFCURVE",
"520 630 OFFCURVE",
"520 526 CURVE SMOOTH",
"520 489 OFFCURVE",
"506 448 OFFCURVE",
"474 416 CURVE SMOOTH",
"441 383 OFFCURVE",
"390 360 OFFCURVE",
"315 360 CURVE SMOOTH",
"140 360 LINE"
);
}
);
width = 646;
},
{
layerId = "F36DCCA2-8A71-42CF-9609-F852DF368EC0";
paths = (
{
closed = 1;
nodes = (
"362 0 LINE SMOOTH",
"442 0 OFFCURVE",
"505 21 OFFCURVE",
"548 57 CURVE SMOOTH",
"591 93 OFFCURVE",
"614 144 OFFCURVE",
"614 204 CURVE SMOOTH",
"614 294 OFFCURVE",
"561 349 OFFCURVE",
"455 369 CURVE",
"501 383 OFFCURVE",
"534 406 OFFCURVE",
"556 434 CURVE SMOOTH",
"578 462 OFFCURVE",
"589 494 OFFCURVE",
"589 530 CURVE SMOOTH",
"589 588 OFFCURVE",
"571 635 OFFCURVE",
"530 667 CURVE SMOOTH",
"489 699 OFFCURVE",
"425 717 OFFCURVE",
"337 717 CURVE SMOOTH",
"109 717 LINE",
"109 0 LINE"
);
},
{
closed = 1;
nodes = (
"205 327 LINE",
"360 327 LINE SMOOTH",
"466 327 OFFCURVE",
"518 281 OFFCURVE",
"518 207 CURVE SMOOTH",
"518 169 OFFCURVE",
"507 137 OFFCURVE",
"481 114 CURVE SMOOTH",
"455 91 OFFCURVE",
"416 77 OFFCURVE",
"360 77 CURVE SMOOTH",
"205 77 LINE"
);
},
{
closed = 1;
nodes = (
"205 640 LINE",
"337 640 LINE SMOOTH",
"444 640 OFFCURVE",
"493 603 OFFCURVE",
"493 518 CURVE SMOOTH",
"493 482 OFFCURVE",
"481 451 OFFCURVE",
"455 430 CURVE SMOOTH",
"428 408 OFFCURVE",
"388 396 OFFCURVE",
"333 396 CURVE SMOOTH",
"205 396 LINE"
);
}
);
width = 678;
},
{
layerId = "A9E408DD-A955-440F-BEB6-B96F0772F152";
paths = (
{
closed = 1;
nodes = (
"373 0 LINE SMOOTH",
"457 0 OFFCURVE",
"523 23 OFFCURVE",
"567 61 CURVE SMOOTH",
"612 98 OFFCURVE",
"636 151 OFFCURVE",
"636 213 CURVE SMOOTH",
"636 298 OFFCURVE",
"586 351 OFFCURVE",
"487 374 CURVE",
"531 389 OFFCURVE",
"564 412 OFFCURVE",
"585 439 CURVE SMOOTH",
"606 466 OFFCURVE",
"615 497 OFFCURVE",
"615 531 CURVE SMOOTH",
"615 590 OFFCURVE",
"596 638 OFFCURVE",
"553 671 CURVE SMOOTH",
"510 705 OFFCURVE",
"443 723 OFFCURVE",
"349 723 CURVE SMOOTH",
"100 723 LINE",
"100 0 LINE"
);
},
{
closed = 1;
nodes = (
"234 317 LINE",
"370 317 LINE SMOOTH",
"417 317 OFFCURVE",
"450 308 OFFCURVE",
"472 290 CURVE SMOOTH",
"493 272 OFFCURVE",
"503 247 OFFCURVE",
"503 216 CURVE SMOOTH",
"503 186 OFFCURVE",
"494 158 OFFCURVE",
"474 138 CURVE SMOOTH",
"454 118 OFFCURVE",
"420 105 OFFCURVE",
"370 105 CURVE SMOOTH",
"234 105 LINE"
);
},
{
closed = 1;
nodes = (
"234 619 LINE",
"349 619 LINE SMOOTH",
"439 619 OFFCURVE",
"481 590 OFFCURVE",
"481 515 CURVE SMOOTH",
"481 442 OFFCURVE",
"433 410 OFFCURVE",
"341 410 CURVE SMOOTH",
"234 410 LINE"
);
}
);
width = 692;
}
);
leftKerningGroup = B;
note = B;
rightKerningGroup = B;
unicode = 0042;
},
{
glyphname = C;
lastChange = "2026-06-19 17:27:37 +0000";
layers = (
{
layerId = "7DA69401-B8BB-4CEF-A33A-65E5ADA83450";
paths = (
{
closed = 1;
nodes = (
"468 -8 OFFCURVE",
"516 3 OFFCURVE",
"556 20 CURVE SMOOTH",
"596 37 OFFCURVE",
"629 61 OFFCURVE",
"658 89 CURVE",
"654 93 LINE",
"653 94 OFFCURVE",
"652 95 OFFCURVE",
"650 95 CURVE SMOOTH",
"649 95 OFFCURVE",
"648 94 OFFCURVE",
"646 92 CURVE",
"615 64 OFFCURVE",
"585 41 OFFCURVE",
"548 26 CURVE SMOOTH",
"511 10 OFFCURVE",
"467 2 OFFCURVE",
"410 2 CURVE SMOOTH",
"321 2 OFFCURVE",
"243 35 OFFCURVE",
"187 95 CURVE SMOOTH",
"131 155 OFFCURVE",
"97 242 OFFCURVE",
"97 350 CURVE SMOOTH",
"97 457 OFFCURVE",
"131 544 OFFCURVE",
"188 605 CURVE SMOOTH",
"245 665 OFFCURVE",
"326 698 OFFCURVE",
"420 698 CURVE SMOOTH",
"456 698 OFFCURVE",
"487 694 OFFCURVE",
"513 686 CURVE SMOOTH",
"565 670 OFFCURVE",
"601 649 OFFCURVE",
"620 633 CURVE SMOOTH",
"629 625 OFFCURVE",
"635 621 OFFCURVE",
"637 621 CURVE SMOOTH",
"640 621 OFFCURVE",
"642 622 OFFCURVE",
"642 623 CURVE",
"644 626 LINE",
"612 653 OFFCURVE",
"579 673 OFFCURVE",
"543 687 CURVE SMOOTH",
"507 701 OFFCURVE",
"466 708 OFFCURVE",
"420 708 CURVE SMOOTH",
"321 708 OFFCURVE",
"237 673 OFFCURVE",
"178 610 CURVE SMOOTH",
"119 547 OFFCURVE",
"85 457 OFFCURVE",
"85 350 CURVE SMOOTH",
"85 240 OFFCURVE",
"119 150 OFFCURVE",
"177 88 CURVE SMOOTH",
"235 26 OFFCURVE",
"316 -8 OFFCURVE",
"410 -8 CURVE SMOOTH"
);
}
);
width = 720;
},
{
layerId = "F36DCCA2-8A71-42CF-9609-F852DF368EC0";
paths = (
{
closed = 1;
nodes = (
"523 -8 OFFCURVE",
"605 32 OFFCURVE",
"663 100 CURVE",
"625 142 LINE SMOOTH",
"621 146 OFFCURVE",
"616 148 OFFCURVE",
"611 148 CURVE SMOOTH",
"605 148 OFFCURVE",
"599 146 OFFCURVE",
"594 141 CURVE SMOOTH",
"569 118 OFFCURVE",
"545 102 OFFCURVE",
"516 91 CURVE SMOOTH",
"487 81 OFFCURVE",
"453 76 OFFCURVE",
"411 76 CURVE SMOOTH",
"341 76 OFFCURVE",
"279 102 OFFCURVE",
"235 150 CURVE SMOOTH",
"190 198 OFFCURVE",
"163 269 OFFCURVE",
"163 358 CURVE SMOOTH",
"163 446 OFFCURVE",
"189 517 OFFCURVE",
"233 566 CURVE SMOOTH",
"277 614 OFFCURVE",
"340 641 OFFCURVE",
"414 641 CURVE SMOOTH",
"444 641 OFFCURVE",
"470 638 OFFCURVE",
"491 631 CURVE SMOOTH",
"533 618 OFFCURVE",
"560 601 OFFCURVE",
"578 588 CURVE SMOOTH",
"586 581 OFFCURVE",
"594 578 OFFCURVE",
"600 578 CURVE SMOOTH",
"610 578 OFFCURVE",
"616 583 OFFCURVE",
"620 589 CURVE",
"652 634 LINE",
"593 690 OFFCURVE",
"516 725 OFFCURVE",
"414 725 CURVE SMOOTH",
"310 725 OFFCURVE",
"223 687 OFFCURVE",
"161 623 CURVE SMOOTH",
"99 558 OFFCURVE",
"64 466 OFFCURVE",
"64 358 CURVE SMOOTH",
"64 250 OFFCURVE",
"98 158 OFFCURVE",
"157 94 CURVE SMOOTH",
"217 30 OFFCURVE",
"302 -8 OFFCURVE",
"405 -8 CURVE SMOOTH"
);
}
);
width = 706;
},
{
layerId = "A9E408DD-A955-440F-BEB6-B96F0772F152";
paths = (
{
closed = 1;
nodes = (
"523 -8 OFFCURVE",
"607 32 OFFCURVE",
"666 105 CURVE",
"613 162 LINE",
"607 168 OFFCURVE",
"601 171 OFFCURVE",
"593 171 CURVE SMOOTH",
"585 171 OFFCURVE",
"578 167 OFFCURVE",
"571 161 CURVE SMOOTH",
"549 141 OFFCURVE",
"528 127 OFFCURVE",
"503 119 CURVE SMOOTH",
"478 110 OFFCURVE",
"448 106 OFFCURVE",
"412 106 CURVE SMOOTH",
"350 106 OFFCURVE",
"296 130 OFFCURVE",
"256 173 CURVE SMOOTH",
"217 217 OFFCURVE",
"192 280 OFFCURVE",
"192 362 CURVE SMOOTH",
"192 442 OFFCURVE",
"215 506 OFFCURVE",
"253 550 CURVE SMOOTH",
"292 593 OFFCURVE",
"347 617 OFFCURVE",
"411 617 CURVE SMOOTH",
"449 617 OFFCURVE",
"478 610 OFFCURVE",
"500 602 CURVE SMOOTH",
"522 594 OFFCURVE",
"538 583 OFFCURVE",
"551 575 CURVE SMOOTH",
"563 566 OFFCURVE",
"574 560 OFFCURVE",
"584 560 CURVE SMOOTH",
"598 560 OFFCURVE",
"606 567 OFFCURVE",
"611 575 CURVE SMOOTH",
"656 637 LINE",
"599 693 OFFCURVE",
"517 731 OFFCURVE",
"412 731 CURVE SMOOTH",
"306 731 OFFCURVE",
"217 693 OFFCURVE",
"154 628 CURVE SMOOTH",
"91 562 OFFCURVE",
"55 470 OFFCURVE",
"55 362 CURVE SMOOTH",
"55 254 OFFCURVE",
"88 162 OFFCURVE",
"149 96 CURVE SMOOTH",
"209 31 OFFCURVE",
"296 -8 OFFCURVE",
"403 -8 CURVE SMOOTH"
);
}
);
width = 700;
}
);
leftKerningGroup = C;
note = C;
rightKerningGroup = C;
unicode = 0043;
},
{
glyphname = Ccedilla;
lastChange = "2026-06-19 17:27:37 +0000";
layers = (
{
layerId = "7DA69401-B8BB-4CEF-A33A-65E5ADA83450";
paths = (
{
closed = 1;
nodes = (
"442 -179 OFFCURVE",
"461 -174 OFFCURVE",
"475 -163 CURVE SMOOTH",
"489 -153 OFFCURVE",
"497 -139 OFFCURVE",
"497 -119 CURVE SMOOTH",
"497 -99 OFFCURVE",
"487 -85 OFFCURVE",
"471 -75 CURVE SMOOTH",
"454 -65 OFFCURVE",
"430 -60 OFFCURVE",
"402 -55 CURVE",
"417 -8 LINE",
"473 -8 OFFCURVE",
"518 4 OFFCURVE",
"558 21 CURVE SMOOTH",
"597 38 OFFCURVE",
"629 61 OFFCURVE",
"658 89 CURVE",
"654 93 LINE",
"653 94 OFFCURVE",
"652 95 OFFCURVE",
"650 95 CURVE SMOOTH",
"649 95 OFFCURVE",
"648 94 OFFCURVE",
"646 92 CURVE",
"615 64 OFFCURVE",
"585 41 OFFCURVE",
"548 26 CURVE SMOOTH",
"511 10 OFFCURVE",
"467 2 OFFCURVE",
"410 2 CURVE SMOOTH",
"321 2 OFFCURVE",
"243 35 OFFCURVE",
"187 95 CURVE SMOOTH",
"131 155 OFFCURVE",
"97 242 OFFCURVE",
"97 350 CURVE SMOOTH",
"97 457 OFFCURVE",
"131 544 OFFCURVE",
"188 605 CURVE SMOOTH",
"245 665 OFFCURVE",
"326 698 OFFCURVE",
"420 698 CURVE SMOOTH",
"456 698 OFFCURVE",
"487 694 OFFCURVE",
"513 686 CURVE SMOOTH",
"565 670 OFFCURVE",
"601 649 OFFCURVE",
"620 633 CURVE SMOOTH",
"629 625 OFFCURVE",
"635 621 OFFCURVE",
"637 621 CURVE SMOOTH",
"640 621 OFFCURVE",
"642 622 OFFCURVE",
"642 623 CURVE",
"644 626 LINE",
"612 653 OFFCURVE",
"579 673 OFFCURVE",
"543 687 CURVE SMOOTH",
"507 701 OFFCURVE",
"466 708 OFFCURVE",
"420 708 CURVE SMOOTH",
"321 708 OFFCURVE",
"237 673 OFFCURVE",
"178 610 CURVE SMOOTH",
"119 547 OFFCURVE",
"85 457 OFFCURVE",
"85 350 CURVE SMOOTH",
"85 240 OFFCURVE",
"119 151 OFFCURVE",
"177 89 CURVE SMOOTH",
"234 27 OFFCURVE",
"314 -8 OFFCURVE",
"408 -8 CURVE",
"390 -63 LINE",
"417 -67 OFFCURVE",
"441 -70 OFFCURVE",
"458 -78 CURVE SMOOTH",
"476 -87 OFFCURVE",
"486 -100 OFFCURVE",
"486 -120 CURVE SMOOTH",
"486 -152 OFFCURVE",
"462 -170 OFFCURVE",
"422 -170 CURVE SMOOTH",
"411 -170 OFFCURVE",
"401 -169 OFFCURVE",
"393 -167 CURVE",
"377 -162 OFFCURVE",
"367 -156 OFFCURVE",
"361 -152 CURVE",
"358 -149 OFFCURVE",
"356 -148 OFFCURVE",
"354 -148 CURVE SMOOTH",
"353 -148 OFFCURVE",
"351 -149 OFFCURVE",
"349 -151 CURVE SMOOTH",
"347 -153 LINE",
"363 -169 OFFCURVE",
"392 -179 OFFCURVE",
"419 -179 CURVE SMOOTH"
);
}
);
width = 720;
},
{
layerId = "F36DCCA2-8A71-42CF-9609-F852DF368EC0";
paths = (
{
closed = 1;
nodes = (
"432 -179 OFFCURVE",
"460 -172 OFFCURVE",
"479 -160 CURVE SMOOTH",
"498 -148 OFFCURVE",
"509 -131 OFFCURVE",
"509 -109 CURVE SMOOTH",
"509 -73 OFFCURVE",
"483 -50 OFFCURVE",
"421 -38 CURVE",
"430 -8 LINE",
"535 -2 OFFCURVE",
"609 37 OFFCURVE",
"663 100 CURVE",
"625 142 LINE SMOOTH",
"621 146 OFFCURVE",
"616 148 OFFCURVE",
"611 148 CURVE SMOOTH",
"605 148 OFFCURVE",
"599 146 OFFCURVE",
"594 141 CURVE SMOOTH",
"569 118 OFFCURVE",
"545 102 OFFCURVE",
"516 91 CURVE SMOOTH",
"487 81 OFFCURVE",
"453 76 OFFCURVE",
"411 76 CURVE SMOOTH",
"341 76 OFFCURVE",
"279 102 OFFCURVE",
"235 150 CURVE SMOOTH",
"190 198 OFFCURVE",
"163 269 OFFCURVE",
"163 358 CURVE SMOOTH",
"163 446 OFFCURVE",
"189 517 OFFCURVE",
"233 566 CURVE SMOOTH",
"277 614 OFFCURVE",
"340 641 OFFCURVE",
"414 641 CURVE SMOOTH",
"444 641 OFFCURVE",
"470 638 OFFCURVE",
"491 631 CURVE SMOOTH",
"533 618 OFFCURVE",
"560 601 OFFCURVE",
"578 588 CURVE SMOOTH",
"586 581 OFFCURVE",
"594 578 OFFCURVE",
"600 578 CURVE SMOOTH",
"610 578 OFFCURVE",
"616 583 OFFCURVE",
"620 589 CURVE",
"652 634 LINE",
"593 690 OFFCURVE",
"516 725 OFFCURVE",
"414 725 CURVE SMOOTH",
"310 725 OFFCURVE",
"223 687 OFFCURVE",
"161 623 CURVE SMOOTH",
"99 558 OFFCURVE",
"64 466 OFFCURVE",
"64 358 CURVE SMOOTH",
"64 255 OFFCURVE",
"95 167 OFFCURVE",
"150 103 CURVE SMOOTH",
"205 39 OFFCURVE",
"283 -1 OFFCURVE",
"378 -7 CURVE",
"358 -69 LINE",
"383 -72 OFFCURVE",
"403 -76 OFFCURVE",
"417 -81 CURVE SMOOTH",
"431 -87 OFFCURVE",
"438 -96 OFFCURVE",
"438 -108 CURVE SMOOTH",
"438 -126 OFFCURVE",
"424 -138 OFFCURVE",
"396 -138 CURVE SMOOTH",
"389 -138 OFFCURVE",
"383 -138 OFFCURVE",
"378 -136 CURVE",
"367 -134 OFFCURVE",
"360 -131 OFFCURVE",
"354 -128 CURVE",
"352 -127 OFFCURVE",
"349 -127 OFFCURVE",
"347 -127 CURVE SMOOTH",
"342 -127 OFFCURVE",
"338 -130 OFFCURVE",
"336 -136 CURVE SMOOTH",
"327 -163 LINE",
"348 -173 OFFCURVE",
"373 -179 OFFCURVE",
"400 -179 CURVE SMOOTH"
);
}
);
width = 705;
},
{
layerId = "A9E408DD-A955-440F-BEB6-B96F0772F152";
paths = (
{
closed = 1;
nodes = (
"429 -178 OFFCURVE",
"459 -171 OFFCURVE",
"481 -159 CURVE SMOOTH",
"503 -146 OFFCURVE",
"515 -128 OFFCURVE",
"515 -105 CURVE SMOOTH",
"515 -71 OFFCURVE",
"492 -45 OFFCURVE",
"430 -31 CURVE",
"436 -7 LINE",
"539 1 OFFCURVE",
"613 39 OFFCURVE",
"666 105 CURVE",
"613 162 LINE",
"607 168 OFFCURVE",
"601 171 OFFCURVE",
"593 171 CURVE SMOOTH",
"585 171 OFFCURVE",
"578 167 OFFCURVE",
"571 161 CURVE SMOOTH",
"549 141 OFFCURVE",
"528 127 OFFCURVE",
"503 119 CURVE SMOOTH",
"478 110 OFFCURVE",
"448 106 OFFCURVE",
"412 106 CURVE SMOOTH",
"350 106 OFFCURVE",
"296 130 OFFCURVE",
"256 173 CURVE SMOOTH",
"217 217 OFFCURVE",
"192 280 OFFCURVE",
"192 362 CURVE SMOOTH",
"192 442 OFFCURVE",
"215 506 OFFCURVE",
"253 550 CURVE SMOOTH",
"292 593 OFFCURVE",
"347 617 OFFCURVE",
"411 617 CURVE SMOOTH",
"449 617 OFFCURVE",
"478 610 OFFCURVE",
"500 602 CURVE SMOOTH",
"522 594 OFFCURVE",
"538 583 OFFCURVE",
"551 575 CURVE SMOOTH",
"563 566 OFFCURVE",
"574 560 OFFCURVE",
"584 560 CURVE SMOOTH",
"598 560 OFFCURVE",
"606 567 OFFCURVE",
"611 575 CURVE SMOOTH",
"656 637 LINE",
"599 693 OFFCURVE",
"517 731 OFFCURVE",
"412 731 CURVE SMOOTH",
"306 731 OFFCURVE",
"217 693 OFFCURVE",
"154 628 CURVE SMOOTH",
"91 562 OFFCURVE",
"55 470 OFFCURVE",
"55 362 CURVE SMOOTH",
"55 260 OFFCURVE",
"84 173 OFFCURVE",
"138 108 CURVE SMOOTH",
"192 44 OFFCURVE",
"270 2 OFFCURVE",
"366 -7 CURVE",
"344 -71 LINE",
"369 -74 OFFCURVE",
"388 -78 OFFCURVE",
"400 -82 CURVE",
"412 -87 OFFCURVE",
"418 -94 OFFCURVE",
"418 -103 CURVE SMOOTH",
"418 -115 OFFCURVE",
"407 -125 OFFCURVE",
"385 -125 CURVE SMOOTH",
"374 -125 OFFCURVE",
"366 -123 OFFCURVE",
"361 -121 CURVE SMOOTH",
"355 -118 OFFCURVE",
"350 -117 OFFCURVE",
"345 -117 CURVE SMOOTH",
"338 -117 OFFCURVE",
"333 -121 OFFCURVE",
"331 -129 CURVE SMOOTH",
"319 -167 LINE",
"343 -175 OFFCURVE",
"365 -178 OFFCURVE",
"393 -178 CURVE SMOOTH"
);
}
);
width = 700;
}
);
leftKerningGroup = C;
note = Ccedilla;
rightKerningGroup = C;
unicode = 00C7;
},
{
glyphname = D;
lastChange = "2026-06-19 17:27:37 +0000";
layers = (
{
layerId = "7DA69401-B8BB-4CEF-A33A-65E5ADA83450";
paths = (
{
closed = 1;
nodes = (
"378 0 LINE SMOOTH",
"474 0 OFFCURVE",
"555 32 OFFCURVE",
"612 92 CURVE SMOOTH",
"669 152 OFFCURVE",
"702 240 OFFCURVE",
"702 350 CURVE SMOOTH",
"702 461 OFFCURVE",
"669 548 OFFCURVE",
"612 608 CURVE SMOOTH",
"555 668 OFFCURVE",
"474 700 OFFCURVE",
"378 700 CURVE SMOOTH",
"128 700 LINE",
"128 0 LINE"
);
},
{
closed = 1;
nodes = (
"140 690 LINE",
"378 690 LINE SMOOTH",
"470 690 OFFCURVE",
"548 660 OFFCURVE",
"603 602 CURVE SMOOTH",
"657 544 OFFCURVE",
"689 459 OFFCURVE",
"689 350 CURVE SMOOTH",
"689 242 OFFCURVE",
"657 157 OFFCURVE",
"603 99 CURVE SMOOTH",
"548 41 OFFCURVE",
"470 10 OFFCURVE",
"378 10 CURVE SMOOTH",
"140 10 LINE"
);
}
);
width = 788;
},
{
layerId = "F36DCCA2-8A71-42CF-9609-F852DF368EC0";
paths = (
{
closed = 1;
nodes = (
"376 0 LINE SMOOTH",
"482 0 OFFCURVE",
"570 36 OFFCURVE",
"632 99 CURVE SMOOTH",
"694 161 OFFCURVE",
"730 251 OFFCURVE",
"730 358 CURVE SMOOTH",
"730 466 OFFCURVE",
"694 555 OFFCURVE",
"632 618 CURVE SMOOTH",
"570 681 OFFCURVE",
"482 717 OFFCURVE",
"376 717 CURVE SMOOTH",
"109 717 LINE",
"109 0 LINE"
);
},
{
closed = 1;
nodes = (
"206 638 LINE",
"376 638 LINE SMOOTH",
"454 638 OFFCURVE",
"517 612 OFFCURVE",
"561 564 CURVE SMOOTH",
"605 516 OFFCURVE",
"630 446 OFFCURVE",
"630 358 CURVE SMOOTH",
"630 270 OFFCURVE",
"605 200 OFFCURVE",
"561 153 CURVE SMOOTH",
"517 105 OFFCURVE",
"454 79 OFFCURVE",
"376 79 CURVE SMOOTH",
"206 79 LINE"
);
}
);
width = 793;
},
{
layerId = "A9E408DD-A955-440F-BEB6-B96F0772F152";
paths = (
{
closed = 1;
nodes = (
"375 0 LINE SMOOTH",
"485 0 OFFCURVE",
"577 37 OFFCURVE",
"641 101 CURVE SMOOTH",
"705 165 OFFCURVE",
"742 256 OFFCURVE",
"742 362 CURVE SMOOTH",
"742 468 OFFCURVE",
"705 558 OFFCURVE",
"641 622 CURVE SMOOTH",
"577 686 OFFCURVE",
"485 723 OFFCURVE",
"375 723 CURVE SMOOTH",
"100 723 LINE",
"100 0 LINE"
);
},
{
closed = 1;
nodes = (
"235 616 LINE",
"375 616 LINE SMOOTH",
"446 616 OFFCURVE",
"503 592 OFFCURVE",
"543 549 CURVE SMOOTH",
"582 505 OFFCURVE",
"604 441 OFFCURVE",
"604 362 CURVE SMOOTH",
"604 282 OFFCURVE",
"582 219 OFFCURVE",
"543 175 CURVE SMOOTH",
"503 131 OFFCURVE",
"446 107 OFFCURVE",
"375 107 CURVE SMOOTH",
"235 107 LINE"
);
}
);
width = 795;
}
);
leftKerningGroup = B;
note = D;
rightKerningGroup = D;
unicode = 0044;
},
{
glyphname = Eth;
lastChange = "2026-06-19 17:27:37 +0000";
layers = (
{
layerId = "7DA69401-B8BB-4CEF-A33A-65E5ADA83450";
paths = (
{
closed = 1;
nodes = (
"421 0 LINE SMOOTH",
"517 0 OFFCURVE",
"598 32 OFFCURVE",
"655 92 CURVE SMOOTH",
"712 152 OFFCURVE",
"745 240 OFFCURVE",
"745 350 CURVE SMOOTH",
"745 461 OFFCURVE",
"712 548 OFFCURVE",
"655 608 CURVE SMOOTH",
"598 668 OFFCURVE",
"517 700 OFFCURVE",
"421 700 CURVE SMOOTH",
"171 700 LINE",
"171 361 LINE",
"55 361 LINE",
"55 351 LINE",
"171 351 LINE",
"171 0 LINE"
);
},
{
closed = 1;
nodes = (
"183 351 LINE",
"355 351 LINE",
"355 361 LINE",
"183 361 LINE",
"183 690 LINE",
"421 690 LINE SMOOTH",
"513 690 OFFCURVE",
"591 660 OFFCURVE",
"645 602 CURVE SMOOTH",
"700 544 OFFCURVE",
"732 459 OFFCURVE",
"732 350 CURVE SMOOTH",
"732 242 OFFCURVE",
"700 157 OFFCURVE",
"645 99 CURVE SMOOTH",
"591 41 OFFCURVE",
"513 10 OFFCURVE",
"421 10 CURVE SMOOTH",
"183 10 LINE"
);
}
);
width = 831;
},
{
layerId = "F36DCCA2-8A71-42CF-9609-F852DF368EC0";
paths = (
{
closed = 1;
nodes = (
"405 0 LINE SMOOTH",
"510 0 OFFCURVE",
"598 36 OFFCURVE",
"660 99 CURVE SMOOTH",
"722 161 OFFCURVE",
"758 251 OFFCURVE",
"758 358 CURVE SMOOTH",
"758 466 OFFCURVE",
"722 555 OFFCURVE",
"660 618 CURVE SMOOTH",
"598 681 OFFCURVE",
"510 717 OFFCURVE",
"405 717 CURVE SMOOTH",
"137 717 LINE",
"137 390 LINE",
"39 390 LINE",
"39 333 LINE",
"137 333 LINE",
"137 0 LINE"
);
},
{
closed = 1;
nodes = (
"234 333 LINE",
"379 333 LINE",
"379 390 LINE",
"234 390 LINE",
"234 638 LINE",
"405 638 LINE SMOOTH",
"481 638 OFFCURVE",
"545 612 OFFCURVE",
"589 564 CURVE SMOOTH",
"633 516 OFFCURVE",
"658 446 OFFCURVE",
"658 358 CURVE SMOOTH",
"658 270 OFFCURVE",
"633 200 OFFCURVE",
"589 153 CURVE SMOOTH",
"545 105 OFFCURVE",
"481 79 OFFCURVE",
"405 79 CURVE SMOOTH",
"234 79 LINE"
);
}
);
width = 821;
},
{
layerId = "A9E408DD-A955-440F-BEB6-B96F0772F152";
paths = (
{
closed = 1;
nodes = (
"399 0 LINE SMOOTH",
"509 0 OFFCURVE",
"600 37 OFFCURVE",
"664 101 CURVE SMOOTH",
"728 165 OFFCURVE",
"765 256 OFFCURVE",
"765 362 CURVE SMOOTH",
"765 468 OFFCURVE",
"728 558 OFFCURVE",
"664 622 CURVE SMOOTH",
"600 686 OFFCURVE",
"509 723 OFFCURVE",
"399 723 CURVE SMOOTH",
"123 723 LINE",
"123 402 LINE",
"32 402 LINE",
"32 326 LINE",
"123 326 LINE",
"123 0 LINE"
);
},
{
closed = 1;
nodes = (
"258 326 LINE",
"391 326 LINE",
"391 402 LINE",
"258 402 LINE",
"258 616 LINE",
"399 616 LINE SMOOTH",
"469 616 OFFCURVE",
"526 592 OFFCURVE",
"566 549 CURVE SMOOTH",
"605 505 OFFCURVE",
"627 441 OFFCURVE",
"627 362 CURVE SMOOTH",
"627 282 OFFCURVE",
"605 219 OFFCURVE",
"566 175 CURVE SMOOTH",
"526 131 OFFCURVE",
"469 107 OFFCURVE",
"399 107 CURVE SMOOTH",
"258 107 LINE"
);
}
);
width = 818;
}
);
leftKerningGroup = B;
note = Eth;
rightKerningGroup = D;
unicode = 00D0;
},
{
glyphname = E;
lastChange = "2026-06-19 17:27:37 +0000";
layers = (
{
layerId = "7DA69401-B8BB-4CEF-A33A-65E5ADA83450";
paths = (
{
closed = 1;
nodes = (
"537 0 LINE",
"538 11 LINE",
"140 11 LINE",
"140 350 LINE",
"477 350 LINE",
"477 361 LINE",
"140 361 LINE",
"140 689 LINE",
"537 689 LINE",
"537 700 LINE",
"128 700 LINE",
"128 0 LINE"
);
}
);
width = 598;
},
{
layerId = "F36DCCA2-8A71-42CF-9609-F852DF368EC0";
paths = (
{
closed = 1;
nodes = (
"550 0 LINE",
"551 79 LINE",
"206 79 LINE",
"206 324 LINE",
"485 324 LINE",
"485 400 LINE",
"206 400 LINE",
"206 638 LINE",
"550 638 LINE",
"550 717 LINE",
"109 717 LINE",
"109 0 LINE"
);
}
);
width = 607;
},
{
layerId = "A9E408DD-A955-440F-BEB6-B96F0772F152";
paths = (
{
closed = 1;
nodes = (
"556 0 LINE",
"556 108 LINE",
"235 108 LINE",
"235 312 LINE",
"488 312 LINE",
"488 416 LINE",
"235 416 LINE",
"235 616 LINE",
"556 616 LINE",
"556 723 LINE",
"100 723 LINE",
"100 0 LINE"
);
}
);
width = 610;
}
);
leftKerningGroup = B;
note = E;
rightKerningGroup = AE;
unicode = 0045;
},
{
glyphname = Eacute;
lastChange = "2026-06-19 17:27:37 +0000";
layers = (
{
layerId = "7DA69401-B8BB-4CEF-A33A-65E5ADA83450";
paths = (
{
closed = 1;
nodes = (
"537 0 LINE",
"538 11 LINE",
"140 11 LINE",
"140 350 LINE",
"477 350 LINE",
"477 361 LINE",
"140 361 LINE",
"140 689 LINE",
"537 689 LINE",
"537 700 LINE",
"128 700 LINE",
"128 0 LINE"
);
},
{
closed = 1;
nodes = (
"304 769 LINE SMOOTH",
"308 769 OFFCURVE",
"311 770 OFFCURVE",
"313 772 CURVE",
"478 916 LINE",
"460 916 LINE SMOOTH",
"448 916 OFFCURVE",
"444 915 OFFCURVE",
"439 909 CURVE SMOOTH",
"298 769 LINE"
);
}
);
width = 598;
},
{
layerId = "F36DCCA2-8A71-42CF-9609-F852DF368EC0";
paths = (
{
closed = 1;
nodes = (
"550 0 LINE",
"551 79 LINE",
"206 79 LINE",
"206 324 LINE",
"485 324 LINE",
"485 400 LINE",
"206 400 LINE",
"206 638 LINE",
"550 638 LINE",
"550 717 LINE",
"109 717 LINE",
"109 0 LINE"
);
},
{
closed = 1;
nodes = (
"330 773 LINE SMOOTH",
"344 773 OFFCURVE",
"352 774 OFFCURVE",
"362 783 CURVE",
"525 926 LINE",
"424 926 LINE SMOOTH",
"402 926 OFFCURVE",
"393 925 OFFCURVE",
"382 910 CURVE SMOOTH",
"266 773 LINE"
);
}
);
width = 607;
},
{
layerId = "A9E408DD-A955-440F-BEB6-B96F0772F152";
paths = (
{
closed = 1;
nodes = (
"556 0 LINE",
"556 108 LINE",
"235 108 LINE",
"235 312 LINE",
"488 312 LINE",
"488 416 LINE",
"235 416 LINE",
"235 616 LINE",
"556 616 LINE",
"556 723 LINE",
"100 723 LINE",
"100 0 LINE"
);
},
{
closed = 1;
nodes = (
"341 775 LINE SMOOTH",
"360 775 OFFCURVE",
"370 776 OFFCURVE",
"383 788 CURVE SMOOTH",
"545 931 LINE",
"408 931 LINE SMOOTH",
"394 931 OFFCURVE",
"385 930 OFFCURVE",
"377 928 CURVE SMOOTH",
"369 925 OFFCURVE",
"363 920 OFFCURVE",
"356 910 CURVE",
"252 775 LINE"
);
}
);
width = 610;
}
);
leftKerningGroup = B;
note = Eacute;
rightKerningGroup = AE;
unicode = 00C9;
},
{
glyphname = Ecircumflex;
lastChange = "2026-06-19 17:27:37 +0000";
layers = (
{
layerId = "7DA69401-B8BB-4CEF-A33A-65E5ADA83450";
paths = (
{
closed = 1;
nodes = (
"537 0 LINE",
"538 11 LINE",
"140 11 LINE",
"140 350 LINE",
"477 350 LINE",
"477 361 LINE",
"140 361 LINE",
"140 689 LINE",
"537 689 LINE",
"537 700 LINE",
"128 700 LINE",
"128 0 LINE"
);
},
{
closed = 1;
nodes = (
"226 769 LINE SMOOTH",
"230 769 OFFCURVE",
"233 770 OFFCURVE",
"236 773 CURVE",
"334 885 LINE",
"335 886 OFFCURVE",
"336 887 OFFCURVE",
"336 888 CURVE",
"337 887 OFFCURVE",
"338 886 OFFCURVE",
"338 885 CURVE",
"436 773 LINE",
"440 770 OFFCURVE",
"443 769 OFFCURVE",
"446 769 CURVE SMOOTH",
"456 769 LINE",
"340 901 LINE",
"332 901 LINE",
"216 769 LINE"
);
}
);
width = 598;
},
{
layerId = "F36DCCA2-8A71-42CF-9609-F852DF368EC0";
paths = (
{
closed = 1;
nodes = (
"550 0 LINE",
"551 79 LINE",
"206 79 LINE",
"206 324 LINE",
"485 324 LINE",
"485 400 LINE",
"206 400 LINE",
"206 638 LINE",
"550 638 LINE",
"550 717 LINE",
"109 717 LINE",
"109 0 LINE"
);
},
{
closed = 1;
nodes = (
"240 773 LINE SMOOTH",
"248 773 OFFCURVE",
"260 774 OFFCURVE",
"271 788 CURVE SMOOTH",
"330 858 LINE",
"336 867 LINE",
"342 858 LINE",
"400 788 LINE SMOOTH",
"412 774 OFFCURVE",
"423 773 OFFCURVE",
"431 773 CURVE SMOOTH",
"496 773 LINE",
"377 909 LINE",
"297 909 LINE",
"178 773 LINE"
);
}
);
width = 607;
},
{
layerId = "A9E408DD-A955-440F-BEB6-B96F0772F152";
paths = (
{
closed = 1;
nodes = (
"556 0 LINE",
"556 108 LINE",
"235 108 LINE",
"235 312 LINE",
"488 312 LINE",
"488 416 LINE",
"235 416 LINE",
"235 616 LINE",
"556 616 LINE",
"556 723 LINE",
"100 723 LINE",
"100 0 LINE"
);
},
{
closed = 1;
nodes = (
"246 775 LINE SMOOTH",
"256 775 OFFCURVE",
"271 776 OFFCURVE",
"287 794 CURVE",
"328 847 LINE SMOOTH",
"331 851 OFFCURVE",
"334 855 OFFCURVE",
"335 858 CURVE",
"337 855 OFFCURVE",
"339 851 OFFCURVE",
"343 847 CURVE SMOOTH",
"384 794 LINE",
"399 776 OFFCURVE",
"414 775 OFFCURVE",
"424 775 CURVE SMOOTH",
"514 775 LINE",
"393 912 LINE",
"281 912 LINE",
"161 775 LINE"
);
}
);
width = 610;
}
);
leftKerningGroup = B;
note = Ecircumflex;
rightKerningGroup = AE;
unicode = 00CA;
},
{
glyphname = Edieresis;
lastChange = "2026-06-19 17:27:37 +0000";
layers = (
{
layerId = "7DA69401-B8BB-4CEF-A33A-65E5ADA83450";
paths = (
{
closed = 1;
nodes = (
"537 0 LINE",
"538 11 LINE",
"140 11 LINE",
"140 350 LINE",
"477 350 LINE",
"477 361 LINE",
"140 361 LINE",
"140 689 LINE",
"537 689 LINE",
"537 700 LINE",
"128 700 LINE",
"128 0 LINE"
);
},
{
closed = 1;
nodes = (
"258 805 OFFCURVE",
"272 818 OFFCURVE",
"272 832 CURVE SMOOTH",
"272 848 OFFCURVE",
"258 860 OFFCURVE",
"244 860 CURVE SMOOTH",
"229 860 OFFCURVE",
"216 848 OFFCURVE",
"216 832 CURVE SMOOTH",
"216 818 OFFCURVE",
"229 805 OFFCURVE",
"244 805 CURVE SMOOTH"
);
},
{
closed = 1;
nodes = (
"442 805 OFFCURVE",
"456 818 OFFCURVE",
"456 832 CURVE SMOOTH",
"456 848 OFFCURVE",
"442 860 OFFCURVE",
"428 860 CURVE SMOOTH",
"413 860 OFFCURVE",
"400 848 OFFCURVE",
"400 832 CURVE SMOOTH",
"400 818 OFFCURVE",
"413 805 OFFCURVE",
"428 805 CURVE SMOOTH"
);
}
);
width = 598;
},
{
layerId = "F36DCCA2-8A71-42CF-9609-F852DF368EC0";
paths = (
{
closed = 1;
nodes = (
"550 0 LINE",
"551 79 LINE",
"206 79 LINE",
"206 324 LINE",
"485 324 LINE",
"485 400 LINE",
"206 400 LINE",
"206 638 LINE",
"550 638 LINE",
"550 717 LINE",
"109 717 LINE",
"109 0 LINE"
);
},
{
closed = 1;
nodes = (
"245 779 OFFCURVE",
"259 785 OFFCURVE",
"270 795 CURVE SMOOTH",
"280 805 OFFCURVE",
"286 819 OFFCURVE",
"286 833 CURVE SMOOTH",
"286 849 OFFCURVE",
"280 863 OFFCURVE",
"270 873 CURVE SMOOTH",
"259 883 OFFCURVE",
"245 889 OFFCURVE",
"230 889 CURVE SMOOTH",
"216 889 OFFCURVE",
"203 883 OFFCURVE",
"193 873 CURVE SMOOTH",
"183 863 OFFCURVE",
"176 849 OFFCURVE",
"176 833 CURVE SMOOTH",
"176 819 OFFCURVE",
"183 805 OFFCURVE",
"193 795 CURVE SMOOTH",
"203 785 OFFCURVE",
"216 779 OFFCURVE",
"230 779 CURVE SMOOTH"
);
},
{
closed = 1;
nodes = (
"455 779 OFFCURVE",
"469 785 OFFCURVE",
"479 795 CURVE SMOOTH",
"489 805 OFFCURVE",
"495 819 OFFCURVE",
"495 833 CURVE SMOOTH",
"495 849 OFFCURVE",
"489 863 OFFCURVE",
"479 873 CURVE SMOOTH",
"469 883 OFFCURVE",
"455 889 OFFCURVE",
"440 889 CURVE SMOOTH",
"425 889 OFFCURVE",
"411 883 OFFCURVE",
"401 873 CURVE SMOOTH",
"391 863 OFFCURVE",
"385 849 OFFCURVE",
"385 833 CURVE SMOOTH",
"385 819 OFFCURVE",
"391 805 OFFCURVE",
"401 795 CURVE SMOOTH",
"411 785 OFFCURVE",
"425 779 OFFCURVE",
"440 779 CURVE SMOOTH"
);
}
);
width = 607;
},
{
layerId = "A9E408DD-A955-440F-BEB6-B96F0772F152";
paths = (
{
closed = 1;
nodes = (
"556 0 LINE",
"556 108 LINE",
"235 108 LINE",
"235 312 LINE",
"488 312 LINE",
"488 416 LINE",
"235 416 LINE",
"235 616 LINE",
"556 616 LINE",
"556 723 LINE",
"100 723 LINE",
"100 0 LINE"
);
},
{
closed = 1;
nodes = (
"242 768 OFFCURVE",
"260 775 OFFCURVE",
"272 787 CURVE SMOOTH",
"284 799 OFFCURVE",
"292 816 OFFCURVE",
"292 834 CURVE SMOOTH",
"292 852 OFFCURVE",
"284 869 OFFCURVE",
"272 881 CURVE",
"260 893 OFFCURVE",
"242 901 OFFCURVE",
"224 901 CURVE SMOOTH",
"206 901 OFFCURVE",
"190 893 OFFCURVE",
"178 881 CURVE SMOOTH",
"166 869 OFFCURVE",
"158 852 OFFCURVE",
"158 834 CURVE SMOOTH",
"158 816 OFFCURVE",
"166 799 OFFCURVE",
"178 787 CURVE SMOOTH",
"190 775 OFFCURVE",
"206 768 OFFCURVE",
"224 768 CURVE SMOOTH"
);
},
{
closed = 1;
nodes = (
"463 768 OFFCURVE",
"480 775 OFFCURVE",
"493 787 CURVE SMOOTH",
"505 799 OFFCURVE",
"512 816 OFFCURVE",
"512 834 CURVE SMOOTH",
"512 852 OFFCURVE",
"505 869 OFFCURVE",
"493 881 CURVE",
"480 893 OFFCURVE",
"463 901 OFFCURVE",
"445 901 CURVE SMOOTH",
"427 901 OFFCURVE",
"410 893 OFFCURVE",
"398 881 CURVE SMOOTH",
"386 869 OFFCURVE",
"378 852 OFFCURVE",
"378 834 CURVE SMOOTH",
"378 816 OFFCURVE",
"386 799 OFFCURVE",
"398 787 CURVE SMOOTH",
"410 775 OFFCURVE",
"427 768 OFFCURVE",
"445 768 CURVE SMOOTH"
);
}
);
width = 610;
}
);
leftKerningGroup = B;
note = Edieresis;
rightKerningGroup = AE;
unicode = 00CB;
},
{
glyphname = Egrave;
lastChange = "2026-06-19 17:27:37 +0000";
layers = (
{
layerId = "7DA69401-B8BB-4CEF-A33A-65E5ADA83450";
paths = (
{
closed = 1;
nodes = (
"537 0 LINE",
"538 11 LINE",
"140 11 LINE",
"140 350 LINE",
"477 350 LINE",
"477 361 LINE",
"140 361 LINE",
"140 689 LINE",
"537 689 LINE",
"537 700 LINE",
"128 700 LINE",
"128 0 LINE"
);
},
{
closed = 1;
nodes = (
"378 769 LINE",
"254 909 LINE SMOOTH",
"248 915 OFFCURVE",
"244 916 OFFCURVE",
"233 916 CURVE SMOOTH",
"215 916 LINE",
"363 772 LINE SMOOTH",
"366 770 OFFCURVE",
"369 769 OFFCURVE",
"372 769 CURVE SMOOTH"
);
}
);
width = 598;
},
{
layerId = "F36DCCA2-8A71-42CF-9609-F852DF368EC0";
paths = (
{
closed = 1;
nodes = (
"550 0 LINE",
"551 79 LINE",
"206 79 LINE",
"206 324 LINE",
"485 324 LINE",
"485 400 LINE",
"206 400 LINE",
"206 638 LINE",
"550 638 LINE",
"550 717 LINE",
"109 717 LINE",
"109 0 LINE"
);
},
{
closed = 1;
nodes = (
"403 773 LINE",
"289 910 LINE SMOOTH",
"278 925 OFFCURVE",
"269 926 OFFCURVE",
"247 926 CURVE SMOOTH",
"152 926 LINE",
"308 783 LINE SMOOTH",
"318 773 OFFCURVE",
"325 773 OFFCURVE",
"339 773 CURVE SMOOTH"
);
}
);
width = 607;
},
{
layerId = "A9E408DD-A955-440F-BEB6-B96F0772F152";
paths = (
{
closed = 1;
nodes = (
"556 0 LINE",
"556 108 LINE",
"235 108 LINE",
"235 312 LINE",
"488 312 LINE",
"488 416 LINE",
"235 416 LINE",
"235 616 LINE",
"556 616 LINE",
"556 723 LINE",
"100 723 LINE",
"100 0 LINE"
);
},
{
closed = 1;
nodes = (
"414 775 LINE",
"305 910 LINE SMOOTH",
"297 920 OFFCURVE",
"291 925 OFFCURVE",
"284 928 CURVE SMOOTH",
"276 931 OFFCURVE",
"267 931 OFFCURVE",
"253 931 CURVE SMOOTH",
"124 931 LINE",
"283 787 LINE SMOOTH",
"297 775 OFFCURVE",
"305 775 OFFCURVE",
"324 775 CURVE SMOOTH"
);
}
);
width = 610;
}
);
leftKerningGroup = B;
note = Egrave;
rightKerningGroup = AE;
unicode = 00C8;
},
{
glyphname = F;
lastChange = "2026-06-19 17:27:37 +0000";
layers = (
{
layerId = "7DA69401-B8BB-4CEF-A33A-65E5ADA83450";
paths = (
{
closed = 1;
nodes = (
"140 0 LINE",
"140 340 LINE",
"487 340 LINE",
"487 351 LINE",
"140 351 LINE",
"140 689 LINE",
"537 689 LINE",
"537 700 LINE",
"128 700 LINE",
"128 0 LINE"
);
}
);
width = 591;
},
{
layerId = "F36DCCA2-8A71-42CF-9609-F852DF368EC0";
paths = (
{
closed = 1;
nodes = (
"206 0 LINE",
"206 308 LINE",
"500 308 LINE",
"500 387 LINE",
"206 387 LINE",
"206 638 LINE",
"550 638 LINE",
"550 717 LINE",
"109 717 LINE",
"109 0 LINE"
);
}
);
width = 594;
},
{
layerId = "A9E408DD-A955-440F-BEB6-B96F0772F152";
paths = (
{
closed = 1;
nodes = (
"235 0 LINE",
"235 295 LINE",
"506 295 LINE",
"506 402 LINE",
"235 402 LINE",
"235 616 LINE",
"556 616 LINE",
"556 723 LINE",
"100 723 LINE",
"100 0 LINE"
);
}
);
width = 595;
}
);
leftKerningGroup = B;
note = F;
rightKerningGroup = F;
unicode = 0046;
},
{
glyphname = G;
lastChange = "2026-06-19 17:27:37 +0000";
layers = (
{
layerId = "7DA69401-B8BB-4CEF-A33A-65E5ADA83450";
paths = (
{
closed = 1;
nodes = (
"486 -8 OFFCURVE",
"531 -1 OFFCURVE",
"572 13 CURVE SMOOTH",
"612 27 OFFCURVE",
"648 46 OFFCURVE",
"683 69 CURVE",
"683 301 LINE",
"509 301 LINE",
"509 296 LINE SMOOTH",
"509 294 OFFCURVE",
"511 291 OFFCURVE",
"515 291 CURVE SMOOTH",
"672 291 LINE",
"672 74 LINE",
"636 51 OFFCURVE",
"601 33 OFFCURVE",
"564 21 CURVE SMOOTH",
"526 9 OFFCURVE",
"485 2 OFFCURVE",
"436 2 CURVE SMOOTH",
"330 2 OFFCURVE",
"245 36 OFFCURVE",
"187 96 CURVE SMOOTH",
"128 156 OFFCURVE",
"97 243 OFFCURVE",
"97 350 CURVE SMOOTH",
"97 459 OFFCURVE",
"129 546 OFFCURVE",
"187 606 CURVE SMOOTH",
"245 666 OFFCURVE",
"328 698 OFFCURVE",
"430 698 CURVE SMOOTH",
"457 698 OFFCURVE",
"481 696 OFFCURVE",
"502 693 CURVE SMOOTH",
"544 685 OFFCURVE",
"577 674 OFFCURVE",
"600 660 CURVE SMOOTH",
"624 647 OFFCURVE",
"639 636 OFFCURVE",
"647 628 CURVE",
"651 624 OFFCURVE",
"654 622 OFFCURVE",
"656 622 CURVE SMOOTH",
"658 622 OFFCURVE",
"660 623 OFFCURVE",
"661 625 CURVE",
"663 628 LINE",
"631 656 OFFCURVE",
"599 676 OFFCURVE",
"562 689 CURVE SMOOTH",
"524 702 OFFCURVE",
"482 708 OFFCURVE",
"430 708 CURVE SMOOTH",
"324 708 OFFCURVE",
"238 674 OFFCURVE",
"178 612 CURVE SMOOTH",
"118 550 OFFCURVE",
"85 460 OFFCURVE",
"85 350 CURVE SMOOTH",
"85 240 OFFCURVE",
"118 150 OFFCURVE",
"179 88 CURVE SMOOTH",
"239 26 OFFCURVE",
"326 -8 OFFCURVE",
"436 -8 CURVE SMOOTH"
);
}
);
width = 769;
},
{
layerId = "F36DCCA2-8A71-42CF-9609-F852DF368EC0";
paths = (
{
closed = 1;
nodes = (
"538 -8 OFFCURVE",
"618 18 OFFCURVE",
"690 70 CURVE",
"690 345 LINE",
"470 345 LINE",
"470 290 LINE SMOOTH",
"470 279 OFFCURVE",
"478 271 OFFCURVE",
"491 271 CURVE SMOOTH",
"602 271 LINE",
"602 113 LINE",
"553 87 OFFCURVE",
"504 71 OFFCURVE",
"438 71 CURVE SMOOTH",
"353 71 OFFCURVE",
"284 97 OFFCURVE",
"237 147 CURVE SMOOTH",
"189 197 OFFCURVE",
"162 268 OFFCURVE",
"162 358 CURVE SMOOTH",
"162 445 OFFCURVE",
"188 516 OFFCURVE",
"234 565 CURVE SMOOTH",
"280 614 OFFCURVE",
"346 641 OFFCURVE",
"427 641 CURVE SMOOTH",
"454 641 OFFCURVE",
"478 639 OFFCURVE",
"499 634 CURVE SMOOTH",
"539 626 OFFCURVE",
"568 613 OFFCURVE",
"589 599 CURVE SMOOTH",
"599 593 OFFCURVE",
"608 587 OFFCURVE",
"616 582 CURVE SMOOTH",
"633 572 OFFCURVE",
"647 577 OFFCURVE",
"656 590 CURVE SMOOTH",
"683 634 LINE",
"653 662 OFFCURVE",
"618 685 OFFCURVE",
"576 701 CURVE SMOOTH",
"535 716 OFFCURVE",
"486 725 OFFCURVE",
"430 725 CURVE SMOOTH",
"318 725 OFFCURVE",
"226 688 OFFCURVE",
"162 624 CURVE SMOOTH",
"99 559 OFFCURVE",
"63 468 OFFCURVE",
"63 358 CURVE SMOOTH",
"63 250 OFFCURVE",
"100 158 OFFCURVE",
"166 94 CURVE SMOOTH",
"231 30 OFFCURVE",
"325 -8 OFFCURVE",
"440 -8 CURVE SMOOTH"
);
}
);
width = 764;
},
{
layerId = "A9E408DD-A955-440F-BEB6-B96F0772F152";
paths = (
{
closed = 1;
nodes = (
"536 -8 OFFCURVE",
"618 16 OFFCURVE",
"692 70 CURVE",
"692 363 LINE",
"452 363 LINE",
"452 287 LINE SMOOTH",
"452 273 OFFCURVE",
"462 262 OFFCURVE",
"479 262 CURVE SMOOTH",
"570 262 LINE",
"570 131 LINE",
"530 111 OFFCURVE",
"491 99 OFFCURVE",
"437 99 CURVE SMOOTH",
"363 99 OFFCURVE",
"301 124 OFFCURVE",
"258 169 CURVE SMOOTH",
"215 214 OFFCURVE",
"190 279 OFFCURVE",
"190 362 CURVE SMOOTH",
"190 439 OFFCURVE",
"213 503 OFFCURVE",
"254 547 CURVE SMOOTH",
"294 592 OFFCURVE",
"353 617 OFFCURVE",
"424 617 CURVE SMOOTH",
"446 617 OFFCURVE",
"466 615 OFFCURVE",
"483 612 CURVE SMOOTH",
"516 606 OFFCURVE",
"543 597 OFFCURVE",
"565 584 CURVE SMOOTH",
"576 578 OFFCURVE",
"587 572 OFFCURVE",
"598 565 CURVE SMOOTH",
"620 551 OFFCURVE",
"641 556 OFFCURVE",
"653 576 CURVE SMOOTH",
"691 637 LINE",
"661 665 OFFCURVE",
"626 689 OFFCURVE",
"582 705 CURVE SMOOTH",
"538 721 OFFCURVE",
"487 731 OFFCURVE",
"429 731 CURVE SMOOTH",
"313 731 OFFCURVE",
"220 694 OFFCURVE",
"155 628 CURVE SMOOTH",
"90 563 OFFCURVE",
"53 470 OFFCURVE",
"53 362 CURVE SMOOTH",
"53 254 OFFCURVE",
"91 162 OFFCURVE",
"159 96 CURVE SMOOTH",
"226 31 OFFCURVE",
"323 -8 OFFCURVE",
"441 -8 CURVE SMOOTH"
);
}
);
width = 761;
}
);
leftKerningGroup = C;
note = G;
rightKerningGroup = G;
unicode = 0047;
},
{
glyphname = H;
lastChange = "2026-06-19 17:27:37 +0000";
layers = (
{
layerId = "7DA69401-B8BB-4CEF-A33A-65E5ADA83450";
paths = (
{
closed = 1;
nodes = (
"140 0 LINE",
"140 350 LINE",
"632 350 LINE",
"632 0 LINE",
"644 0 LINE",
"644 700 LINE",
"632 700 LINE",
"632 361 LINE",
"140 361 LINE",
"140 700 LINE",
"128 700 LINE",
"128 0 LINE"
);
}
);
width = 772;
},
{
layerId = "F36DCCA2-8A71-42CF-9609-F852DF368EC0";
paths = (
{
closed = 1;
nodes = (
"206 0 LINE",
"206 326 LINE",
"592 326 LINE",
"592 0 LINE",
"689 0 LINE",
"689 717 LINE",
"592 717 LINE",
"592 397 LINE",
"206 397 LINE",
"206 717 LINE",
"109 717 LINE",
"109 0 LINE"
);
}
);
width = 798;
},
{
layerId = "A9E408DD-A955-440F-BEB6-B96F0772F152";
paths = (
{
closed = 1;
nodes = (
"235 0 LINE",
"235 316 LINE",
"574 316 LINE",
"574 0 LINE",
"709 0 LINE",
"709 723 LINE",
"574 723 LINE",
"574 412 LINE",
"235 412 LINE",
"235 723 LINE",
"100 723 LINE",
"100 0 LINE"
);
}
);
width = 809;
}
);
leftKerningGroup = B;
note = H;
rightKerningGroup = H;
unicode = 0048;
},
{
glyphname = I;
lastChange = "2026-06-19 17:27:37 +0000";
layers = (
{
layerId = "7DA69401-B8BB-4CEF-A33A-65E5ADA83450";
paths = (
{
closed = 1;
nodes = (
"140 0 LINE",
"140 700 LINE",
"128 700 LINE",
"128 0 LINE"
);
}
);
width = 268;
},
{
layerId = "F36DCCA2-8A71-42CF-9609-F852DF368EC0";
paths = (
{
closed = 1;
nodes = (
"206 0 LINE",
"206 717 LINE",
"109 717 LINE",
"109 0 LINE"
);
}
);
width = 315;
},
{
layerId = "A9E408DD-A955-440F-BEB6-B96F0772F152";
paths = (
{
closed = 1;
nodes = (
"235 0 LINE",
"235 723 LINE",
"100 723 LINE",
"100 0 LINE"
);
}
);
width = 335;
}
);
leftKerningGroup = B;
note = I;
rightKerningGroup = H;
unicode = 0049;
},
{
glyphname = Iacute;
lastChange = "2026-06-19 17:27:37 +0000";
layers = (
{
layerId = "7DA69401-B8BB-4CEF-A33A-65E5ADA83450";
paths = (
{
closed = 1;
nodes = (
"104 769 LINE SMOOTH",
"108 769 OFFCURVE",
"111 770 OFFCURVE",
"113 772 CURVE",
"278 916 LINE",
"260 916 LINE SMOOTH",
"248 916 OFFCURVE",
"244 915 OFFCURVE",
"239 909 CURVE SMOOTH",
"98 769 LINE"
);
},
{
closed = 1;
nodes = (
"141 0 LINE",
"141 700 LINE",
"129 700 LINE",
"129 0 LINE"
);
}
);
width = 270;
},
{
layerId = "F36DCCA2-8A71-42CF-9609-F852DF368EC0";
paths = (
{
closed = 1;
nodes = (
"207 0 LINE",
"207 717 LINE",
"110 717 LINE",
"110 0 LINE"
);
},
{
closed = 1;
nodes = (
"154 773 LINE SMOOTH",
"168 773 OFFCURVE",
"176 774 OFFCURVE",
"186 783 CURVE",
"349 926 LINE",
"248 926 LINE SMOOTH",
"226 926 OFFCURVE",
"217 925 OFFCURVE",
"206 910 CURVE SMOOTH",
"90 773 LINE"
);
}
);
width = 317;
},
{
layerId = "A9E408DD-A955-440F-BEB6-B96F0772F152";
paths = (
{
closed = 1;
nodes = (
"235 0 LINE",
"235 723 LINE",
"100 723 LINE",
"100 0 LINE"
);
},
{
closed = 1;
nodes = (
"175 775 LINE SMOOTH",
"194 775 OFFCURVE",
"204 776 OFFCURVE",
"217 788 CURVE SMOOTH",
"379 931 LINE",
"242 931 LINE SMOOTH",
"228 931 OFFCURVE",
"219 930 OFFCURVE",
"211 928 CURVE SMOOTH",
"203 925 OFFCURVE",
"197 920 OFFCURVE",
"190 910 CURVE",
"86 775 LINE"
);
}
);
width = 336;
}
);
leftKerningGroup = B;
note = Iacute;
rightKerningGroup = H;
unicode = 00CD;
},
{
glyphname = Icircumflex;
lastChange = "2026-06-19 17:27:37 +0000";
layers = (
{
layerId = "7DA69401-B8BB-4CEF-A33A-65E5ADA83450";
paths = (
{
closed = 1;
nodes = (
"25 769 LINE SMOOTH",
"29 769 OFFCURVE",
"32 770 OFFCURVE",
"35 773 CURVE",
"133 885 LINE",
"134 886 OFFCURVE",
"135 887 OFFCURVE",
"135 888 CURVE",
"136 887 OFFCURVE",
"137 886 OFFCURVE",
"137 885 CURVE",
"235 773 LINE",
"239 770 OFFCURVE",
"242 769 OFFCURVE",
"245 769 CURVE SMOOTH",
"255 769 LINE",
"139 901 LINE",
"131 901 LINE",
"15 769 LINE"
);
},
{
closed = 1;
nodes = (
"140 0 LINE",
"140 700 LINE",
"128 700 LINE",
"128 0 LINE"
);
}
);
width = 268;
},
{
layerId = "F36DCCA2-8A71-42CF-9609-F852DF368EC0";
paths = (
{
closed = 1;
nodes = (
"207 0 LINE",
"207 717 LINE",
"110 717 LINE",
"110 0 LINE"
);
},
{
closed = 1;
nodes = (
"64 773 LINE SMOOTH",
"72 773 OFFCURVE",
"84 774 OFFCURVE",
"95 788 CURVE SMOOTH",
"154 858 LINE",
"160 867 LINE",
"166 858 LINE",
"224 788 LINE SMOOTH",
"236 774 OFFCURVE",
"247 773 OFFCURVE",
"255 773 CURVE SMOOTH",
"320 773 LINE",
"201 909 LINE",
"121 909 LINE",
"1 773 LINE"
);
}
);
width = 317;
},
{
layerId = "A9E408DD-A955-440F-BEB6-B96F0772F152";
paths = (
{
closed = 1;
nodes = (
"235 0 LINE",
"235 723 LINE",
"100 723 LINE",
"100 0 LINE"
);
},
{
closed = 1;
nodes = (
"80 775 LINE SMOOTH",
"90 775 OFFCURVE",
"105 776 OFFCURVE",
"121 794 CURVE",
"162 847 LINE SMOOTH",
"165 851 OFFCURVE",
"168 855 OFFCURVE",
"169 858 CURVE",
"171 855 OFFCURVE",
"173 851 OFFCURVE",
"177 847 CURVE SMOOTH",
"218 794 LINE",
"233 776 OFFCURVE",
"248 775 OFFCURVE",
"258 775 CURVE SMOOTH",
"348 775 LINE",
"227 912 LINE",
"115 912 LINE",
"-6 775 LINE"
);
}
);
width = 339;
}
);
leftKerningGroup = B;
note = Icircumflex;
rightKerningGroup = H;
unicode = 00CE;
},
{
glyphname = Idieresis;
lastChange = "2026-06-19 17:27:37 +0000";
layers = (
{
layerId = "7DA69401-B8BB-4CEF-A33A-65E5ADA83450";
paths = (
{
closed = 1;
nodes = (
"140 0 LINE",
"140 700 LINE",
"128 700 LINE",
"128 0 LINE"
);
},
{
closed = 1;
nodes = (
"57 805 OFFCURVE",
"71 818 OFFCURVE",
"71 832 CURVE SMOOTH",
"71 848 OFFCURVE",
"57 860 OFFCURVE",
"43 860 CURVE SMOOTH",
"28 860 OFFCURVE",
"15 848 OFFCURVE",
"15 832 CURVE SMOOTH",
"15 818 OFFCURVE",
"28 805 OFFCURVE",
"43 805 CURVE SMOOTH"
);
},
{
closed = 1;
nodes = (
"241 805 OFFCURVE",
"255 818 OFFCURVE",
"255 832 CURVE SMOOTH",
"255 848 OFFCURVE",
"241 860 OFFCURVE",
"227 860 CURVE SMOOTH",
"212 860 OFFCURVE",
"199 848 OFFCURVE",
"199 832 CURVE SMOOTH",
"199 818 OFFCURVE",
"212 805 OFFCURVE",
"227 805 CURVE SMOOTH"
);
}
);
width = 268;
},
{
layerId = "F36DCCA2-8A71-42CF-9609-F852DF368EC0";
paths = (
{
closed = 1;
nodes = (
"206 0 LINE",
"206 717 LINE",
"109 717 LINE",
"109 0 LINE"
);
},
{
closed = 1;
nodes = (
"68 779 OFFCURVE",
"82 785 OFFCURVE",
"93 795 CURVE SMOOTH",
"103 805 OFFCURVE",
"109 819 OFFCURVE",
"109 833 CURVE SMOOTH",
"109 849 OFFCURVE",
"103 863 OFFCURVE",
"93 873 CURVE SMOOTH",
"82 883 OFFCURVE",
"68 889 OFFCURVE",
"53 889 CURVE SMOOTH",
"39 889 OFFCURVE",
"26 883 OFFCURVE",
"16 873 CURVE SMOOTH",
"5 863 OFFCURVE",
"-1 849 OFFCURVE",
"-1 833 CURVE SMOOTH",
"-1 819 OFFCURVE",
"5 805 OFFCURVE",
"16 795 CURVE SMOOTH",
"26 785 OFFCURVE",
"39 779 OFFCURVE",
"53 779 CURVE SMOOTH"
);
},
{
closed = 1;
nodes = (
"278 779 OFFCURVE",
"292 785 OFFCURVE",
"302 795 CURVE SMOOTH",
"312 805 OFFCURVE",
"318 819 OFFCURVE",
"318 833 CURVE SMOOTH",
"318 849 OFFCURVE",
"312 863 OFFCURVE",
"302 873 CURVE SMOOTH",
"292 883 OFFCURVE",
"278 889 OFFCURVE",
"263 889 CURVE SMOOTH",
"248 889 OFFCURVE",
"234 883 OFFCURVE",
"224 873 CURVE SMOOTH",
"214 863 OFFCURVE",
"208 849 OFFCURVE",
"208 833 CURVE SMOOTH",
"208 819 OFFCURVE",
"214 805 OFFCURVE",
"224 795 CURVE SMOOTH",
"234 785 OFFCURVE",
"248 779 OFFCURVE",
"263 779 CURVE SMOOTH"
);
}
);
width = 315;
},
{
layerId = "A9E408DD-A955-440F-BEB6-B96F0772F152";
paths = (
{
closed = 1;
nodes = (
"235 0 LINE",
"235 723 LINE",
"100 723 LINE",
"100 0 LINE"
);
},
{
closed = 1;
nodes = (
"76 768 OFFCURVE",
"94 775 OFFCURVE",
"106 787 CURVE SMOOTH",
"118 799 OFFCURVE",
"126 816 OFFCURVE",
"126 834 CURVE SMOOTH",
"126 852 OFFCURVE",
"118 869 OFFCURVE",
"106 881 CURVE",
"94 893 OFFCURVE",
"76 901 OFFCURVE",
"58 901 CURVE SMOOTH",
"40 901 OFFCURVE",
"24 893 OFFCURVE",
"12 881 CURVE SMOOTH",
"0 869 OFFCURVE",
"-8 852 OFFCURVE",
"-8 834 CURVE SMOOTH",
"-8 816 OFFCURVE",
"0 799 OFFCURVE",
"12 787 CURVE SMOOTH",
"24 775 OFFCURVE",
"40 768 OFFCURVE",
"58 768 CURVE SMOOTH"
);
},
{
closed = 1;
nodes = (
"297 768 OFFCURVE",
"314 775 OFFCURVE",
"327 787 CURVE SMOOTH",
"339 799 OFFCURVE",
"346 816 OFFCURVE",
"346 834 CURVE SMOOTH",
"346 852 OFFCURVE",
"339 869 OFFCURVE",
"327 881 CURVE",
"314 893 OFFCURVE",
"297 901 OFFCURVE",
"279 901 CURVE SMOOTH",
"261 901 OFFCURVE",
"244 893 OFFCURVE",
"232 881 CURVE SMOOTH",
"220 869 OFFCURVE",
"212 852 OFFCURVE",
"212 834 CURVE SMOOTH",
"212 816 OFFCURVE",
"220 799 OFFCURVE",
"232 787 CURVE SMOOTH",
"244 775 OFFCURVE",
"261 768 OFFCURVE",
"279 768 CURVE SMOOTH"
);
}
);
width = 335;
}
);
leftKerningGroup = B;
note = Idieresis;
rightKerningGroup = H;
unicode = 00CF;
},
{
glyphname = Igrave;
lastChange = "2026-06-19 17:27:37 +0000";
layers = (
{
layerId = "7DA69401-B8BB-4CEF-A33A-65E5ADA83450";
paths = (
{
closed = 1;
nodes = (
"178 769 LINE",
"54 909 LINE SMOOTH",
"48 915 OFFCURVE",
"44 916 OFFCURVE",
"33 916 CURVE SMOOTH",
"15 916 LINE",
"163 772 LINE SMOOTH",
"166 770 OFFCURVE",
"169 769 OFFCURVE",
"172 769 CURVE SMOOTH"
);
},
{
closed = 1;
nodes = (
"141 0 LINE",
"141 700 LINE",
"129 700 LINE",
"129 0 LINE"
);
}
);
width = 269;
},
{
layerId = "F36DCCA2-8A71-42CF-9609-F852DF368EC0";
paths = (
{
closed = 1;
nodes = (
"207 0 LINE",
"207 717 LINE",
"110 717 LINE",
"110 0 LINE"
);
},
{
closed = 1;
nodes = (
"227 773 LINE",
"113 910 LINE SMOOTH",
"102 925 OFFCURVE",
"93 926 OFFCURVE",
"71 926 CURVE SMOOTH",
"-24 926 LINE",
"132 783 LINE SMOOTH",
"142 773 OFFCURVE",
"149 773 OFFCURVE",
"163 773 CURVE SMOOTH"
);
}
);
width = 317;
},
{
layerId = "A9E408DD-A955-440F-BEB6-B96F0772F152";
paths = (
{
closed = 1;
nodes = (
"236 0 LINE",
"236 723 LINE",
"101 723 LINE",
"101 0 LINE"
);
},
{
closed = 1;
nodes = (
"249 775 LINE",
"140 910 LINE SMOOTH",
"132 920 OFFCURVE",
"126 925 OFFCURVE",
"119 928 CURVE SMOOTH",
"111 931 OFFCURVE",
"102 931 OFFCURVE",
"88 931 CURVE SMOOTH",
"-42 931 LINE",
"118 787 LINE SMOOTH",
"132 775 OFFCURVE",
"140 775 OFFCURVE",
"159 775 CURVE SMOOTH"
);
}
);
width = 340;
}
);
leftKerningGroup = B;
note = Igrave;
rightKerningGroup = H;
unicode = 00CC;
},
{
glyphname = J;
lastChange = "2026-06-19 17:27:37 +0000";
layers = (
{
layerId = "7DA69401-B8BB-4CEF-A33A-65E5ADA83450";
paths = (
{
closed = 1;
nodes = (
"197 -8 OFFCURVE",
"247 12 OFFCURVE",
"282 51 CURVE SMOOTH",
"317 90 OFFCURVE",
"337 148 OFFCURVE",
"337 226 CURVE SMOOTH",
"337 700 LINE",
"325 700 LINE",
"325 226 LINE SMOOTH",
"325 152 OFFCURVE",
"307 96 OFFCURVE",
"275 58 CURVE SMOOTH",
"242 21 OFFCURVE",
"195 2 OFFCURVE",
"138 2 CURVE SMOOTH",
"127 2 OFFCURVE",
"117 3 OFFCURVE",
"108 4 CURVE SMOOTH",
"92 7 OFFCURVE",
"79 11 OFFCURVE",
"71 13 CURVE",
"66 15 OFFCURVE",
"63 15 OFFCURVE",
"59 15 CURVE SMOOTH",
"57 15 OFFCURVE",
"55 15 OFFCURVE",
"55 14 CURVE",
"54 12 OFFCURVE",
"54 11 OFFCURVE",
"53 10 CURVE",
"53 10 OFFCURVE",
"53 9 OFFCURVE",
"53 9 CURVE SMOOTH",
"52 8 OFFCURVE",
"52 8 OFFCURVE",
"52 7 CURVE",
"82 -3 OFFCURVE",
"111 -8 OFFCURVE",
"138 -8 CURVE SMOOTH"
);
}
);
width = 454;
},
{
layerId = "F36DCCA2-8A71-42CF-9609-F852DF368EC0";
paths = (
{
closed = 1;
nodes = (
"211 -8 OFFCURVE",
"267 16 OFFCURVE",
"306 60 CURVE SMOOTH",
"344 104 OFFCURVE",
"364 168 OFFCURVE",
"364 248 CURVE SMOOTH",
"364 717 LINE",
"267 717 LINE",
"267 246 LINE SMOOTH",
"267 186 OFFCURVE",
"254 142 OFFCURVE",
"231 114 CURVE SMOOTH",
"207 86 OFFCURVE",
"172 73 OFFCURVE",
"128 73 CURVE SMOOTH",
"112 73 OFFCURVE",
"98 75 OFFCURVE",
"89 78 CURVE SMOOTH",
"79 81 OFFCURVE",
"71 82 OFFCURVE",
"65 82 CURVE SMOOTH",
"50 82 OFFCURVE",
"44 75 OFFCURVE",
"42 63 CURVE",
"42 54 OFFCURVE",
"41 45 OFFCURVE",
"40 35 CURVE SMOOTH",
"39 26 OFFCURVE",
"38 16 OFFCURVE",
"37 6 CURVE",
"72 -4 OFFCURVE",
"105 -8 OFFCURVE",
"138 -8 CURVE SMOOTH"
);
}
);
width = 461;
},
{
layerId = "A9E408DD-A955-440F-BEB6-B96F0772F152";
paths = (
{
closed = 1;
nodes = (
"215 -8 OFFCURVE",
"275 18 OFFCURVE",
"315 64 CURVE SMOOTH",
"354 110 OFFCURVE",
"374 176 OFFCURVE",
"374 257 CURVE SMOOTH",
"374 723 LINE",
"240 723 LINE",
"240 254 LINE SMOOTH",
"240 200 OFFCURVE",
"230 162 OFFCURVE",
"210 138 CURVE SMOOTH",
"190 114 OFFCURVE",
"161 103 OFFCURVE",
"123 103 CURVE SMOOTH",
"109 103 OFFCURVE",
"97 104 OFFCURVE",
"88 107 CURVE SMOOTH",
"79 109 OFFCURVE",
"71 110 OFFCURVE",
"66 110 CURVE SMOOTH",
"48 110 OFFCURVE",
"38 100 OFFCURVE",
"36 86 CURVE",
"35 72 OFFCURVE",
"34 59 OFFCURVE",
"33 46 CURVE SMOOTH",
"31 32 OFFCURVE",
"30 19 OFFCURVE",
"29 6 CURVE",
"67 -4 OFFCURVE",
"101 -8 OFFCURVE",
"137 -8 CURVE SMOOTH"
);
}
);
width = 461;
}
);
leftKerningGroup = J;
note = J;
rightKerningGroup = J;
unicode = 004A;
},
{
glyphname = K;
lastChange = "2026-06-19 17:27:37 +0000";
layers = (
{
layerId = "7DA69401-B8BB-4CEF-A33A-65E5ADA83450";
paths = (
{
closed = 1;
nodes = (
"140 0 LINE",
"140 352 LINE",
"187 352 LINE SMOOTH",
"203 352 OFFCURVE",
"213 351 OFFCURVE",
"220 348 CURVE SMOOTH",
"227 345 OFFCURVE",
"232 339 OFFCURVE",
"239 332 CURVE",
"583 7 LINE SMOOTH",
"589 2 OFFCURVE",
"591 0 OFFCURVE",
"601 0 CURVE SMOOTH",
"606 0 LINE",
"245 341 LINE SMOOTH",
"236 351 OFFCURVE",
"228 355 OFFCURVE",
"216 357 CURVE",
"229 360 OFFCURVE",
"234 364 OFFCURVE",
"246 374 CURVE",
"586 700 LINE",
"580 700 LINE SMOOTH",
"573 700 OFFCURVE",
"570 698 OFFCURVE",
"562 692 CURVE",
"236 379 LINE SMOOTH",
"229 372 OFFCURVE",
"223 367 OFFCURVE",
"216 365 CURVE",
"209 363 OFFCURVE",
"200 362 OFFCURVE",
"187 362 CURVE SMOOTH",
"140 362 LINE",
"140 700 LINE",
"128 700 LINE",
"128 0 LINE"
);
}
);
width = 662;
},
{
layerId = "F36DCCA2-8A71-42CF-9609-F852DF368EC0";
paths = (
{
closed = 1;
nodes = (
"205 0 LINE",
"205 328 LINE",
"249 328 LINE SMOOTH",
"281 328 OFFCURVE",
"292 322 OFFCURVE",
"306 305 CURVE SMOOTH",
"553 21 LINE",
"557 14 OFFCURVE",
"562 9 OFFCURVE",
"569 6 CURVE",
"575 2 OFFCURVE",
"584 0 OFFCURVE",
"597 0 CURVE SMOOTH",
"681 0 LINE",
"396 340 LINE",
"382 358 OFFCURVE",
"368 370 OFFCURVE",
"350 376 CURVE",
"364 382 OFFCURVE",
"375 392 OFFCURVE",
"389 408 CURVE SMOOTH",
"662 717 LINE",
"580 717 LINE SMOOTH",
"558 717 OFFCURVE",
"545 711 OFFCURVE",
"532 694 CURVE",
"293 424 LINE",
"281 408 OFFCURVE",
"267 403 OFFCURVE",
"242 403 CURVE SMOOTH",
"205 403 LINE",
"205 717 LINE",
"109 717 LINE",
"109 0 LINE"
);
}
);
width = 717;
},
{
layerId = "A9E408DD-A955-440F-BEB6-B96F0772F152";
paths = (
{
closed = 1;
nodes = (
"234 0 LINE",
"234 318 LINE",
"277 318 LINE SMOOTH",
"308 318 OFFCURVE",
"322 312 OFFCURVE",
"335 294 CURVE",
"539 27 LINE",
"550 9 OFFCURVE",
"563 0 OFFCURVE",
"595 0 CURVE SMOOTH",
"713 0 LINE",
"462 339 LINE",
"446 362 OFFCURVE",
"429 376 OFFCURVE",
"407 384 CURVE",
"423 391 OFFCURVE",
"437 404 OFFCURVE",
"452 423 CURVE SMOOTH",
"695 723 LINE",
"579 723 LINE SMOOTH",
"551 723 OFFCURVE",
"535 716 OFFCURVE",
"518 695 CURVE SMOOTH",
"319 442 LINE SMOOTH",
"307 427 OFFCURVE",
"291 420 OFFCURVE",
"266 420 CURVE SMOOTH",
"234 420 LINE",
"234 723 LINE",
"100 723 LINE",
"100 0 LINE"
);
}
);
width = 741;
}
);
leftKerningGroup = B;
note = K;
rightKerningGroup = K;
unicode = 004B;
},
{
glyphname = L;
lastChange = "2026-06-19 17:27:37 +0000";
layers = (
{
layerId = "7DA69401-B8BB-4CEF-A33A-65E5ADA83450";
paths = (
{
closed = 1;
nodes = (
"497 0 LINE",
"497 11 LINE",
"140 11 LINE",
"140 700 LINE",
"128 700 LINE",
"128 0 LINE"
);
}
);
width = 549;
},
{
layerId = "F36DCCA2-8A71-42CF-9609-F852DF368EC0";
paths = (
{
closed = 1;
nodes = (
"515 0 LINE",
"515 82 LINE",
"205 82 LINE",
"205 717 LINE",
"109 717 LINE",
"109 0 LINE"
);
}
);
width = 554;
},
{
layerId = "A9E408DD-A955-440F-BEB6-B96F0772F152";
paths = (
{
closed = 1;
nodes = (
"523 0 LINE",
"523 111 LINE",
"234 111 LINE",
"234 723 LINE",
"100 723 LINE",
"100 0 LINE"
);
}
);
width = 556;
}
);
leftKerningGroup = B;
note = L;
rightKerningGroup = L;
unicode = 004C;
},
{
glyphname = Lslash;
lastChange = "2026-06-19 17:27:37 +0000";
layers = (
{
layerId = "7DA69401-B8BB-4CEF-A33A-65E5ADA83450";
paths = (
{
closed = 1;
nodes = (
"526 0 LINE",
"526 11 LINE",
"169 11 LINE",
"169 313 LINE",
"385 428 LINE",
"391 431 OFFCURVE",
"391 434 OFFCURVE",
"391 438 CURVE SMOOTH",
"391 443 LINE",
"169 325 LINE",
"169 700 LINE",
"157 700 LINE",
"157 320 LINE",
"62 269 LINE",
"56 266 OFFCURVE",
"56 265 OFFCURVE",
"56 259 CURVE SMOOTH",
"56 254 LINE",
"157 308 LINE",
"157 0 LINE"
);
}
);
width = 578;
},
{
layerId = "F36DCCA2-8A71-42CF-9609-F852DF368EC0";
paths = (
{
closed = 1;
nodes = (
"542 0 LINE",
"542 82 LINE",
"232 82 LINE",
"232 320 LINE",
"410 413 LINE",
"420 417 OFFCURVE",
"424 424 OFFCURVE",
"424 435 CURVE SMOOTH",
"424 501 LINE",
"232 403 LINE",
"232 717 LINE",
"135 717 LINE",
"135 359 LINE",
"54 316 LINE",
"46 312 OFFCURVE",
"42 306 OFFCURVE",
"42 296 CURVE SMOOTH",
"42 229 LINE",
"135 277 LINE",
"135 0 LINE"
);
}
);
width = 581;
},
{
layerId = "A9E408DD-A955-440F-BEB6-B96F0772F152";
paths = (
{
closed = 1;
nodes = (
"548 0 LINE",
"548 111 LINE",
"259 111 LINE",
"259 323 LINE",
"421 407 LINE",
"433 412 OFFCURVE",
"438 421 OFFCURVE",
"438 434 CURVE SMOOTH",
"438 525 LINE",
"259 435 LINE",
"259 723 LINE",
"125 723 LINE",
"125 375 LINE",
"50 336 LINE",
"40 331 OFFCURVE",
"35 323 OFFCURVE",
"35 312 CURVE SMOOTH",
"35 219 LINE",
"125 264 LINE",
"125 0 LINE"
);
}
);
width = 581;
}
);
leftKerningGroup = B;
note = Lslash;
rightKerningGroup = L;
unicode = 0141;
},
{
glyphname = M;
lastChange = "2026-06-19 17:27:37 +0000";
layers = (
{
layerId = "7DA69401-B8BB-4CEF-A33A-65E5ADA83450";
paths = (
{
closed = 1;
nodes = (
"138 0 LINE",
"138 669 LINE SMOOTH",
"138 671 OFFCURVE",
"138 673 OFFCURVE",
"138 674 CURVE SMOOTH",
"138 676 OFFCURVE",
"138 678 OFFCURVE",
"138 679 CURVE",
"454 145 LINE",
"457 142 OFFCURVE",
"459 140 OFFCURVE",
"461 140 CURVE SMOOTH",
"464 140 LINE SMOOTH",
"467 140 OFFCURVE",
"469 142 OFFCURVE",
"471 145 CURVE",
"778 679 LINE",
"777 677 OFFCURVE",
"777 676 OFFCURVE",
"777 674 CURVE SMOOTH",
"777 673 OFFCURVE",
"777 671 OFFCURVE",
"777 669 CURVE SMOOTH",
"777 0 LINE",
"787 0 LINE",
"787 700 LINE",
"783 700 LINE SMOOTH",
"780 700 OFFCURVE",
"778 699 OFFCURVE",
"776 696 CURVE SMOOTH",
"468 161 LINE",
"466 157 OFFCURVE",
"464 154 OFFCURVE",
"463 150 CURVE",
"461 154 OFFCURVE",
"460 157 OFFCURVE",
"457 161 CURVE SMOOTH",
"139 696 LINE SMOOTH",
"138 699 OFFCURVE",
"135 700 OFFCURVE",
"132 700 CURVE SMOOTH",
"128 700 LINE",
"128 0 LINE"
);
}
);
width = 915;
},
{
layerId = "F36DCCA2-8A71-42CF-9609-F852DF368EC0";
paths = (
{
closed = 1;
nodes = (
"194 0 LINE",
"194 527 LINE SMOOTH",
"194 542 OFFCURVE",
"193 558 OFFCURVE",
"191 576 CURVE",
"442 126 LINE",
"449 111 OFFCURVE",
"461 103 OFFCURVE",
"477 103 CURVE SMOOTH",
"491 103 LINE SMOOTH",
"506 103 OFFCURVE",
"518 111 OFFCURVE",
"526 126 CURVE",
"772 574 LINE",
"770 557 OFFCURVE",
"769 541 OFFCURVE",
"769 527 CURVE SMOOTH",
"769 0 LINE",
"854 0 LINE",
"854 717 LINE",
"783 717 LINE SMOOTH",
"765 717 OFFCURVE",
"757 716 OFFCURVE",
"749 700 CURVE SMOOTH",
"506 260 LINE SMOOTH",
"498 244 OFFCURVE",
"490 226 OFFCURVE",
"484 208 CURVE",
"477 226 OFFCURVE",
"469 243 OFFCURVE",
"461 259 CURVE",
"214 700 LINE SMOOTH",
"205 716 OFFCURVE",
"198 717 OFFCURVE",
"180 717 CURVE SMOOTH",
"109 717 LINE",
"109 0 LINE"
);
}
);
width = 963;
},
{
layerId = "A9E408DD-A955-440F-BEB6-B96F0772F152";
paths = (
{
closed = 1;
nodes = (
"218 0 LINE",
"218 467 LINE SMOOTH",
"218 485 OFFCURVE",
"217 507 OFFCURVE",
"215 529 CURVE",
"436 117 LINE SMOOTH",
"446 98 OFFCURVE",
"462 88 OFFCURVE",
"483 88 CURVE SMOOTH",
"502 88 LINE SMOOTH",
"524 88 OFFCURVE",
"539 98 OFFCURVE",
"550 117 CURVE SMOOTH",
"768 528 LINE",
"766 506 OFFCURVE",
"765 486 OFFCURVE",
"765 467 CURVE SMOOTH",
"765 0 LINE",
"884 0 LINE",
"884 723 LINE",
"782 723 LINE SMOOTH",
"770 723 OFFCURVE",
"762 723 OFFCURVE",
"755 720 CURVE SMOOTH",
"748 718 OFFCURVE",
"742 712 OFFCURVE",
"737 702 CURVE SMOOTH",
"523 301 LINE SMOOTH",
"512 280 OFFCURVE",
"502 257 OFFCURVE",
"493 232 CURVE",
"483 256 OFFCURVE",
"474 279 OFFCURVE",
"463 300 CURVE SMOOTH",
"246 702 LINE SMOOTH",
"241 712 OFFCURVE",
"236 718 OFFCURVE",
"229 720 CURVE SMOOTH",
"222 723 OFFCURVE",
"213 723 OFFCURVE",
"201 723 CURVE SMOOTH",
"100 723 LINE",
"100 0 LINE"
);
}
);
width = 984;
}
);
leftKerningGroup = B;
note = M;
rightKerningGroup = H;
unicode = 004D;
},
{
glyphname = N;
lastChange = "2026-06-19 17:27:37 +0000";
layers = (
{
layerId = "7DA69401-B8BB-4CEF-A33A-65E5ADA83450";
paths = (
{
closed = 1;
nodes = (
"138 0 LINE",
"138 669 LINE SMOOTH",
"138 671 OFFCURVE",
"138 673 OFFCURVE",
"138 675 CURVE SMOOTH",
"138 677 OFFCURVE",
"138 679 OFFCURVE",
"138 682 CURVE",
"636 4 LINE",
"637 1 OFFCURVE",
"639 0 OFFCURVE",
"641 0 CURVE SMOOTH",
"644 0 LINE",
"644 700 LINE",
"634 700 LINE",
"634 32 LINE SMOOTH",
"634 31 OFFCURVE",
"634 29 OFFCURVE",
"634 27 CURVE SMOOTH",
"634 25 OFFCURVE",
"634 23 OFFCURVE",
"635 22 CURVE",
"139 696 LINE",
"138 699 OFFCURVE",
"135 700 OFFCURVE",
"132 700 CURVE SMOOTH",
"128 700 LINE",
"128 0 LINE"
);
}
);
width = 772;
},
{
layerId = "F36DCCA2-8A71-42CF-9609-F852DF368EC0";
paths = (
{
closed = 1;
nodes = (
"194 0 LINE",
"194 511 LINE SMOOTH",
"194 525 OFFCURVE",
"193 541 OFFCURVE",
"192 558 CURVE",
"606 18 LINE SMOOTH",
"616 5 OFFCURVE",
"625 0 OFFCURVE",
"641 0 CURVE SMOOTH",
"689 0 LINE",
"689 717 LINE",
"604 717 LINE",
"604 209 LINE SMOOTH",
"604 195 OFFCURVE",
"605 178 OFFCURVE",
"607 161 CURVE",
"192 700 LINE",
"187 707 OFFCURVE",
"182 711 OFFCURVE",
"178 714 CURVE",
"173 716 OFFCURVE",
"167 717 OFFCURVE",
"159 717 CURVE SMOOTH",
"109 717 LINE",
"109 0 LINE"
);
}
);
width = 798;
},
{
layerId = "A9E408DD-A955-440F-BEB6-B96F0772F152";
paths = (
{
closed = 1;
nodes = (
"218 0 LINE",
"218 444 LINE SMOOTH",
"218 463 OFFCURVE",
"217 483 OFFCURVE",
"215 505 CURVE",
"593 23 LINE SMOOTH",
"606 7 OFFCURVE",
"619 0 OFFCURVE",
"640 0 CURVE SMOOTH",
"709 0 LINE",
"709 723 LINE",
"591 723 LINE",
"591 284 LINE SMOOTH",
"591 264 OFFCURVE",
"592 241 OFFCURVE",
"594 218 CURVE",
"215 702 LINE SMOOTH",
"208 711 OFFCURVE",
"202 717 OFFCURVE",
"196 720 CURVE SMOOTH",
"190 723 OFFCURVE",
"182 723 OFFCURVE",
"170 723 CURVE SMOOTH",
"100 723 LINE",
"100 0 LINE"
);
}
);
width = 809;
}
);
leftKerningGroup = B;
note = N;
rightKerningGroup = H;
unicode = 004E;
},
{
glyphname = Ntilde;
lastChange = "2026-06-19 17:27:37 +0000";
layers = (
{
layerId = "7DA69401-B8BB-4CEF-A33A-65E5ADA83450";
paths = (
{
closed = 1;
nodes = (
"138 0 LINE",
"138 669 LINE SMOOTH",
"138 671 OFFCURVE",
"138 673 OFFCURVE",
"138 675 CURVE SMOOTH",
"138 677 OFFCURVE",
"138 679 OFFCURVE",
"138 682 CURVE",
"636 4 LINE",
"637 1 OFFCURVE",
"639 0 OFFCURVE",
"641 0 CURVE SMOOTH",
"644 0 LINE",
"644 700 LINE",
"634 700 LINE",
"634 32 LINE SMOOTH",
"634 31 OFFCURVE",
"634 29 OFFCURVE",
"634 27 CURVE SMOOTH",
"634 25 OFFCURVE",
"634 23 OFFCURVE",
"635 22 CURVE",
"139 696 LINE",
"138 699 OFFCURVE",
"135 700 OFFCURVE",
"132 700 CURVE SMOOTH",
"128 700 LINE",
"128 0 LINE"
);
},
{
closed = 1;
nodes = (
"485 777 OFFCURVE",
"501 785 OFFCURVE",
"511 797 CURVE SMOOTH",
"522 809 OFFCURVE",
"528 826 OFFCURVE",
"528 844 CURVE",
"520 844 LINE",
"518 812 OFFCURVE",
"498 787 OFFCURVE",
"465 787 CURVE SMOOTH",
"445 787 OFFCURVE",
"426 802 OFFCURVE",
"406 816 CURVE SMOOTH",
"386 831 OFFCURVE",
"365 845 OFFCURVE",
"343 845 CURVE SMOOTH",
"323 845 OFFCURVE",
"307 837 OFFCURVE",
"296 825 CURVE SMOOTH",
"285 813 OFFCURVE",
"279 796 OFFCURVE",
"279 778 CURVE",
"288 778 LINE",
"288 794 OFFCURVE",
"294 808 OFFCURVE",
"304 819 CURVE SMOOTH",
"313 829 OFFCURVE",
"327 835 OFFCURVE",
"343 835 CURVE SMOOTH",
"362 835 OFFCURVE",
"382 821 OFFCURVE",
"402 806 CURVE SMOOTH",
"422 792 OFFCURVE",
"443 777 OFFCURVE",
"465 777 CURVE SMOOTH"
);
}
);
width = 772;
},
{
layerId = "F36DCCA2-8A71-42CF-9609-F852DF368EC0";
paths = (
{
closed = 1;
nodes = (
"194 0 LINE",
"194 511 LINE SMOOTH",
"194 525 OFFCURVE",
"193 541 OFFCURVE",
"192 558 CURVE",
"606 18 LINE SMOOTH",
"616 5 OFFCURVE",
"625 0 OFFCURVE",
"641 0 CURVE SMOOTH",
"689 0 LINE",
"689 717 LINE",
"604 717 LINE",
"604 209 LINE SMOOTH",
"604 195 OFFCURVE",
"605 178 OFFCURVE",
"607 161 CURVE",
"192 700 LINE",
"187 707 OFFCURVE",
"182 711 OFFCURVE",
"178 714 CURVE",
"173 716 OFFCURVE",
"167 717 OFFCURVE",
"159 717 CURVE SMOOTH",
"109 717 LINE",
"109 0 LINE"
);
},
{
closed = 1;
nodes = (
"509 772 OFFCURVE",
"531 785 OFFCURVE",
"547 805 CURVE SMOOTH",
"563 825 OFFCURVE",
"571 853 OFFCURVE",
"571 881 CURVE",
"516 881 LINE",
"516 869 OFFCURVE",
"512 857 OFFCURVE",
"504 847 CURVE SMOOTH",
"496 837 OFFCURVE",
"485 831 OFFCURVE",
"469 831 CURVE SMOOTH",
"451 831 OFFCURVE",
"433 845 OFFCURVE",
"413 858 CURVE SMOOTH",
"393 871 OFFCURVE",
"370 884 OFFCURVE",
"340 884 CURVE SMOOTH",
"310 884 OFFCURVE",
"288 871 OFFCURVE",
"272 851 CURVE SMOOTH",
"257 830 OFFCURVE",
"248 802 OFFCURVE",
"248 774 CURVE",
"304 774 LINE",
"304 786 OFFCURVE",
"308 798 OFFCURVE",
"316 808 CURVE SMOOTH",
"323 818 OFFCURVE",
"334 824 OFFCURVE",
"350 824 CURVE SMOOTH",
"368 824 OFFCURVE",
"386 811 OFFCURVE",
"406 798 CURVE SMOOTH",
"426 785 OFFCURVE",
"449 772 OFFCURVE",
"479 772 CURVE SMOOTH"
);
}
);
width = 798;
},
{
layerId = "A9E408DD-A955-440F-BEB6-B96F0772F152";
paths = (
{
closed = 1;
nodes = (
"218 0 LINE",
"218 444 LINE SMOOTH",
"218 463 OFFCURVE",
"217 483 OFFCURVE",
"215 505 CURVE",
"593 23 LINE SMOOTH",
"606 7 OFFCURVE",
"619 0 OFFCURVE",
"640 0 CURVE SMOOTH",
"709 0 LINE",
"709 723 LINE",
"591 723 LINE",
"591 284 LINE SMOOTH",
"591 264 OFFCURVE",
"592 241 OFFCURVE",
"594 218 CURVE",
"215 702 LINE SMOOTH",
"208 711 OFFCURVE",
"202 717 OFFCURVE",
"196 720 CURVE SMOOTH",
"190 723 OFFCURVE",
"182 723 OFFCURVE",
"170 723 CURVE SMOOTH",
"100 723 LINE",
"100 0 LINE"
);
},
{
closed = 1;
nodes = (
"520 770 OFFCURVE",
"545 785 OFFCURVE",
"563 809 CURVE SMOOTH",
"581 832 OFFCURVE",
"590 863 OFFCURVE",
"590 897 CURVE",
"514 897 LINE",
"514 886 OFFCURVE",
"511 875 OFFCURVE",
"504 866 CURVE SMOOTH",
"497 857 OFFCURVE",
"486 850 OFFCURVE",
"471 850 CURVE SMOOTH",
"453 850 OFFCURVE",
"437 863 OFFCURVE",
"417 875 CURVE SMOOTH",
"397 887 OFFCURVE",
"372 900 OFFCURVE",
"338 900 CURVE SMOOTH",
"305 900 OFFCURVE",
"279 885 OFFCURVE",
"262 861 CURVE SMOOTH",
"244 837 OFFCURVE",
"234 805 OFFCURVE",
"234 772 CURVE",
"311 772 LINE",
"311 783 OFFCURVE",
"314 795 OFFCURVE",
"321 804 CURVE SMOOTH",
"327 814 OFFCURVE",
"338 820 OFFCURVE",
"353 820 CURVE SMOOTH",
"362 820 OFFCURVE",
"371 818 OFFCURVE",
"380 812 CURVE SMOOTH",
"388 807 OFFCURVE",
"397 801 OFFCURVE",
"408 795 CURVE SMOOTH",
"428 783 OFFCURVE",
"452 770 OFFCURVE",
"486 770 CURVE SMOOTH"
);
}
);
width = 809;
}
);
leftKerningGroup = B;
note = Ntilde;
rightKerningGroup = H;
unicode = 00D1;
},
{
glyphname = O;
lastChange = "2026-06-19 17:27:37 +0000";
layers = (
{
layerId = "7DA69401-B8BB-4CEF-A33A-65E5ADA83450";
paths = (
{
closed = 1;
nodes = (
"505 -7 OFFCURVE",
"586 27 OFFCURVE",
"643 89 CURVE SMOOTH",
"700 151 OFFCURVE",
"733 240 OFFCURVE",
"733 350 CURVE SMOOTH",
"733 461 OFFCURVE",
"700 550 OFFCURVE",
"643 612 CURVE SMOOTH",
"586 674 OFFCURVE",
"505 708 OFFCURVE",
"409 708 CURVE SMOOTH",
"313 708 OFFCURVE",
"233 674 OFFCURVE",
"176 612 CURVE SMOOTH",
"119 550 OFFCURVE",
"86 460 OFFCURVE",
"86 350 CURVE SMOOTH",
"86 240 OFFCURVE",
"119 151 OFFCURVE",
"176 89 CURVE SMOOTH",
"233 27 OFFCURVE",
"313 -7 OFFCURVE",
"409 -7 CURVE SMOOTH"
);
},
{
closed = 1;
nodes = (
"318 3 OFFCURVE",
"241 36 OFFCURVE",
"186 96 CURVE SMOOTH",
"131 155 OFFCURVE",
"98 242 OFFCURVE",
"98 350 CURVE SMOOTH",
"98 459 OFFCURVE",
"131 546 OFFCURVE",
"186 606 CURVE SMOOTH",
"241 666 OFFCURVE",
"318 698 OFFCURVE",
"409 698 CURVE SMOOTH",
"501 698 OFFCURVE",
"579 666 OFFCURVE",
"633 606 CURVE SMOOTH",
"688 546 OFFCURVE",
"720 459 OFFCURVE",
"720 350 CURVE SMOOTH",
"720 242 OFFCURVE",
"688 155 OFFCURVE",
"633 96 CURVE SMOOTH",
"579 36 OFFCURVE",
"501 3 OFFCURVE",
"409 3 CURVE SMOOTH"
);
}
);
width = 819;
},
{
layerId = "F36DCCA2-8A71-42CF-9609-F852DF368EC0";
paths = (
{
closed = 1;
nodes = (
"522 -8 OFFCURVE",
"610 30 OFFCURVE",
"672 95 CURVE SMOOTH",
"734 159 OFFCURVE",
"770 251 OFFCURVE",
"770 358 CURVE SMOOTH",
"770 466 OFFCURVE",
"734 557 OFFCURVE",
"672 622 CURVE SMOOTH",
"610 687 OFFCURVE",
"522 725 OFFCURVE",
"416 725 CURVE SMOOTH",
"311 725 OFFCURVE",
"223 687 OFFCURVE",
"161 622 CURVE SMOOTH",
"99 557 OFFCURVE",
"63 466 OFFCURVE",
"63 358 CURVE SMOOTH",
"63 251 OFFCURVE",
"99 159 OFFCURVE",
"161 95 CURVE SMOOTH",
"223 30 OFFCURVE",
"311 -8 OFFCURVE",
"416 -8 CURVE SMOOTH"
);
},
{
closed = 1;
nodes = (
"340 77 OFFCURVE",
"276 103 OFFCURVE",
"232 152 CURVE SMOOTH",
"187 200 OFFCURVE",
"162 270 OFFCURVE",
"162 358 CURVE SMOOTH",
"162 446 OFFCURVE",
"187 517 OFFCURVE",
"232 566 CURVE SMOOTH",
"276 614 OFFCURVE",
"340 641 OFFCURVE",
"416 641 CURVE SMOOTH",
"494 641 OFFCURVE",
"557 614 OFFCURVE",
"601 566 CURVE SMOOTH",
"645 517 OFFCURVE",
"670 446 OFFCURVE",
"670 358 CURVE SMOOTH",
"670 270 OFFCURVE",
"645 200 OFFCURVE",
"601 152 CURVE SMOOTH",
"557 103 OFFCURVE",
"494 77 OFFCURVE",
"416 77 CURVE SMOOTH"
);
}
);
width = 833;
},
{
layerId = "A9E408DD-A955-440F-BEB6-B96F0772F152";
paths = (
{
closed = 1;
nodes = (
"529 -8 OFFCURVE",
"621 31 OFFCURVE",
"685 97 CURVE SMOOTH",
"749 163 OFFCURVE",
"785 256 OFFCURVE",
"785 362 CURVE SMOOTH",
"785 432 OFFCURVE",
"769 497 OFFCURVE",
"739 552 CURVE SMOOTH",
"709 606 OFFCURVE",
"666 652 OFFCURVE",
"612 683 CURVE SMOOTH",
"558 714 OFFCURVE",
"493 731 OFFCURVE",
"419 731 CURVE SMOOTH",
"310 731 OFFCURVE",
"218 692 OFFCURVE",
"154 626 CURVE SMOOTH",
"90 560 OFFCURVE",
"53 468 OFFCURVE",
"53 362 CURVE SMOOTH",
"53 256 OFFCURVE",
"90 163 OFFCURVE",
"154 97 CURVE SMOOTH",
"218 31 OFFCURVE",
"310 -8 OFFCURVE",
"419 -8 CURVE SMOOTH"
);
},
{
closed = 1;
nodes = (
"349 107 OFFCURVE",
"292 131 OFFCURVE",
"252 175 CURVE SMOOTH",
"212 219 OFFCURVE",
"190 282 OFFCURVE",
"190 362 CURVE SMOOTH",
"190 441 OFFCURVE",
"212 505 OFFCURVE",
"252 549 CURVE SMOOTH",
"292 593 OFFCURVE",
"349 617 OFFCURVE",
"419 617 CURVE SMOOTH",
"490 617 OFFCURVE",
"547 593 OFFCURVE",
"586 549 CURVE SMOOTH",
"626 505 OFFCURVE",
"648 441 OFFCURVE",
"648 362 CURVE SMOOTH",
"648 282 OFFCURVE",
"626 219 OFFCURVE",
"586 175 CURVE SMOOTH",
"547 131 OFFCURVE",
"490 107 OFFCURVE",
"419 107 CURVE SMOOTH"
);
}
);
width = 839;
}
);
leftKerningGroup = C;
note = O;
rightKerningGroup = O;
unicode = 004F;
},
{
glyphname = Oacute;
lastChange = "2026-06-19 17:27:37 +0000";
layers = (
{
layerId = "7DA69401-B8BB-4CEF-A33A-65E5ADA83450";
paths = (
{
closed = 1;
nodes = (
"505 -7 OFFCURVE",
"586 27 OFFCURVE",
"643 89 CURVE SMOOTH",
"700 151 OFFCURVE",
"733 240 OFFCURVE",
"733 350 CURVE SMOOTH",
"733 461 OFFCURVE",
"700 550 OFFCURVE",
"643 612 CURVE SMOOTH",
"586 674 OFFCURVE",
"505 708 OFFCURVE",
"409 708 CURVE SMOOTH",
"313 708 OFFCURVE",
"233 674 OFFCURVE",
"176 612 CURVE SMOOTH",
"119 550 OFFCURVE",
"86 460 OFFCURVE",
"86 350 CURVE SMOOTH",
"86 240 OFFCURVE",
"119 151 OFFCURVE",
"176 89 CURVE SMOOTH",
"233 27 OFFCURVE",
"313 -7 OFFCURVE",
"409 -7 CURVE SMOOTH"
);
},
{
closed = 1;
nodes = (
"318 3 OFFCURVE",
"241 36 OFFCURVE",
"186 96 CURVE SMOOTH",
"131 155 OFFCURVE",
"98 242 OFFCURVE",
"98 350 CURVE SMOOTH",
"98 459 OFFCURVE",
"131 546 OFFCURVE",
"186 606 CURVE SMOOTH",
"241 666 OFFCURVE",
"318 698 OFFCURVE",
"409 698 CURVE SMOOTH",
"501 698 OFFCURVE",
"579 666 OFFCURVE",
"633 606 CURVE SMOOTH",
"688 546 OFFCURVE",
"720 459 OFFCURVE",
"720 350 CURVE SMOOTH",
"720 242 OFFCURVE",
"688 155 OFFCURVE",
"633 96 CURVE SMOOTH",
"579 36 OFFCURVE",
"501 3 OFFCURVE",
"409 3 CURVE SMOOTH"
);
},
{
closed = 1;
nodes = (
"378 769 LINE SMOOTH",
"381 769 OFFCURVE",
"384 770 OFFCURVE",
"387 772 CURVE",
"551 916 LINE",
"533 916 LINE SMOOTH",
"522 916 OFFCURVE",
"518 915 OFFCURVE",
"512 909 CURVE SMOOTH",
"372 769 LINE"
);
}
);
width = 819;
},
{
layerId = "F36DCCA2-8A71-42CF-9609-F852DF368EC0";
paths = (
{
closed = 1;
nodes = (
"522 -8 OFFCURVE",
"610 30 OFFCURVE",
"672 95 CURVE SMOOTH",
"734 159 OFFCURVE",
"770 251 OFFCURVE",
"770 358 CURVE SMOOTH",
"770 466 OFFCURVE",
"734 557 OFFCURVE",
"672 622 CURVE SMOOTH",
"610 687 OFFCURVE",
"522 725 OFFCURVE",
"416 725 CURVE SMOOTH",
"311 725 OFFCURVE",
"223 687 OFFCURVE",
"161 622 CURVE SMOOTH",
"99 557 OFFCURVE",
"63 466 OFFCURVE",
"63 358 CURVE SMOOTH",
"63 251 OFFCURVE",
"99 159 OFFCURVE",
"161 95 CURVE SMOOTH",
"223 30 OFFCURVE",
"311 -8 OFFCURVE",
"416 -8 CURVE SMOOTH"
);
},
{
closed = 1;
nodes = (
"340 77 OFFCURVE",
"276 103 OFFCURVE",
"232 152 CURVE SMOOTH",
"187 200 OFFCURVE",
"162 270 OFFCURVE",
"162 358 CURVE SMOOTH",
"162 446 OFFCURVE",
"187 517 OFFCURVE",
"232 566 CURVE SMOOTH",
"276 614 OFFCURVE",
"340 641 OFFCURVE",
"416 641 CURVE SMOOTH",
"494 641 OFFCURVE",
"557 614 OFFCURVE",
"601 566 CURVE SMOOTH",
"645 517 OFFCURVE",
"670 446 OFFCURVE",
"670 358 CURVE SMOOTH",
"670 270 OFFCURVE",
"645 200 OFFCURVE",
"601 152 CURVE SMOOTH",
"557 103 OFFCURVE",
"494 77 OFFCURVE",
"416 77 CURVE SMOOTH"
);
},
{
closed = 1;
nodes = (
"412 773 LINE SMOOTH",
"425 773 OFFCURVE",
"433 774 OFFCURVE",
"443 783 CURVE",
"606 926 LINE",
"506 926 LINE SMOOTH",
"484 926 OFFCURVE",
"475 925 OFFCURVE",
"463 910 CURVE SMOOTH",
"348 773 LINE"
);
}
);
width = 833;
},
{
layerId = "A9E408DD-A955-440F-BEB6-B96F0772F152";
paths = (
{
closed = 1;
nodes = (
"529 -8 OFFCURVE",
"621 31 OFFCURVE",
"685 97 CURVE SMOOTH",
"749 163 OFFCURVE",
"785 256 OFFCURVE",
"785 362 CURVE SMOOTH",
"785 432 OFFCURVE",
"769 497 OFFCURVE",
"739 552 CURVE SMOOTH",
"709 606 OFFCURVE",
"666 652 OFFCURVE",
"612 683 CURVE SMOOTH",
"558 714 OFFCURVE",
"493 731 OFFCURVE",
"419 731 CURVE SMOOTH",
"310 731 OFFCURVE",
"218 692 OFFCURVE",
"154 626 CURVE SMOOTH",
"90 560 OFFCURVE",
"53 468 OFFCURVE",
"53 362 CURVE SMOOTH",
"53 256 OFFCURVE",
"90 163 OFFCURVE",
"154 97 CURVE SMOOTH",
"218 31 OFFCURVE",
"310 -8 OFFCURVE",
"419 -8 CURVE SMOOTH"
);
},
{
closed = 1;
nodes = (
"349 107 OFFCURVE",
"292 131 OFFCURVE",
"252 175 CURVE SMOOTH",
"212 219 OFFCURVE",
"190 282 OFFCURVE",
"190 362 CURVE SMOOTH",
"190 441 OFFCURVE",
"212 505 OFFCURVE",
"252 549 CURVE SMOOTH",
"292 593 OFFCURVE",
"349 617 OFFCURVE",
"419 617 CURVE SMOOTH",
"490 617 OFFCURVE",
"547 593 OFFCURVE",
"586 549 CURVE SMOOTH",
"626 505 OFFCURVE",
"648 441 OFFCURVE",
"648 362 CURVE SMOOTH",
"648 282 OFFCURVE",
"626 219 OFFCURVE",
"586 175 CURVE SMOOTH",
"547 131 OFFCURVE",
"490 107 OFFCURVE",
"419 107 CURVE SMOOTH"
);
},
{
closed = 1;
nodes = (
"426 775 LINE SMOOTH",
"445 775 OFFCURVE",
"455 776 OFFCURVE",
"468 788 CURVE SMOOTH",
"630 931 LINE",
"493 931 LINE SMOOTH",
"479 931 OFFCURVE",
"470 930 OFFCURVE",
"462 928 CURVE SMOOTH",
"454 925 OFFCURVE",
"448 920 OFFCURVE",
"441 910 CURVE",
"337 775 LINE"
);
}
);
width = 839;
}
);
leftKerningGroup = C;
note = Oacute;
rightKerningGroup = O;
unicode = 00D3;
},
{
glyphname = Ocircumflex;
lastChange = "2026-06-19 17:27:37 +0000";
layers = (
{
layerId = "7DA69401-B8BB-4CEF-A33A-65E5ADA83450";
paths = (
{
closed = 1;
nodes = (
"505 -7 OFFCURVE",
"586 27 OFFCURVE",
"643 89 CURVE SMOOTH",
"700 151 OFFCURVE",
"733 240 OFFCURVE",
"733 350 CURVE SMOOTH",
"733 461 OFFCURVE",
"700 550 OFFCURVE",
"643 612 CURVE SMOOTH",
"586 674 OFFCURVE",
"505 708 OFFCURVE",
"409 708 CURVE SMOOTH",
"313 708 OFFCURVE",
"233 674 OFFCURVE",
"176 612 CURVE SMOOTH",
"119 550 OFFCURVE",
"86 460 OFFCURVE",
"86 350 CURVE SMOOTH",
"86 240 OFFCURVE",
"119 151 OFFCURVE",
"176 89 CURVE SMOOTH",
"233 27 OFFCURVE",
"313 -7 OFFCURVE",
"409 -7 CURVE SMOOTH"
);
},
{
closed = 1;
nodes = (
"318 3 OFFCURVE",
"241 36 OFFCURVE",
"186 96 CURVE SMOOTH",
"131 155 OFFCURVE",
"98 242 OFFCURVE",
"98 350 CURVE SMOOTH",
"98 459 OFFCURVE",
"131 546 OFFCURVE",
"186 606 CURVE SMOOTH",
"241 666 OFFCURVE",
"318 698 OFFCURVE",
"409 698 CURVE SMOOTH",
"501 698 OFFCURVE",
"579 666 OFFCURVE",
"633 606 CURVE SMOOTH",
"688 546 OFFCURVE",
"720 459 OFFCURVE",
"720 350 CURVE SMOOTH",
"720 242 OFFCURVE",
"688 155 OFFCURVE",
"633 96 CURVE SMOOTH",
"579 36 OFFCURVE",
"501 3 OFFCURVE",
"409 3 CURVE SMOOTH"
);
},
{
closed = 1;
nodes = (
"300 769 LINE SMOOTH",
"303 769 OFFCURVE",
"306 770 OFFCURVE",
"310 773 CURVE",
"408 885 LINE",
"408 886 OFFCURVE",
"409 887 OFFCURVE",
"410 888 CURVE",
"410 887 OFFCURVE",
"411 886 OFFCURVE",
"412 885 CURVE",
"510 773 LINE",
"513 770 OFFCURVE",
"516 769 OFFCURVE",
"520 769 CURVE SMOOTH",
"530 769 LINE",
"414 901 LINE",
"406 901 LINE",
"290 769 LINE"
);
}
);
width = 819;
},
{
layerId = "F36DCCA2-8A71-42CF-9609-F852DF368EC0";
paths = (
{
closed = 1;
nodes = (
"522 -8 OFFCURVE",
"610 30 OFFCURVE",
"672 95 CURVE SMOOTH",
"734 159 OFFCURVE",
"770 251 OFFCURVE",
"770 358 CURVE SMOOTH",
"770 466 OFFCURVE",
"734 557 OFFCURVE",
"672 622 CURVE SMOOTH",
"610 687 OFFCURVE",
"522 725 OFFCURVE",
"416 725 CURVE SMOOTH",
"311 725 OFFCURVE",
"223 687 OFFCURVE",
"161 622 CURVE SMOOTH",
"99 557 OFFCURVE",
"63 466 OFFCURVE",
"63 358 CURVE SMOOTH",
"63 251 OFFCURVE",
"99 159 OFFCURVE",
"161 95 CURVE SMOOTH",
"223 30 OFFCURVE",
"311 -8 OFFCURVE",
"416 -8 CURVE SMOOTH"
);
},
{
closed = 1;
nodes = (
"340 77 OFFCURVE",
"276 103 OFFCURVE",
"232 152 CURVE SMOOTH",
"187 200 OFFCURVE",
"162 270 OFFCURVE",
"162 358 CURVE SMOOTH",
"162 446 OFFCURVE",
"187 517 OFFCURVE",
"232 566 CURVE SMOOTH",
"276 614 OFFCURVE",
"340 641 OFFCURVE",
"416 641 CURVE SMOOTH",
"494 641 OFFCURVE",
"557 614 OFFCURVE",
"601 566 CURVE SMOOTH",
"645 517 OFFCURVE",
"670 446 OFFCURVE",
"670 358 CURVE SMOOTH",
"670 270 OFFCURVE",
"645 200 OFFCURVE",
"601 152 CURVE SMOOTH",
"557 103 OFFCURVE",
"494 77 OFFCURVE",
"416 77 CURVE SMOOTH"
);
},
{
closed = 1;
nodes = (
"322 773 LINE SMOOTH",
"330 773 OFFCURVE",
"341 774 OFFCURVE",
"353 788 CURVE SMOOTH",
"411 858 LINE",
"417 867 LINE",
"423 858 LINE",
"482 788 LINE SMOOTH",
"493 774 OFFCURVE",
"505 773 OFFCURVE",
"513 773 CURVE SMOOTH",
"578 773 LINE",
"459 909 LINE",
"379 909 LINE",
"259 773 LINE"
);
}
);
width = 833;
},
{
layerId = "A9E408DD-A955-440F-BEB6-B96F0772F152";
paths = (
{
closed = 1;
nodes = (
"529 -8 OFFCURVE",
"621 31 OFFCURVE",
"685 97 CURVE SMOOTH",
"749 163 OFFCURVE",
"785 256 OFFCURVE",
"785 362 CURVE SMOOTH",
"785 432 OFFCURVE",
"769 497 OFFCURVE",
"739 552 CURVE SMOOTH",
"709 606 OFFCURVE",
"666 652 OFFCURVE",
"612 683 CURVE SMOOTH",
"558 714 OFFCURVE",
"493 731 OFFCURVE",
"419 731 CURVE SMOOTH",
"310 731 OFFCURVE",
"218 692 OFFCURVE",
"154 626 CURVE SMOOTH",
"90 560 OFFCURVE",
"53 468 OFFCURVE",
"53 362 CURVE SMOOTH",
"53 256 OFFCURVE",
"90 163 OFFCURVE",
"154 97 CURVE SMOOTH",
"218 31 OFFCURVE",
"310 -8 OFFCURVE",
"419 -8 CURVE SMOOTH"
);
},
{
closed = 1;
nodes = (
"349 107 OFFCURVE",
"292 131 OFFCURVE",
"252 175 CURVE SMOOTH",
"212 219 OFFCURVE",
"190 282 OFFCURVE",
"190 362 CURVE SMOOTH",
"190 441 OFFCURVE",
"212 505 OFFCURVE",
"252 549 CURVE SMOOTH",
"292 593 OFFCURVE",
"349 617 OFFCURVE",
"419 617 CURVE SMOOTH",
"490 617 OFFCURVE",
"547 593 OFFCURVE",
"586 549 CURVE SMOOTH",
"626 505 OFFCURVE",
"648 441 OFFCURVE",
"648 362 CURVE SMOOTH",
"648 282 OFFCURVE",
"626 219 OFFCURVE",
"586 175 CURVE SMOOTH",
"547 131 OFFCURVE",
"490 107 OFFCURVE",
"419 107 CURVE SMOOTH"
);
},
{
closed = 1;
nodes = (
"331 775 LINE SMOOTH",
"341 775 OFFCURVE",
"356 776 OFFCURVE",
"372 794 CURVE",
"413 847 LINE SMOOTH",
"416 851 OFFCURVE",
"419 855 OFFCURVE",
"420 858 CURVE",
"422 855 OFFCURVE",
"424 851 OFFCURVE",
"428 847 CURVE SMOOTH",
"469 794 LINE",
"484 776 OFFCURVE",
"499 775 OFFCURVE",
"509 775 CURVE SMOOTH",
"599 775 LINE",
"478 912 LINE",
"366 912 LINE",
"246 775 LINE"
);
}
);
width = 839;
}
);
leftKerningGroup = C;
note = Ocircumflex;
rightKerningGroup = O;
unicode = 00D4;
},
{
glyphname = Odieresis;
lastChange = "2026-06-19 17:27:37 +0000";
layers = (
{
layerId = "7DA69401-B8BB-4CEF-A33A-65E5ADA83450";
paths = (
{
closed = 1;
nodes = (
"505 -7 OFFCURVE",
"586 27 OFFCURVE",
"643 89 CURVE SMOOTH",
"700 151 OFFCURVE",
"733 240 OFFCURVE",
"733 350 CURVE SMOOTH",
"733 461 OFFCURVE",
"700 550 OFFCURVE",
"643 612 CURVE SMOOTH",
"586 674 OFFCURVE",
"505 708 OFFCURVE",
"409 708 CURVE SMOOTH",
"313 708 OFFCURVE",
"233 674 OFFCURVE",
"176 612 CURVE SMOOTH",
"119 550 OFFCURVE",
"86 460 OFFCURVE",
"86 350 CURVE SMOOTH",
"86 240 OFFCURVE",
"119 151 OFFCURVE",
"176 89 CURVE SMOOTH",
"233 27 OFFCURVE",
"313 -7 OFFCURVE",
"409 -7 CURVE SMOOTH"
);
},
{
closed = 1;
nodes = (
"318 3 OFFCURVE",
"241 36 OFFCURVE",
"186 96 CURVE SMOOTH",
"131 155 OFFCURVE",
"98 242 OFFCURVE",
"98 350 CURVE SMOOTH",
"98 459 OFFCURVE",
"131 546 OFFCURVE",
"186 606 CURVE SMOOTH",
"241 666 OFFCURVE",
"318 698 OFFCURVE",
"409 698 CURVE SMOOTH",
"501 698 OFFCURVE",
"579 666 OFFCURVE",
"633 606 CURVE SMOOTH",
"688 546 OFFCURVE",
"720 459 OFFCURVE",
"720 350 CURVE SMOOTH",
"720 242 OFFCURVE",
"688 155 OFFCURVE",
"633 96 CURVE SMOOTH",
"579 36 OFFCURVE",
"501 3 OFFCURVE",
"409 3 CURVE SMOOTH"
);
},
{
closed = 1;
nodes = (
"332 805 OFFCURVE",
"346 818 OFFCURVE",
"346 832 CURVE SMOOTH",
"346 848 OFFCURVE",
"332 860 OFFCURVE",
"318 860 CURVE SMOOTH",
"302 860 OFFCURVE",
"290 848 OFFCURVE",
"290 832 CURVE SMOOTH",
"290 818 OFFCURVE",
"302 805 OFFCURVE",
"318 805 CURVE SMOOTH"
);
},
{
closed = 1;
nodes = (
"516 805 OFFCURVE",
"530 818 OFFCURVE",
"530 832 CURVE SMOOTH",
"530 848 OFFCURVE",
"516 860 OFFCURVE",
"502 860 CURVE SMOOTH",
"486 860 OFFCURVE",
"474 848 OFFCURVE",
"474 832 CURVE SMOOTH",
"474 818 OFFCURVE",
"486 805 OFFCURVE",
"502 805 CURVE SMOOTH"
);
}
);
width = 819;
},
{
layerId = "F36DCCA2-8A71-42CF-9609-F852DF368EC0";
paths = (
{
closed = 1;
nodes = (
"522 -8 OFFCURVE",
"610 30 OFFCURVE",
"672 95 CURVE SMOOTH",
"734 159 OFFCURVE",
"770 251 OFFCURVE",
"770 358 CURVE SMOOTH",
"770 466 OFFCURVE",
"734 557 OFFCURVE",
"672 622 CURVE SMOOTH",
"610 687 OFFCURVE",
"522 725 OFFCURVE",
"416 725 CURVE SMOOTH",
"311 725 OFFCURVE",
"223 687 OFFCURVE",
"161 622 CURVE SMOOTH",
"99 557 OFFCURVE",
"63 466 OFFCURVE",
"63 358 CURVE SMOOTH",
"63 251 OFFCURVE",
"99 159 OFFCURVE",
"161 95 CURVE SMOOTH",
"223 30 OFFCURVE",
"311 -8 OFFCURVE",
"416 -8 CURVE SMOOTH"
);
},
{
closed = 1;
nodes = (
"340 77 OFFCURVE",
"276 103 OFFCURVE",
"232 152 CURVE SMOOTH",
"187 200 OFFCURVE",
"162 270 OFFCURVE",
"162 358 CURVE SMOOTH",
"162 446 OFFCURVE",
"187 517 OFFCURVE",
"232 566 CURVE SMOOTH",
"276 614 OFFCURVE",
"340 641 OFFCURVE",
"416 641 CURVE SMOOTH",
"494 641 OFFCURVE",
"557 614 OFFCURVE",
"601 566 CURVE SMOOTH",
"645 517 OFFCURVE",
"670 446 OFFCURVE",
"670 358 CURVE SMOOTH",
"670 270 OFFCURVE",
"645 200 OFFCURVE",
"601 152 CURVE SMOOTH",
"557 103 OFFCURVE",
"494 77 OFFCURVE",
"416 77 CURVE SMOOTH"
);
},
{
closed = 1;
nodes = (
"326 779 OFFCURVE",
"341 785 OFFCURVE",
"351 795 CURVE SMOOTH",
"361 805 OFFCURVE",
"368 819 OFFCURVE",
"368 833 CURVE SMOOTH",
"368 849 OFFCURVE",
"361 863 OFFCURVE",
"351 873 CURVE SMOOTH",
"341 883 OFFCURVE",
"326 889 OFFCURVE",
"312 889 CURVE SMOOTH",
"298 889 OFFCURVE",
"284 883 OFFCURVE",
"274 873 CURVE SMOOTH",
"264 863 OFFCURVE",
"258 849 OFFCURVE",
"258 833 CURVE SMOOTH",
"258 819 OFFCURVE",
"264 805 OFFCURVE",
"274 795 CURVE SMOOTH",
"284 785 OFFCURVE",
"298 779 OFFCURVE",
"312 779 CURVE SMOOTH"
);
},
{
closed = 1;
nodes = (
"536 779 OFFCURVE",
"550 785 OFFCURVE",
"560 795 CURVE SMOOTH",
"570 805 OFFCURVE",
"577 819 OFFCURVE",
"577 833 CURVE SMOOTH",
"577 849 OFFCURVE",
"570 863 OFFCURVE",
"560 873 CURVE SMOOTH",
"550 883 OFFCURVE",
"536 889 OFFCURVE",
"522 889 CURVE SMOOTH",
"506 889 OFFCURVE",
"493 883 OFFCURVE",
"483 873 CURVE SMOOTH",
"473 863 OFFCURVE",
"467 849 OFFCURVE",
"467 833 CURVE SMOOTH",
"467 819 OFFCURVE",
"473 805 OFFCURVE",
"483 795 CURVE SMOOTH",
"493 785 OFFCURVE",
"506 779 OFFCURVE",
"522 779 CURVE SMOOTH"
);
}
);
width = 833;
},
{
layerId = "A9E408DD-A955-440F-BEB6-B96F0772F152";
paths = (
{
closed = 1;
nodes = (
"529 -8 OFFCURVE",
"621 31 OFFCURVE",
"685 97 CURVE SMOOTH",
"749 163 OFFCURVE",
"785 256 OFFCURVE",
"785 362 CURVE SMOOTH",
"785 432 OFFCURVE",
"769 497 OFFCURVE",
"739 552 CURVE SMOOTH",
"709 606 OFFCURVE",
"666 652 OFFCURVE",
"612 683 CURVE SMOOTH",
"558 714 OFFCURVE",
"493 731 OFFCURVE",
"419 731 CURVE SMOOTH",
"310 731 OFFCURVE",
"218 692 OFFCURVE",
"154 626 CURVE SMOOTH",
"90 560 OFFCURVE",
"53 468 OFFCURVE",
"53 362 CURVE SMOOTH",
"53 256 OFFCURVE",
"90 163 OFFCURVE",
"154 97 CURVE SMOOTH",
"218 31 OFFCURVE",
"310 -8 OFFCURVE",
"419 -8 CURVE SMOOTH"
);
},
{
closed = 1;
nodes = (
"349 107 OFFCURVE",
"292 131 OFFCURVE",
"252 175 CURVE SMOOTH",
"212 219 OFFCURVE",
"190 282 OFFCURVE",
"190 362 CURVE SMOOTH",
"190 441 OFFCURVE",
"212 505 OFFCURVE",
"252 549 CURVE SMOOTH",
"292 593 OFFCURVE",
"349 617 OFFCURVE",
"419 617 CURVE SMOOTH",
"490 617 OFFCURVE",
"547 593 OFFCURVE",
"586 549 CURVE SMOOTH",
"626 505 OFFCURVE",
"648 441 OFFCURVE",
"648 362 CURVE SMOOTH",
"648 282 OFFCURVE",
"626 219 OFFCURVE",
"586 175 CURVE SMOOTH",
"547 131 OFFCURVE",
"490 107 OFFCURVE",
"419 107 CURVE SMOOTH"
);
},
{
closed = 1;
nodes = (
"327 768 OFFCURVE",
"345 775 OFFCURVE",
"357 787 CURVE SMOOTH",
"369 799 OFFCURVE",
"377 816 OFFCURVE",
"377 834 CURVE SMOOTH",
"377 852 OFFCURVE",
"369 869 OFFCURVE",
"357 881 CURVE",
"345 893 OFFCURVE",
"327 901 OFFCURVE",
"309 901 CURVE SMOOTH",
"291 901 OFFCURVE",
"275 893 OFFCURVE",
"263 881 CURVE SMOOTH",
"251 869 OFFCURVE",
"243 852 OFFCURVE",
"243 834 CURVE SMOOTH",
"243 816 OFFCURVE",
"251 799 OFFCURVE",
"263 787 CURVE SMOOTH",
"275 775 OFFCURVE",
"291 768 OFFCURVE",
"309 768 CURVE SMOOTH"
);
},
{
closed = 1;
nodes = (
"548 768 OFFCURVE",
"565 775 OFFCURVE",
"578 787 CURVE SMOOTH",
"590 799 OFFCURVE",
"597 816 OFFCURVE",
"597 834 CURVE SMOOTH",
"597 852 OFFCURVE",
"590 869 OFFCURVE",
"578 881 CURVE",
"565 893 OFFCURVE",
"548 901 OFFCURVE",
"530 901 CURVE SMOOTH",
"512 901 OFFCURVE",
"495 893 OFFCURVE",
"483 881 CURVE SMOOTH",
"471 869 OFFCURVE",
"463 852 OFFCURVE",
"463 834 CURVE SMOOTH",
"463 816 OFFCURVE",
"471 799 OFFCURVE",
"483 787 CURVE SMOOTH",
"495 775 OFFCURVE",
"512 768 OFFCURVE",
"530 768 CURVE SMOOTH"
);
}
);
width = 839;
}
);
leftKerningGroup = C;
note = Odieresis;
rightKerningGroup = O;
unicode = 00D6;
},
{
glyphname = Ograve;
lastChange = "2026-06-19 17:27:37 +0000";
layers = (
{
layerId = "7DA69401-B8BB-4CEF-A33A-65E5ADA83450";
paths = (
{
closed = 1;
nodes = (
"505 -7 OFFCURVE",
"586 27 OFFCURVE",
"643 89 CURVE SMOOTH",
"700 151 OFFCURVE",
"733 240 OFFCURVE",
"733 350 CURVE SMOOTH",
"733 461 OFFCURVE",
"700 550 OFFCURVE",
"643 612 CURVE SMOOTH",
"586 674 OFFCURVE",
"505 708 OFFCURVE",
"409 708 CURVE SMOOTH",
"313 708 OFFCURVE",
"233 674 OFFCURVE",
"176 612 CURVE SMOOTH",
"119 550 OFFCURVE",
"86 460 OFFCURVE",
"86 350 CURVE SMOOTH",
"86 240 OFFCURVE",
"119 151 OFFCURVE",
"176 89 CURVE SMOOTH",
"233 27 OFFCURVE",
"313 -7 OFFCURVE",
"409 -7 CURVE SMOOTH"
);
},
{
closed = 1;
nodes = (
"318 3 OFFCURVE",
"241 36 OFFCURVE",
"186 96 CURVE SMOOTH",
"131 155 OFFCURVE",
"98 242 OFFCURVE",
"98 350 CURVE SMOOTH",
"98 459 OFFCURVE",
"131 546 OFFCURVE",
"186 606 CURVE SMOOTH",
"241 666 OFFCURVE",
"318 698 OFFCURVE",
"409 698 CURVE SMOOTH",
"501 698 OFFCURVE",
"579 666 OFFCURVE",
"633 606 CURVE SMOOTH",
"688 546 OFFCURVE",
"720 459 OFFCURVE",
"720 350 CURVE SMOOTH",
"720 242 OFFCURVE",
"688 155 OFFCURVE",
"633 96 CURVE SMOOTH",
"579 36 OFFCURVE",
"501 3 OFFCURVE",
"409 3 CURVE SMOOTH"
);
},
{
closed = 1;
nodes = (
"452 769 LINE",
"327 909 LINE SMOOTH",
"322 915 OFFCURVE",
"318 916 OFFCURVE",
"306 916 CURVE SMOOTH",
"288 916 LINE",
"437 772 LINE SMOOTH",
"439 770 OFFCURVE",
"442 769 OFFCURVE",
"446 769 CURVE SMOOTH"
);
}
);
width = 819;
},
{
layerId = "F36DCCA2-8A71-42CF-9609-F852DF368EC0";
paths = (
{
closed = 1;
nodes = (
"522 -8 OFFCURVE",
"610 30 OFFCURVE",
"672 95 CURVE SMOOTH",
"734 159 OFFCURVE",
"770 251 OFFCURVE",
"770 358 CURVE SMOOTH",
"770 466 OFFCURVE",
"734 557 OFFCURVE",
"672 622 CURVE SMOOTH",
"610 687 OFFCURVE",
"522 725 OFFCURVE",
"416 725 CURVE SMOOTH",
"311 725 OFFCURVE",
"223 687 OFFCURVE",
"161 622 CURVE SMOOTH",
"99 557 OFFCURVE",
"63 466 OFFCURVE",
"63 358 CURVE SMOOTH",
"63 251 OFFCURVE",
"99 159 OFFCURVE",
"161 95 CURVE SMOOTH",
"223 30 OFFCURVE",
"311 -8 OFFCURVE",
"416 -8 CURVE SMOOTH"
);
},
{
closed = 1;
nodes = (
"340 77 OFFCURVE",
"276 103 OFFCURVE",
"232 152 CURVE SMOOTH",
"187 200 OFFCURVE",
"162 270 OFFCURVE",
"162 358 CURVE SMOOTH",
"162 446 OFFCURVE",
"187 517 OFFCURVE",
"232 566 CURVE SMOOTH",
"276 614 OFFCURVE",
"340 641 OFFCURVE",
"416 641 CURVE SMOOTH",
"494 641 OFFCURVE",
"557 614 OFFCURVE",
"601 566 CURVE SMOOTH",
"645 517 OFFCURVE",
"670 446 OFFCURVE",
"670 358 CURVE SMOOTH",
"670 270 OFFCURVE",
"645 200 OFFCURVE",
"601 152 CURVE SMOOTH",
"557 103 OFFCURVE",
"494 77 OFFCURVE",
"416 77 CURVE SMOOTH"
);
},
{
closed = 1;
nodes = (
"485 773 LINE",
"371 910 LINE SMOOTH",
"359 925 OFFCURVE",
"351 926 OFFCURVE",
"329 926 CURVE SMOOTH",
"234 926 LINE",
"390 783 LINE SMOOTH",
"400 773 OFFCURVE",
"406 773 OFFCURVE",
"421 773 CURVE SMOOTH"
);
}
);
width = 833;
},
{
layerId = "A9E408DD-A955-440F-BEB6-B96F0772F152";
paths = (
{
closed = 1;
nodes = (
"529 -8 OFFCURVE",
"621 31 OFFCURVE",
"685 97 CURVE SMOOTH",
"749 163 OFFCURVE",
"785 256 OFFCURVE",
"785 362 CURVE SMOOTH",
"785 432 OFFCURVE",
"769 497 OFFCURVE",
"739 552 CURVE SMOOTH",
"709 606 OFFCURVE",
"666 652 OFFCURVE",
"612 683 CURVE SMOOTH",
"558 714 OFFCURVE",
"493 731 OFFCURVE",
"419 731 CURVE SMOOTH",
"310 731 OFFCURVE",
"218 692 OFFCURVE",
"154 626 CURVE SMOOTH",
"90 560 OFFCURVE",
"53 468 OFFCURVE",
"53 362 CURVE SMOOTH",
"53 256 OFFCURVE",
"90 163 OFFCURVE",
"154 97 CURVE SMOOTH",
"218 31 OFFCURVE",
"310 -8 OFFCURVE",
"419 -8 CURVE SMOOTH"
);
},
{
closed = 1;
nodes = (
"349 107 OFFCURVE",
"292 131 OFFCURVE",
"252 175 CURVE SMOOTH",
"212 219 OFFCURVE",
"190 282 OFFCURVE",
"190 362 CURVE SMOOTH",
"190 441 OFFCURVE",
"212 505 OFFCURVE",
"252 549 CURVE SMOOTH",
"292 593 OFFCURVE",
"349 617 OFFCURVE",
"419 617 CURVE SMOOTH",
"490 617 OFFCURVE",
"547 593 OFFCURVE",
"586 549 CURVE SMOOTH",
"626 505 OFFCURVE",
"648 441 OFFCURVE",
"648 362 CURVE SMOOTH",
"648 282 OFFCURVE",
"626 219 OFFCURVE",
"586 175 CURVE SMOOTH",
"547 131 OFFCURVE",
"490 107 OFFCURVE",
"419 107 CURVE SMOOTH"
);
},
{
closed = 1;
nodes = (
"499 775 LINE",
"390 910 LINE SMOOTH",
"382 920 OFFCURVE",
"376 925 OFFCURVE",
"369 928 CURVE SMOOTH",
"361 931 OFFCURVE",
"352 931 OFFCURVE",
"338 931 CURVE SMOOTH",
"209 931 LINE",
"368 787 LINE SMOOTH",
"382 775 OFFCURVE",
"390 775 OFFCURVE",
"409 775 CURVE SMOOTH"
);
}
);
width = 839;
}
);
leftKerningGroup = C;
note = Ograve;
rightKerningGroup = O;
unicode = 00D2;
},
{
glyphname = Oslash;
lastChange = "2026-06-19 17:27:37 +0000";
layers = (
{
layerId = "7DA69401-B8BB-4CEF-A33A-65E5ADA83450";
paths = (
{
closed = 1;
nodes = (
"114 -51 LINE SMOOTH",
"118 -51 OFFCURVE",
"122 -49 OFFCURVE",
"125 -45 CURVE SMOOTH",
"205 62 LINE",
"259 18 OFFCURVE",
"329 -7 OFFCURVE",
"410 -7 CURVE SMOOTH",
"506 -7 OFFCURVE",
"587 27 OFFCURVE",
"644 89 CURVE SMOOTH",
"701 151 OFFCURVE",
"734 240 OFFCURVE",
"734 350 CURVE SMOOTH",
"734 471 OFFCURVE",
"695 565 OFFCURVE",
"629 627 CURVE",
"708 732 LINE",
"700 732 LINE SMOOTH",
"694 732 OFFCURVE",
"693 730 OFFCURVE",
"690 726 CURVE",
"621 634 LINE",
"565 682 OFFCURVE",
"494 708 OFFCURVE",
"410 708 CURVE SMOOTH",
"314 708 OFFCURVE",
"234 674 OFFCURVE",
"177 612 CURVE SMOOTH",
"120 550 OFFCURVE",
"87 460 OFFCURVE",
"87 350 CURVE SMOOTH",
"87 226 OFFCURVE",
"127 131 OFFCURVE",
"197 69 CURVE",
"107 -51 LINE"
);
},
{
closed = 1;
nodes = (
"138 138 OFFCURVE",
"99 230 OFFCURVE",
"99 350 CURVE SMOOTH",
"99 459 OFFCURVE",
"132 546 OFFCURVE",
"187 606 CURVE SMOOTH",
"242 666 OFFCURVE",
"319 698 OFFCURVE",
"410 698 CURVE SMOOTH",
"492 698 OFFCURVE",
"561 673 OFFCURVE",
"614 625 CURVE",
"204 78 LINE"
);
},
{
closed = 1;
nodes = (
"332 3 OFFCURVE",
"264 27 OFFCURVE",
"212 71 CURVE",
"622 618 LINE",
"685 558 OFFCURVE",
"721 468 OFFCURVE",
"721 350 CURVE SMOOTH",
"721 242 OFFCURVE",
"689 155 OFFCURVE",
"634 96 CURVE SMOOTH",
"580 36 OFFCURVE",
"502 3 OFFCURVE",
"410 3 CURVE SMOOTH"
);
}
);
width = 822;
},
{
layerId = "F36DCCA2-8A71-42CF-9609-F852DF368EC0";
paths = (
{
closed = 1;
nodes = (
"125 -55 LINE SMOOTH",
"145 -55 OFFCURVE",
"166 -47 OFFCURVE",
"180 -27 CURVE SMOOTH",
"230 41 LINE",
"283 10 OFFCURVE",
"346 -8 OFFCURVE",
"417 -8 CURVE SMOOTH",
"523 -8 OFFCURVE",
"611 30 OFFCURVE",
"673 95 CURVE SMOOTH",
"735 159 OFFCURVE",
"771 251 OFFCURVE",
"771 358 CURVE SMOOTH",
"771 472 OFFCURVE",
"732 566 OFFCURVE",
"663 632 CURVE",
"749 749 LINE",
"699 749 LINE SMOOTH",
"678 749 OFFCURVE",
"671 742 OFFCURVE",
"657 724 CURVE SMOOTH",
"617 669 LINE",
"561 705 OFFCURVE",
"494 725 OFFCURVE",
"417 725 CURVE SMOOTH",
"312 725 OFFCURVE",
"224 687 OFFCURVE",
"162 622 CURVE SMOOTH",
"100 557 OFFCURVE",
"64 466 OFFCURVE",
"64 358 CURVE SMOOTH",
"64 239 OFFCURVE",
"107 141 OFFCURVE",
"182 76 CURVE",
"86 -55 LINE"
);
},
{
closed = 1;
nodes = (
"189 197 OFFCURVE",
"163 268 OFFCURVE",
"163 358 CURVE SMOOTH",
"163 446 OFFCURVE",
"188 517 OFFCURVE",
"233 566 CURVE SMOOTH",
"277 614 OFFCURVE",
"341 641 OFFCURVE",
"417 641 CURVE SMOOTH",
"475 641 OFFCURVE",
"525 626 OFFCURVE",
"565 598 CURVE",
"235 149 LINE"
);
},
{
closed = 1;
nodes = (
"365 77 OFFCURVE",
"320 88 OFFCURVE",
"281 112 CURVE",
"609 558 LINE",
"649 510 OFFCURVE",
"671 442 OFFCURVE",
"671 358 CURVE SMOOTH",
"671 270 OFFCURVE",
"646 200 OFFCURVE",
"602 152 CURVE SMOOTH",
"558 103 OFFCURVE",
"495 77 OFFCURVE",
"417 77 CURVE SMOOTH"
);
}
);
width = 837;
},
{
layerId = "A9E408DD-A955-440F-BEB6-B96F0772F152";
paths = (
{
closed = 1;
nodes = (
"131 -56 LINE SMOOTH",
"157 -56 OFFCURVE",
"185 -46 OFFCURVE",
"205 -20 CURVE SMOOTH",
"243 33 LINE",
"295 7 OFFCURVE",
"354 -8 OFFCURVE",
"421 -8 CURVE SMOOTH",
"531 -8 OFFCURVE",
"623 31 OFFCURVE",
"687 97 CURVE SMOOTH",
"751 163 OFFCURVE",
"787 256 OFFCURVE",
"787 362 CURVE SMOOTH",
"787 472 OFFCURVE",
"748 567 OFFCURVE",
"679 633 CURVE",
"768 756 LINE",
"700 756 LINE SMOOTH",
"685 756 OFFCURVE",
"675 754 OFFCURVE",
"667 749 CURVE SMOOTH",
"659 743 OFFCURVE",
"652 735 OFFCURVE",
"644 723 CURVE SMOOTH",
"614 682 LINE",
"560 714 OFFCURVE",
"495 731 OFFCURVE",
"421 731 CURVE SMOOTH",
"312 731 OFFCURVE",
"220 692 OFFCURVE",
"156 626 CURVE SMOOTH",
"92 560 OFFCURVE",
"55 468 OFFCURVE",
"55 362 CURVE SMOOTH",
"55 244 OFFCURVE",
"99 145 OFFCURVE",
"175 79 CURVE",
"78 -56 LINE"
);
},
{
closed = 1;
nodes = (
"212 224 OFFCURVE",
"192 285 OFFCURVE",
"192 362 CURVE SMOOTH",
"192 441 OFFCURVE",
"214 505 OFFCURVE",
"254 549 CURVE SMOOTH",
"294 593 OFFCURVE",
"351 617 OFFCURVE",
"421 617 CURVE SMOOTH",
"469 617 OFFCURVE",
"510 606 OFFCURVE",
"544 586 CURVE",
"249 180 LINE"
);
},
{
closed = 1;
nodes = (
"381 107 OFFCURVE",
"345 115 OFFCURVE",
"313 130 CURVE",
"604 530 LINE",
"634 487 OFFCURVE",
"650 430 OFFCURVE",
"650 362 CURVE SMOOTH",
"650 282 OFFCURVE",
"628 219 OFFCURVE",
"588 175 CURVE SMOOTH",
"549 131 OFFCURVE",
"492 107 OFFCURVE",
"421 107 CURVE SMOOTH"
);
}
);
width = 844;
}
);
leftKerningGroup = C;
note = Oslash;
rightKerningGroup = O;
unicode = 00D8;
},
{
glyphname = Otilde;
lastChange = "2026-06-19 17:27:37 +0000";
layers = (
{
layerId = "7DA69401-B8BB-4CEF-A33A-65E5ADA83450";
paths = (
{
closed = 1;
nodes = (
"505 -7 OFFCURVE",
"586 27 OFFCURVE",
"643 89 CURVE SMOOTH",
"700 151 OFFCURVE",
"733 240 OFFCURVE",
"733 350 CURVE SMOOTH",
"733 461 OFFCURVE",
"700 550 OFFCURVE",
"643 612 CURVE SMOOTH",
"586 674 OFFCURVE",
"505 708 OFFCURVE",
"409 708 CURVE SMOOTH",
"313 708 OFFCURVE",
"233 674 OFFCURVE",
"176 612 CURVE SMOOTH",
"119 550 OFFCURVE",
"86 460 OFFCURVE",
"86 350 CURVE SMOOTH",
"86 240 OFFCURVE",
"119 151 OFFCURVE",
"176 89 CURVE SMOOTH",
"233 27 OFFCURVE",
"313 -7 OFFCURVE",
"409 -7 CURVE SMOOTH"
);
},
{
closed = 1;
nodes = (
"318 3 OFFCURVE",
"241 36 OFFCURVE",
"186 96 CURVE SMOOTH",
"131 155 OFFCURVE",
"98 242 OFFCURVE",
"98 350 CURVE SMOOTH",
"98 459 OFFCURVE",
"131 546 OFFCURVE",
"186 606 CURVE SMOOTH",
"241 666 OFFCURVE",
"318 698 OFFCURVE",
"409 698 CURVE SMOOTH",
"501 698 OFFCURVE",
"579 666 OFFCURVE",
"633 606 CURVE SMOOTH",
"688 546 OFFCURVE",
"720 459 OFFCURVE",
"720 350 CURVE SMOOTH",
"720 242 OFFCURVE",
"688 155 OFFCURVE",
"633 96 CURVE SMOOTH",
"579 36 OFFCURVE",
"501 3 OFFCURVE",
"409 3 CURVE SMOOTH"
);
},
{
closed = 1;
nodes = (
"494 778 OFFCURVE",
"510 786 OFFCURVE",
"520 798 CURVE SMOOTH",
"531 810 OFFCURVE",
"537 827 OFFCURVE",
"537 845 CURVE",
"529 845 LINE",
"527 813 OFFCURVE",
"507 788 OFFCURVE",
"474 788 CURVE SMOOTH",
"454 788 OFFCURVE",
"435 803 OFFCURVE",
"415 817 CURVE SMOOTH",
"395 832 OFFCURVE",
"374 846 OFFCURVE",
"352 846 CURVE SMOOTH",
"332 846 OFFCURVE",
"316 838 OFFCURVE",
"305 826 CURVE SMOOTH",
"294 814 OFFCURVE",
"288 797 OFFCURVE",
"288 779 CURVE",
"297 779 LINE",
"297 795 OFFCURVE",
"303 809 OFFCURVE",
"313 820 CURVE SMOOTH",
"322 830 OFFCURVE",
"336 836 OFFCURVE",
"352 836 CURVE SMOOTH",
"371 836 OFFCURVE",
"391 822 OFFCURVE",
"411 807 CURVE SMOOTH",
"431 793 OFFCURVE",
"452 778 OFFCURVE",
"474 778 CURVE SMOOTH"
);
}
);
width = 819;
},
{
layerId = "F36DCCA2-8A71-42CF-9609-F852DF368EC0";
paths = (
{
closed = 1;
nodes = (
"522 -8 OFFCURVE",
"610 30 OFFCURVE",
"672 95 CURVE SMOOTH",
"734 159 OFFCURVE",
"770 251 OFFCURVE",
"770 358 CURVE SMOOTH",
"770 466 OFFCURVE",
"734 557 OFFCURVE",
"672 622 CURVE SMOOTH",
"610 687 OFFCURVE",
"522 725 OFFCURVE",
"416 725 CURVE SMOOTH",
"311 725 OFFCURVE",
"223 687 OFFCURVE",
"161 622 CURVE SMOOTH",
"99 557 OFFCURVE",
"63 466 OFFCURVE",
"63 358 CURVE SMOOTH",
"63 251 OFFCURVE",
"99 159 OFFCURVE",
"161 95 CURVE SMOOTH",
"223 30 OFFCURVE",
"311 -8 OFFCURVE",
"416 -8 CURVE SMOOTH"
);
},
{
closed = 1;
nodes = (
"340 77 OFFCURVE",
"276 103 OFFCURVE",
"232 152 CURVE SMOOTH",
"187 200 OFFCURVE",
"162 270 OFFCURVE",
"162 358 CURVE SMOOTH",
"162 446 OFFCURVE",
"187 517 OFFCURVE",
"232 566 CURVE SMOOTH",
"276 614 OFFCURVE",
"340 641 OFFCURVE",
"416 641 CURVE SMOOTH",
"494 641 OFFCURVE",
"557 614 OFFCURVE",
"601 566 CURVE SMOOTH",
"645 517 OFFCURVE",
"670 446 OFFCURVE",
"670 358 CURVE SMOOTH",
"670 270 OFFCURVE",
"645 200 OFFCURVE",
"601 152 CURVE SMOOTH",
"557 103 OFFCURVE",
"494 77 OFFCURVE",
"416 77 CURVE SMOOTH"
);
},
{
closed = 1;
nodes = (
"520 772 OFFCURVE",
"542 785 OFFCURVE",
"558 806 CURVE SMOOTH",
"574 826 OFFCURVE",
"582 853 OFFCURVE",
"582 882 CURVE",
"527 882 LINE",
"527 870 OFFCURVE",
"523 857 OFFCURVE",
"515 848 CURVE SMOOTH",
"507 838 OFFCURVE",
"496 832 OFFCURVE",
"480 832 CURVE SMOOTH",
"462 832 OFFCURVE",
"444 845 OFFCURVE",
"424 858 CURVE SMOOTH",
"404 871 OFFCURVE",
"381 884 OFFCURVE",
"351 884 CURVE SMOOTH",
"321 884 OFFCURVE",
"299 871 OFFCURVE",
"283 851 CURVE SMOOTH",
"268 831 OFFCURVE",
"259 803 OFFCURVE",
"259 774 CURVE",
"315 774 LINE",
"315 786 OFFCURVE",
"319 799 OFFCURVE",
"327 809 CURVE SMOOTH",
"334 818 OFFCURVE",
"345 825 OFFCURVE",
"361 825 CURVE SMOOTH",
"379 825 OFFCURVE",
"397 812 OFFCURVE",
"417 799 CURVE SMOOTH",
"437 786 OFFCURVE",
"460 772 OFFCURVE",
"490 772 CURVE SMOOTH"
);
}
);
width = 833;
},
{
layerId = "A9E408DD-A955-440F-BEB6-B96F0772F152";
paths = (
{
closed = 1;
nodes = (
"529 -8 OFFCURVE",
"621 31 OFFCURVE",
"685 97 CURVE SMOOTH",
"749 163 OFFCURVE",
"785 256 OFFCURVE",
"785 362 CURVE SMOOTH",
"785 432 OFFCURVE",
"769 497 OFFCURVE",
"739 552 CURVE SMOOTH",
"709 606 OFFCURVE",
"666 652 OFFCURVE",
"612 683 CURVE SMOOTH",
"558 714 OFFCURVE",
"493 731 OFFCURVE",
"419 731 CURVE SMOOTH",
"310 731 OFFCURVE",
"218 692 OFFCURVE",
"154 626 CURVE SMOOTH",
"90 560 OFFCURVE",
"53 468 OFFCURVE",
"53 362 CURVE SMOOTH",
"53 256 OFFCURVE",
"90 163 OFFCURVE",
"154 97 CURVE SMOOTH",
"218 31 OFFCURVE",
"310 -8 OFFCURVE",
"419 -8 CURVE SMOOTH"
);
},
{
closed = 1;
nodes = (
"349 107 OFFCURVE",
"292 131 OFFCURVE",
"252 175 CURVE SMOOTH",
"212 219 OFFCURVE",
"190 282 OFFCURVE",
"190 362 CURVE SMOOTH",
"190 441 OFFCURVE",
"212 505 OFFCURVE",
"252 549 CURVE SMOOTH",
"292 593 OFFCURVE",
"349 617 OFFCURVE",
"419 617 CURVE SMOOTH",
"490 617 OFFCURVE",
"547 593 OFFCURVE",
"586 549 CURVE SMOOTH",
"626 505 OFFCURVE",
"648 441 OFFCURVE",
"648 362 CURVE SMOOTH",
"648 282 OFFCURVE",
"626 219 OFFCURVE",
"586 175 CURVE SMOOTH",
"547 131 OFFCURVE",
"490 107 OFFCURVE",
"419 107 CURVE SMOOTH"
);
},
{
closed = 1;
nodes = (
"531 770 OFFCURVE",
"557 785 OFFCURVE",
"575 809 CURVE SMOOTH",
"592 832 OFFCURVE",
"601 863 OFFCURVE",
"601 897 CURVE",
"526 897 LINE",
"526 886 OFFCURVE",
"523 875 OFFCURVE",
"516 866 CURVE SMOOTH",
"509 857 OFFCURVE",
"497 850 OFFCURVE",
"483 850 CURVE SMOOTH",
"465 850 OFFCURVE",
"448 863 OFFCURVE",
"428 875 CURVE SMOOTH",
"408 887 OFFCURVE",
"384 900 OFFCURVE",
"350 900 CURVE SMOOTH",
"316 900 OFFCURVE",
"291 885 OFFCURVE",
"273 861 CURVE SMOOTH",
"255 837 OFFCURVE",
"246 805 OFFCURVE",
"246 772 CURVE",
"322 772 LINE",
"322 783 OFFCURVE",
"326 795 OFFCURVE",
"332 804 CURVE SMOOTH",
"339 814 OFFCURVE",
"349 820 OFFCURVE",
"365 820 CURVE SMOOTH",
"374 820 OFFCURVE",
"383 818 OFFCURVE",
"391 812 CURVE SMOOTH",
"400 807 OFFCURVE",
"409 801 OFFCURVE",
"419 795 CURVE SMOOTH",
"440 783 OFFCURVE",
"464 770 OFFCURVE",
"498 770 CURVE SMOOTH"
);
}
);
width = 839;
}
);
leftKerningGroup = C;
note = Otilde;
rightKerningGroup = O;
unicode = 00D5;
},
{
glyphname = OE;
lastChange = "2026-06-19 17:27:37 +0000";
layers = (
{
layerId = "7DA69401-B8BB-4CEF-A33A-65E5ADA83450";
paths = (
{
closed = 1;
nodes = (
"453 -6 OFFCURVE",
"516 18 OFFCURVE",
"565 62 CURVE SMOOTH",
"613 105 OFFCURVE",
"647 169 OFFCURVE",
"663 249 CURVE",
"663 0 LINE",
"1071 0 LINE",
"1072 11 LINE",
"674 11 LINE",
"674 350 LINE",
"1011 350 LINE",
"1011 361 LINE",
"674 361 LINE",
"674 689 LINE",
"1071 689 LINE",
"1071 700 LINE",
"663 700 LINE",
"663 451 LINE",
"647 532 OFFCURVE",
"613 596 OFFCURVE",
"565 640 CURVE SMOOTH",
"516 684 OFFCURVE",
"453 708 OFFCURVE",
"379 708 CURVE SMOOTH",
"293 708 OFFCURVE",
"221 674 OFFCURVE",
"169 612 CURVE SMOOTH",
"118 550 OFFCURVE",
"88 460 OFFCURVE",
"88 350 CURVE SMOOTH",
"88 240 OFFCURVE",
"118 151 OFFCURVE",
"169 89 CURVE SMOOTH",
"221 28 OFFCURVE",
"293 -6 OFFCURVE",
"379 -6 CURVE SMOOTH"
);
},
{
closed = 1;
nodes = (
"299 4 OFFCURVE",
"229 36 OFFCURVE",
"179 96 CURVE SMOOTH",
"129 155 OFFCURVE",
"100 242 OFFCURVE",
"100 350 CURVE SMOOTH",
"100 459 OFFCURVE",
"129 546 OFFCURVE",
"179 606 CURVE SMOOTH",
"229 666 OFFCURVE",
"299 698 OFFCURVE",
"381 698 CURVE SMOOTH",
"463 698 OFFCURVE",
"534 666 OFFCURVE",
"584 606 CURVE SMOOTH",
"633 546 OFFCURVE",
"662 459 OFFCURVE",
"662 350 CURVE SMOOTH",
"662 242 OFFCURVE",
"633 155 OFFCURVE",
"584 96 CURVE SMOOTH",
"534 36 OFFCURVE",
"463 4 OFFCURVE",
"381 4 CURVE SMOOTH"
);
}
);
width = 1132;
},
{
layerId = "F36DCCA2-8A71-42CF-9609-F852DF368EC0";
paths = (
{
closed = 1;
nodes = (
"491 -7 OFFCURVE",
"577 40 OFFCURVE",
"633 120 CURVE",
"633 0 LINE",
"1063 0 LINE",
"1063 79 LINE",
"719 79 LINE",
"719 324 LINE",
"998 324 LINE",
"998 400 LINE",
"719 400 LINE",
"719 638 LINE",
"1063 638 LINE",
"1063 717 LINE",
"633 717 LINE",
"633 597 LINE",
"577 677 OFFCURVE",
"491 725 OFFCURVE",
"383 725 CURVE SMOOTH",
"289 725 OFFCURVE",
"209 687 OFFCURVE",
"153 622 CURVE SMOOTH",
"97 557 OFFCURVE",
"65 466 OFFCURVE",
"65 358 CURVE SMOOTH",
"65 251 OFFCURVE",
"97 159 OFFCURVE",
"153 95 CURVE SMOOTH",
"209 31 OFFCURVE",
"289 -7 OFFCURVE",
"383 -7 CURVE SMOOTH"
);
},
{
closed = 1;
nodes = (
"324 74 OFFCURVE",
"267 101 OFFCURVE",
"227 150 CURVE SMOOTH",
"187 199 OFFCURVE",
"164 270 OFFCURVE",
"164 358 CURVE SMOOTH",
"164 446 OFFCURVE",
"187 517 OFFCURVE",
"227 567 CURVE SMOOTH",
"267 616 OFFCURVE",
"324 643 OFFCURVE",
"394 643 CURVE SMOOTH",
"463 643 OFFCURVE",
"520 616 OFFCURVE",
"560 567 CURVE SMOOTH",
"600 517 OFFCURVE",
"622 446 OFFCURVE",
"622 358 CURVE SMOOTH",
"622 270 OFFCURVE",
"600 199 OFFCURVE",
"560 150 CURVE SMOOTH",
"520 101 OFFCURVE",
"463 74 OFFCURVE",
"394 74 CURVE SMOOTH"
);
}
);
width = 1119;
},
{
layerId = "A9E408DD-A955-440F-BEB6-B96F0772F152";
paths = (
{
closed = 1;
nodes = (
"482 -8 OFFCURVE",
"562 30 OFFCURVE",
"619 93 CURVE",
"619 0 LINE",
"1059 0 LINE",
"1059 108 LINE",
"738 108 LINE",
"738 312 LINE",
"991 312 LINE",
"991 416 LINE",
"738 416 LINE",
"738 616 LINE",
"1059 616 LINE",
"1059 723 LINE",
"619 723 LINE",
"619 630 LINE",
"562 694 OFFCURVE",
"482 731 OFFCURVE",
"385 731 CURVE SMOOTH",
"286 731 OFFCURVE",
"204 692 OFFCURVE",
"146 626 CURVE SMOOTH",
"88 560 OFFCURVE",
"55 468 OFFCURVE",
"55 362 CURVE SMOOTH",
"55 256 OFFCURVE",
"88 163 OFFCURVE",
"146 98 CURVE SMOOTH",
"204 32 OFFCURVE",
"286 -8 OFFCURVE",
"385 -8 CURVE SMOOTH"
);
},
{
closed = 1;
nodes = (
"335 104 OFFCURVE",
"283 129 OFFCURVE",
"248 173 CURVE SMOOTH",
"212 218 OFFCURVE",
"193 282 OFFCURVE",
"193 362 CURVE SMOOTH",
"193 441 OFFCURVE",
"212 506 OFFCURVE",
"248 551 CURVE SMOOTH",
"283 596 OFFCURVE",
"335 620 OFFCURVE",
"399 620 CURVE SMOOTH",
"462 620 OFFCURVE",
"513 596 OFFCURVE",
"549 551 CURVE SMOOTH",
"584 506 OFFCURVE",
"603 441 OFFCURVE",
"603 362 CURVE SMOOTH",
"603 282 OFFCURVE",
"584 218 OFFCURVE",
"549 173 CURVE SMOOTH",
"513 129 OFFCURVE",
"462 104 OFFCURVE",
"399 104 CURVE SMOOTH"
);
}
);
width = 1113;
}
);
leftKerningGroup = C;
note = OE;
rightKerningGroup = AE;
unicode = 0152;
},
{
glyphname = P;
lastChange = "2026-06-19 17:27:37 +0000";
layers = (
{
layerId = "7DA69401-B8BB-4CEF-A33A-65E5ADA83450";
paths = (
{
closed = 1;
nodes = (
"140 0 LINE",
"140 300 LINE",
"286 300 LINE SMOOTH",
"356 300 OFFCURVE",
"415 321 OFFCURVE",
"457 357 CURVE SMOOTH",
"499 392 OFFCURVE",
"523 442 OFFCURVE",
"523 500 CURVE SMOOTH",
"523 635 OFFCURVE",
"439 700 OFFCURVE",
"286 700 CURVE SMOOTH",
"128 700 LINE",
"128 0 LINE"
);
},
{
closed = 1;
nodes = (
"140 690 LINE",
"286 690 LINE SMOOTH",
"436 690 OFFCURVE",
"511 625 OFFCURVE",
"511 500 CURVE SMOOTH",
"511 447 OFFCURVE",
"489 400 OFFCURVE",
"450 366 CURVE SMOOTH",
"411 331 OFFCURVE",
"355 310 OFFCURVE",
"286 310 CURVE SMOOTH",
"140 310 LINE"
);
}
);
width = 595;
},
{
layerId = "F36DCCA2-8A71-42CF-9609-F852DF368EC0";
paths = (
{
closed = 1;
nodes = (
"205 0 LINE",
"205 268 LINE",
"320 268 LINE SMOOTH",
"407 268 OFFCURVE",
"474 292 OFFCURVE",
"519 332 CURVE SMOOTH",
"564 372 OFFCURVE",
"587 428 OFFCURVE",
"587 495 CURVE SMOOTH",
"587 562 OFFCURVE",
"566 618 OFFCURVE",
"522 656 CURVE SMOOTH",
"478 695 OFFCURVE",
"411 717 OFFCURVE",
"320 717 CURVE SMOOTH",
"109 717 LINE",
"109 0 LINE"
);
},
{
closed = 1;
nodes = (
"205 640 LINE",
"320 640 LINE SMOOTH",
"435 640 OFFCURVE",
"491 586 OFFCURVE",
"491 495 CURVE SMOOTH",
"491 451 OFFCURVE",
"476 413 OFFCURVE",
"447 387 CURVE SMOOTH",
"418 361 OFFCURVE",
"376 345 OFFCURVE",
"320 345 CURVE SMOOTH",
"205 345 LINE"
);
}
);
width = 640;
},
{
layerId = "A9E408DD-A955-440F-BEB6-B96F0772F152";
paths = (
{
closed = 1;
nodes = (
"234 0 LINE",
"234 255 LINE",
"335 255 LINE SMOOTH",
"429 255 OFFCURVE",
"499 279 OFFCURVE",
"546 321 CURVE SMOOTH",
"592 363 OFFCURVE",
"616 423 OFFCURVE",
"616 493 CURVE SMOOTH",
"616 560 OFFCURVE",
"594 618 OFFCURVE",
"548 659 CURVE SMOOTH",
"502 699 OFFCURVE",
"431 723 OFFCURVE",
"335 723 CURVE SMOOTH",
"100 723 LINE",
"100 0 LINE"
);
},
{
closed = 1;
nodes = (
"234 619 LINE",
"335 619 LINE SMOOTH",
"385 619 OFFCURVE",
"421 607 OFFCURVE",
"445 585 CURVE SMOOTH",
"469 563 OFFCURVE",
"481 531 OFFCURVE",
"481 493 CURVE SMOOTH",
"481 452 OFFCURVE",
"469 419 OFFCURVE",
"445 396 CURVE SMOOTH",
"421 373 OFFCURVE",
"384 360 OFFCURVE",
"335 360 CURVE SMOOTH",
"234 360 LINE"
);
}
);
width = 660;
}
);
leftKerningGroup = B;
note = P;
rightKerningGroup = P;
unicode = 0050;
},
{
glyphname = Thorn;
lastChange = "2026-06-19 17:27:37 +0000";
layers = (
{
layerId = "7DA69401-B8BB-4CEF-A33A-65E5ADA83450";
paths = (
{
closed = 1;
nodes = (
"140 0 LINE",
"140 149 LINE",
"286 149 LINE SMOOTH",
"356 149 OFFCURVE",
"415 170 OFFCURVE",
"457 206 CURVE SMOOTH",
"499 241 OFFCURVE",
"523 291 OFFCURVE",
"523 349 CURVE SMOOTH",
"523 484 OFFCURVE",
"439 549 OFFCURVE",
"286 549 CURVE SMOOTH",
"140 549 LINE",
"140 700 LINE",
"128 700 LINE",
"128 0 LINE"
);
},
{
closed = 1;
nodes = (
"140 539 LINE",
"286 539 LINE SMOOTH",
"436 539 OFFCURVE",
"511 474 OFFCURVE",
"511 349 CURVE SMOOTH",
"511 296 OFFCURVE",
"489 249 OFFCURVE",
"450 215 CURVE SMOOTH",
"411 180 OFFCURVE",
"355 159 OFFCURVE",
"286 159 CURVE SMOOTH",
"140 159 LINE"
);
}
);
width = 595;
},
{
layerId = "F36DCCA2-8A71-42CF-9609-F852DF368EC0";
paths = (
{
closed = 1;
nodes = (
"205 0 LINE",
"205 136 LINE",
"320 136 LINE SMOOTH",
"407 136 OFFCURVE",
"474 160 OFFCURVE",
"519 200 CURVE SMOOTH",
"564 240 OFFCURVE",
"587 296 OFFCURVE",
"587 363 CURVE SMOOTH",
"587 430 OFFCURVE",
"566 486 OFFCURVE",
"522 524 CURVE SMOOTH",
"478 563 OFFCURVE",
"411 585 OFFCURVE",
"320 585 CURVE SMOOTH",
"205 585 LINE",
"205 717 LINE",
"109 717 LINE",
"109 0 LINE"
);
},
{
closed = 1;
nodes = (
"205 508 LINE",
"320 508 LINE SMOOTH",
"435 508 OFFCURVE",
"491 454 OFFCURVE",
"491 363 CURVE SMOOTH",
"491 319 OFFCURVE",
"476 281 OFFCURVE",
"447 255 CURVE SMOOTH",
"418 229 OFFCURVE",
"376 213 OFFCURVE",
"320 213 CURVE SMOOTH",
"205 213 LINE"
);
}
);
width = 640;
},
{
layerId = "A9E408DD-A955-440F-BEB6-B96F0772F152";
paths = (
{
closed = 1;
nodes = (
"234 0 LINE",
"234 131 LINE",
"335 131 LINE SMOOTH",
"429 131 OFFCURVE",
"499 155 OFFCURVE",
"546 197 CURVE SMOOTH",
"592 239 OFFCURVE",
"616 299 OFFCURVE",
"616 369 CURVE SMOOTH",
"616 436 OFFCURVE",
"594 494 OFFCURVE",
"548 535 CURVE SMOOTH",
"502 575 OFFCURVE",
"431 599 OFFCURVE",
"335 599 CURVE SMOOTH",
"234 599 LINE",
"234 723 LINE",
"100 723 LINE",
"100 0 LINE"
);
},
{
closed = 1;
nodes = (
"234 495 LINE",
"335 495 LINE SMOOTH",
"385 495 OFFCURVE",
"421 483 OFFCURVE",
"445 461 CURVE SMOOTH",
"469 439 OFFCURVE",
"481 407 OFFCURVE",
"481 369 CURVE SMOOTH",
"481 328 OFFCURVE",
"469 295 OFFCURVE",
"445 272 CURVE SMOOTH",
"421 249 OFFCURVE",
"384 236 OFFCURVE",
"335 236 CURVE SMOOTH",
"234 236 LINE"
);
}
);
width = 660;
}
);
leftKerningGroup = B;
note = Thorn;
unicode = 00DE;
},
{
glyphname = Q;
lastChange = "2026-06-19 17:27:37 +0000";
layers = (
{
layerId = "7DA69401-B8BB-4CEF-A33A-65E5ADA83450";
paths = (
{
closed = 1;
nodes = (
"758 -163 LINE",
"572 33 LINE",
"622 61 OFFCURVE",
"662 103 OFFCURVE",
"690 157 CURVE SMOOTH",
"718 210 OFFCURVE",
"733 275 OFFCURVE",
"733 350 CURVE SMOOTH",
"733 461 OFFCURVE",
"700 550 OFFCURVE",
"643 612 CURVE SMOOTH",
"586 674 OFFCURVE",
"505 708 OFFCURVE",
"409 708 CURVE SMOOTH",
"313 708 OFFCURVE",
"233 674 OFFCURVE",
"176 612 CURVE SMOOTH",
"119 550 OFFCURVE",
"86 460 OFFCURVE",
"86 350 CURVE SMOOTH",
"86 240 OFFCURVE",
"119 151 OFFCURVE",
"176 89 CURVE SMOOTH",
"233 27 OFFCURVE",
"313 -7 OFFCURVE",
"409 -7 CURVE SMOOTH",
"466 -7 OFFCURVE",
"517 5 OFFCURVE",
"562 28 CURVE",
"737 -159 LINE SMOOTH",
"739 -161 OFFCURVE",
"741 -163 OFFCURVE",
"747 -163 CURVE SMOOTH"
);
},
{
closed = 1;
nodes = (
"318 3 OFFCURVE",
"241 36 OFFCURVE",
"186 96 CURVE SMOOTH",
"131 155 OFFCURVE",
"98 242 OFFCURVE",
"98 350 CURVE SMOOTH",
"98 459 OFFCURVE",
"131 546 OFFCURVE",
"186 606 CURVE SMOOTH",
"241 666 OFFCURVE",
"318 698 OFFCURVE",
"409 698 CURVE SMOOTH",
"501 698 OFFCURVE",
"579 666 OFFCURVE",
"633 606 CURVE SMOOTH",
"688 546 OFFCURVE",
"720 459 OFFCURVE",
"720 350 CURVE SMOOTH",
"720 242 OFFCURVE",
"688 155 OFFCURVE",
"633 96 CURVE SMOOTH",
"579 36 OFFCURVE",
"501 3 OFFCURVE",
"409 3 CURVE SMOOTH"
);
}
);
width = 823;
},
{
layerId = "F36DCCA2-8A71-42CF-9609-F852DF368EC0";
paths = (
{
closed = 1;
nodes = (
"802 -148 LINE",
"619 51 LINE",
"665 82 OFFCURVE",
"703 125 OFFCURVE",
"729 178 CURVE SMOOTH",
"755 230 OFFCURVE",
"769 291 OFFCURVE",
"769 358 CURVE SMOOTH",
"769 466 OFFCURVE",
"734 557 OFFCURVE",
"672 622 CURVE SMOOTH",
"610 687 OFFCURVE",
"521 725 OFFCURVE",
"416 725 CURVE SMOOTH",
"310 725 OFFCURVE",
"222 687 OFFCURVE",
"160 622 CURVE SMOOTH",
"98 557 OFFCURVE",
"63 466 OFFCURVE",
"63 358 CURVE SMOOTH",
"63 251 OFFCURVE",
"98 159 OFFCURVE",
"160 95 CURVE SMOOTH",
"222 30 OFFCURVE",
"310 -8 OFFCURVE",
"416 -8 CURVE SMOOTH",
"460 -8 OFFCURVE",
"501 -1 OFFCURVE",
"539 12 CURVE",
"665 -126 LINE SMOOTH",
"680 -142 OFFCURVE",
"698 -148 OFFCURVE",
"722 -148 CURVE SMOOTH"
);
},
{
closed = 1;
nodes = (
"339 77 OFFCURVE",
"275 103 OFFCURVE",
"231 152 CURVE SMOOTH",
"187 200 OFFCURVE",
"162 270 OFFCURVE",
"162 358 CURVE SMOOTH",
"162 446 OFFCURVE",
"187 517 OFFCURVE",
"231 566 CURVE SMOOTH",
"275 614 OFFCURVE",
"339 641 OFFCURVE",
"416 641 CURVE SMOOTH",
"493 641 OFFCURVE",
"557 614 OFFCURVE",
"601 566 CURVE SMOOTH",
"645 517 OFFCURVE",
"670 446 OFFCURVE",
"670 358 CURVE SMOOTH",
"670 270 OFFCURVE",
"645 200 OFFCURVE",
"601 152 CURVE SMOOTH",
"557 103 OFFCURVE",
"493 77 OFFCURVE",
"416 77 CURVE SMOOTH"
);
}
);
width = 836;
},
{
layerId = "A9E408DD-A955-440F-BEB6-B96F0772F152";
paths = (
{
closed = 1;
nodes = (
"823 -142 LINE",
"640 59 LINE",
"686 91 OFFCURVE",
"722 135 OFFCURVE",
"747 186 CURVE SMOOTH",
"772 238 OFFCURVE",
"786 297 OFFCURVE",
"786 362 CURVE SMOOTH",
"786 432 OFFCURVE",
"770 497 OFFCURVE",
"740 552 CURVE SMOOTH",
"710 606 OFFCURVE",
"666 652 OFFCURVE",
"612 683 CURVE SMOOTH",
"558 714 OFFCURVE",
"493 731 OFFCURVE",
"420 731 CURVE SMOOTH",
"310 731 OFFCURVE",
"219 692 OFFCURVE",
"155 626 CURVE SMOOTH",
"90 560 OFFCURVE",
"53 468 OFFCURVE",
"53 362 CURVE SMOOTH",
"53 256 OFFCURVE",
"90 163 OFFCURVE",
"155 97 CURVE SMOOTH",
"219 31 OFFCURVE",
"310 -8 OFFCURVE",
"420 -8 CURVE SMOOTH",
"458 -8 OFFCURVE",
"494 -4 OFFCURVE",
"528 6 CURVE",
"634 -111 LINE SMOOTH",
"655 -135 OFFCURVE",
"680 -142 OFFCURVE",
"712 -142 CURVE SMOOTH"
);
},
{
closed = 1;
nodes = (
"349 107 OFFCURVE",
"292 131 OFFCURVE",
"253 175 CURVE SMOOTH",
"213 219 OFFCURVE",
"191 282 OFFCURVE",
"191 362 CURVE SMOOTH",
"191 441 OFFCURVE",
"213 505 OFFCURVE",
"253 549 CURVE SMOOTH",
"292 593 OFFCURVE",
"349 617 OFFCURVE",
"420 617 CURVE SMOOTH",
"490 617 OFFCURVE",
"547 593 OFFCURVE",
"587 549 CURVE SMOOTH",
"626 505 OFFCURVE",
"648 441 OFFCURVE",
"648 362 CURVE SMOOTH",
"648 282 OFFCURVE",
"626 219 OFFCURVE",
"587 175 CURVE SMOOTH",
"547 131 OFFCURVE",
"490 107 OFFCURVE",
"420 107 CURVE SMOOTH"
);
}
);
width = 844;
}
);
leftKerningGroup = C;
note = Q;
rightKerningGroup = O;
unicode = 0051;
},
{
glyphname = R;
lastChange = "2026-06-19 17:27:37 +0000";
layers = (
{
layerId = "7DA69401-B8BB-4CEF-A33A-65E5ADA83450";
paths = (
{
closed = 1;
nodes = (
"140 0 LINE",
"140 338 LINE",
"249 338 LINE SMOOTH",
"263 338 OFFCURVE",
"273 338 OFFCURVE",
"280 335 CURVE SMOOTH",
"287 332 OFFCURVE",
"292 327 OFFCURVE",
"297 320 CURVE SMOOTH",
"559 6 LINE",
"565 0 OFFCURVE",
"567 0 OFFCURVE",
"572 0 CURVE SMOOTH",
"580 0 LINE",
"307 325 LINE",
"302 331 OFFCURVE",
"297 336 OFFCURVE",
"290 338 CURVE",
"358 340 OFFCURVE",
"414 358 OFFCURVE",
"454 390 CURVE SMOOTH",
"494 422 OFFCURVE",
"517 469 OFFCURVE",
"517 525 CURVE SMOOTH",
"517 645 OFFCURVE",
"436 700 OFFCURVE",
"290 700 CURVE SMOOTH",
"128 700 LINE",
"128 0 LINE"
);
},
{
closed = 1;
nodes = (
"140 690 LINE",
"290 690 LINE SMOOTH",
"429 690 OFFCURVE",
"505 639 OFFCURVE",
"505 525 CURVE SMOOTH",
"505 470 OFFCURVE",
"484 426 OFFCURVE",
"445 396 CURVE SMOOTH",
"406 365 OFFCURVE",
"350 348 OFFCURVE",
"281 348 CURVE SMOOTH",
"140 348 LINE"
);
}
);
width = 637;
},
{
layerId = "F36DCCA2-8A71-42CF-9609-F852DF368EC0";
paths = (
{
closed = 1;
nodes = (
"205 0 LINE",
"205 299 LINE",
"279 299 LINE SMOOTH",
"306 299 OFFCURVE",
"316 293 OFFCURVE",
"327 277 CURVE SMOOTH",
"513 21 LINE",
"522 7 OFFCURVE",
"535 0 OFFCURVE",
"552 0 CURVE SMOOTH",
"638 0 LINE",
"429 285 LINE",
"420 298 OFFCURVE",
"410 308 OFFCURVE",
"397 315 CURVE",
"453 328 OFFCURVE",
"497 353 OFFCURVE",
"527 388 CURVE SMOOTH",
"557 423 OFFCURVE",
"574 468 OFFCURVE",
"574 518 CURVE SMOOTH",
"574 579 OFFCURVE",
"554 629 OFFCURVE",
"511 663 CURVE SMOOTH",
"468 698 OFFCURVE",
"402 717 OFFCURVE",
"311 717 CURVE SMOOTH",
"109 717 LINE",
"109 0 LINE"
);
},
{
closed = 1;
nodes = (
"205 640 LINE",
"311 640 LINE SMOOTH",
"423 640 OFFCURVE",
"479 597 OFFCURVE",
"479 511 CURVE SMOOTH",
"479 469 OFFCURVE",
"465 434 OFFCURVE",
"436 409 CURVE SMOOTH",
"407 384 OFFCURVE",
"363 370 OFFCURVE",
"307 370 CURVE SMOOTH",
"205 370 LINE"
);
}
);
width = 675;
},
{
layerId = "A9E408DD-A955-440F-BEB6-B96F0772F152";
paths = (
{
closed = 1;
nodes = (
"234 0 LINE",
"234 283 LINE",
"292 283 LINE SMOOTH",
"318 283 OFFCURVE",
"329 276 OFFCURVE",
"341 259 CURVE SMOOTH",
"493 27 LINE",
"503 9 OFFCURVE",
"520 0 OFFCURVE",
"543 0 CURVE SMOOTH",
"664 0 LINE",
"483 267 LINE SMOOTH",
"471 286 OFFCURVE",
"457 299 OFFCURVE",
"439 309 CURVE",
"490 325 OFFCURVE",
"530 352 OFFCURVE",
"557 387 CURVE SMOOTH",
"584 423 OFFCURVE",
"599 467 OFFCURVE",
"599 515 CURVE SMOOTH",
"599 577 OFFCURVE",
"578 629 OFFCURVE",
"533 665 CURVE SMOOTH",
"488 702 OFFCURVE",
"418 723 OFFCURVE",
"320 723 CURVE SMOOTH",
"100 723 LINE",
"100 0 LINE"
);
},
{
closed = 1;
nodes = (
"234 619 LINE",
"320 619 LINE SMOOTH",
"420 619 OFFCURVE",
"467 579 OFFCURVE",
"467 505 CURVE SMOOTH",
"467 469 OFFCURVE",
"455 437 OFFCURVE",
"431 415 CURVE SMOOTH",
"407 393 OFFCURVE",
"369 379 OFFCURVE",
"318 379 CURVE SMOOTH",
"234 379 LINE"
);
}
);
width = 692;
}
);
leftKerningGroup = B;
note = R;
rightKerningGroup = R;
unicode = 0052;
},
{
glyphname = S;
lastChange = "2026-06-19 17:27:37 +0000";
layers = (
{
layerId = "7DA69401-B8BB-4CEF-A33A-65E5ADA83450";
paths = (
{
closed = 1;
nodes = (
"329 -8 OFFCURVE",
"383 15 OFFCURVE",
"420 52 CURVE SMOOTH",
"456 89 OFFCURVE",
"476 140 OFFCURVE",
"476 197 CURVE SMOOTH",
"476 254 OFFCURVE",
"453 290 OFFCURVE",
"419 316 CURVE SMOOTH",
"385 341 OFFCURVE",
"339 356 OFFCURVE",
"294 371 CURVE SMOOTH",
"248 386 OFFCURVE",
"202 401 OFFCURVE",
"168 425 CURVE SMOOTH",
"134 450 OFFCURVE",
"111 484 OFFCURVE",
"111 538 CURVE SMOOTH",
"111 580 OFFCURVE",
"127 620 OFFCURVE",
"157 650 CURVE SMOOTH",
"187 679 OFFCURVE",
"232 698 OFFCURVE",
"289 698 CURVE SMOOTH",
"308 698 OFFCURVE",
"324 697 OFFCURVE",
"339 694 CURVE SMOOTH",
"367 687 OFFCURVE",
"389 677 OFFCURVE",
"405 666 CURVE SMOOTH",
"421 654 OFFCURVE",
"431 644 OFFCURVE",
"438 638 CURVE",
"441 635 OFFCURVE",
"444 633 OFFCURVE",
"446 633 CURVE SMOOTH",
"449 633 OFFCURVE",
"450 634 OFFCURVE",
"451 636 CURVE",
"453 639 LINE",
"407 687 OFFCURVE",
"357 708 OFFCURVE",
"289 708 CURVE SMOOTH",
"229 708 OFFCURVE",
"181 688 OFFCURVE",
"149 657 CURVE SMOOTH",
"117 625 OFFCURVE",
"100 583 OFFCURVE",
"100 538 CURVE SMOOTH",
"100 515 OFFCURVE",
"104 495 OFFCURVE",
"111 479 CURVE SMOOTH",
"124 445 OFFCURVE",
"148 421 OFFCURVE",
"179 404 CURVE SMOOTH",
"210 387 OFFCURVE",
"246 374 OFFCURVE",
"283 363 CURVE SMOOTH",
"301 358 OFFCURVE",
"319 352 OFFCURVE",
"337 345 CURVE SMOOTH",
"372 332 OFFCURVE",
"404 317 OFFCURVE",
"427 294 CURVE SMOOTH",
"451 271 OFFCURVE",
"465 239 OFFCURVE",
"465 195 CURVE SMOOTH",
"465 143 OFFCURVE",
"447 95 OFFCURVE",
"412 60 CURVE SMOOTH",
"377 25 OFFCURVE",
"326 2 OFFCURVE",
"261 2 CURVE SMOOTH",
"239 2 OFFCURVE",
"220 4 OFFCURVE",
"203 9 CURVE SMOOTH",
"168 17 OFFCURVE",
"141 31 OFFCURVE",
"123 45 CURVE SMOOTH",
"104 60 OFFCURVE",
"91 74 OFFCURVE",
"83 82 CURVE",
"79 86 OFFCURVE",
"76 88 OFFCURVE",
"74 88 CURVE SMOOTH",
"71 88 OFFCURVE",
"70 87 OFFCURVE",
"68 85 CURVE SMOOTH",
"66 83 LINE",
"90 55 OFFCURVE",
"116 32 OFFCURVE",
"147 17 CURVE SMOOTH",
"178 1 OFFCURVE",
"214 -8 OFFCURVE",
"261 -8 CURVE SMOOTH"
);
}
);
width = 551;
},
{
layerId = "F36DCCA2-8A71-42CF-9609-F852DF368EC0";
paths = (
{
closed = 1;
nodes = (
"350 -8 OFFCURVE",
"410 17 OFFCURVE",
"451 58 CURVE SMOOTH",
"492 98 OFFCURVE",
"514 155 OFFCURVE",
"514 218 CURVE SMOOTH",
"514 247 OFFCURVE",
"509 272 OFFCURVE",
"499 293 CURVE SMOOTH",
"479 333 OFFCURVE",
"446 361 OFFCURVE",
"405 379 CURVE SMOOTH",
"364 397 OFFCURVE",
"320 411 OFFCURVE",
"279 425 CURVE SMOOTH",
"259 432 OFFCURVE",
"240 440 OFFCURVE",
"224 449 CURVE SMOOTH",
"192 468 OFFCURVE",
"170 493 OFFCURVE",
"170 533 CURVE SMOOTH",
"170 564 OFFCURVE",
"182 592 OFFCURVE",
"204 612 CURVE SMOOTH",
"226 632 OFFCURVE",
"259 644 OFFCURVE",
"303 644 CURVE SMOOTH",
"326 644 OFFCURVE",
"345 641 OFFCURVE",
"362 636 CURVE SMOOTH",
"394 624 OFFCURVE",
"416 610 OFFCURVE",
"432 598 CURVE SMOOTH",
"439 593 OFFCURVE",
"446 590 OFFCURVE",
"452 590 CURVE SMOOTH",
"462 590 OFFCURVE",
"468 595 OFFCURVE",
"474 605 CURVE",
"498 651 LINE",
"448 699 OFFCURVE",
"382 725 OFFCURVE",
"302 725 CURVE SMOOTH",
"230 725 OFFCURVE",
"175 701 OFFCURVE",
"138 664 CURVE SMOOTH",
"100 628 OFFCURVE",
"80 578 OFFCURVE",
"80 528 CURVE SMOOTH",
"80 496 OFFCURVE",
"85 470 OFFCURVE",
"95 448 CURVE SMOOTH",
"114 405 OFFCURVE",
"147 377 OFFCURVE",
"188 359 CURVE SMOOTH",
"230 341 OFFCURVE",
"273 329 OFFCURVE",
"314 316 CURVE SMOOTH",
"335 309 OFFCURVE",
"353 301 OFFCURVE",
"369 292 CURVE SMOOTH",
"401 273 OFFCURVE",
"423 247 OFFCURVE",
"423 204 CURVE SMOOTH",
"423 164 OFFCURVE",
"409 132 OFFCURVE",
"384 109 CURVE SMOOTH",
"359 86 OFFCURVE",
"323 73 OFFCURVE",
"277 73 CURVE SMOOTH",
"240 73 OFFCURVE",
"211 81 OFFCURVE",
"188 91 CURVE SMOOTH",
"165 102 OFFCURVE",
"147 116 OFFCURVE",
"133 126 CURVE SMOOTH",
"119 137 OFFCURVE",
"108 145 OFFCURVE",
"100 145 CURVE SMOOTH",
"90 145 OFFCURVE",
"83 139 OFFCURVE",
"77 132 CURVE",
"49 86 LINE",
"103 28 OFFCURVE",
"180 -8 OFFCURVE",
"274 -8 CURVE SMOOTH"
);
}
);
width = 573;
},
{
layerId = "A9E408DD-A955-440F-BEB6-B96F0772F152";
paths = (
{
closed = 1;
nodes = (
"359 -8 OFFCURVE",
"422 18 OFFCURVE",
"465 61 CURVE SMOOTH",
"508 103 OFFCURVE",
"530 161 OFFCURVE",
"530 227 CURVE SMOOTH",
"530 257 OFFCURVE",
"526 282 OFFCURVE",
"516 303 CURVE SMOOTH",
"497 345 OFFCURVE",
"465 374 OFFCURVE",
"425 393 CURVE SMOOTH",
"385 412 OFFCURVE",
"342 425 OFFCURVE",
"302 438 CURVE SMOOTH",
"282 444 OFFCURVE",
"264 451 OFFCURVE",
"248 459 CURVE SMOOTH",
"217 475 OFFCURVE",
"196 497 OFFCURVE",
"196 531 CURVE SMOOTH",
"196 557 OFFCURVE",
"206 580 OFFCURVE",
"225 596 CURVE SMOOTH",
"244 612 OFFCURVE",
"271 622 OFFCURVE",
"309 622 CURVE SMOOTH",
"329 622 OFFCURVE",
"347 619 OFFCURVE",
"363 614 CURVE SMOOTH",
"393 604 OFFCURVE",
"415 590 OFFCURVE",
"432 580 CURVE",
"440 574 OFFCURVE",
"447 572 OFFCURVE",
"454 572 CURVE SMOOTH",
"468 572 OFFCURVE",
"476 578 OFFCURVE",
"484 592 CURVE SMOOTH",
"517 655 LINE",
"467 703 OFFCURVE",
"393 731 OFFCURVE",
"307 731 CURVE SMOOTH",
"231 731 OFFCURVE",
"172 706 OFFCURVE",
"132 667 CURVE SMOOTH",
"92 629 OFFCURVE",
"71 576 OFFCURVE",
"71 524 CURVE SMOOTH",
"71 491 OFFCURVE",
"76 463 OFFCURVE",
"85 441 CURVE SMOOTH",
"104 396 OFFCURVE",
"136 366 OFFCURVE",
"176 348 CURVE SMOOTH",
"216 329 OFFCURVE",
"258 317 OFFCURVE",
"298 305 CURVE SMOOTH",
"318 300 OFFCURVE",
"336 293 OFFCURVE",
"352 285 CURVE SMOOTH",
"383 268 OFFCURVE",
"404 246 OFFCURVE",
"404 208 CURVE SMOOTH",
"404 140 OFFCURVE",
"360 102 OFFCURVE",
"283 102 CURVE SMOOTH",
"258 102 OFFCURVE",
"237 106 OFFCURVE",
"219 113 CURVE SMOOTH",
"183 126 OFFCURVE",
"157 144 OFFCURVE",
"138 158 CURVE SMOOTH",
"128 165 OFFCURVE",
"119 168 OFFCURVE",
"111 168 CURVE SMOOTH",
"99 168 OFFCURVE",
"87 161 OFFCURVE",
"81 152 CURVE",
"41 87 LINE",
"69 59 OFFCURVE",
"106 35 OFFCURVE",
"147 18 CURVE SMOOTH",
"188 2 OFFCURVE",
"233 -8 OFFCURVE",
"279 -8 CURVE SMOOTH"
);
}
);
width = 582;
}
);
leftKerningGroup = S;
note = S;
rightKerningGroup = S;
unicode = 0053;
},
{
glyphname = Scaron;
lastChange = "2026-06-19 17:27:37 +0000";
layers = (
{
layerId = "7DA69401-B8BB-4CEF-A33A-65E5ADA83450";
paths = (
{
closed = 1;
nodes = (
"329 -8 OFFCURVE",
"383 15 OFFCURVE",
"420 52 CURVE SMOOTH",
"456 89 OFFCURVE",
"476 140 OFFCURVE",
"476 197 CURVE SMOOTH",
"476 254 OFFCURVE",
"453 290 OFFCURVE",
"419 316 CURVE SMOOTH",
"385 341 OFFCURVE",
"339 356 OFFCURVE",
"294 371 CURVE SMOOTH",
"248 386 OFFCURVE",
"202 401 OFFCURVE",
"168 425 CURVE SMOOTH",
"134 450 OFFCURVE",
"111 484 OFFCURVE",
"111 538 CURVE SMOOTH",
"111 580 OFFCURVE",
"127 620 OFFCURVE",
"157 650 CURVE SMOOTH",
"187 679 OFFCURVE",
"232 698 OFFCURVE",
"289 698 CURVE SMOOTH",
"308 698 OFFCURVE",
"324 697 OFFCURVE",
"339 694 CURVE SMOOTH",
"367 687 OFFCURVE",
"389 677 OFFCURVE",
"405 666 CURVE SMOOTH",
"421 654 OFFCURVE",
"431 644 OFFCURVE",
"438 638 CURVE",
"441 635 OFFCURVE",
"444 633 OFFCURVE",
"446 633 CURVE SMOOTH",
"449 633 OFFCURVE",
"450 634 OFFCURVE",
"451 636 CURVE",
"453 639 LINE",
"407 687 OFFCURVE",
"357 708 OFFCURVE",
"289 708 CURVE SMOOTH",
"229 708 OFFCURVE",
"181 688 OFFCURVE",
"149 657 CURVE SMOOTH",
"117 625 OFFCURVE",
"100 583 OFFCURVE",
"100 538 CURVE SMOOTH",
"100 515 OFFCURVE",
"104 495 OFFCURVE",
"111 479 CURVE SMOOTH",
"124 445 OFFCURVE",
"148 421 OFFCURVE",
"179 404 CURVE SMOOTH",
"210 387 OFFCURVE",
"246 374 OFFCURVE",
"283 363 CURVE SMOOTH",
"301 358 OFFCURVE",
"319 352 OFFCURVE",
"337 345 CURVE SMOOTH",
"372 332 OFFCURVE",
"404 317 OFFCURVE",
"427 294 CURVE SMOOTH",
"451 271 OFFCURVE",
"465 239 OFFCURVE",
"465 195 CURVE SMOOTH",
"465 143 OFFCURVE",
"447 95 OFFCURVE",
"412 60 CURVE SMOOTH",
"377 25 OFFCURVE",
"326 2 OFFCURVE",
"261 2 CURVE SMOOTH",
"239 2 OFFCURVE",
"220 4 OFFCURVE",
"203 9 CURVE SMOOTH",
"168 17 OFFCURVE",
"141 31 OFFCURVE",
"123 45 CURVE SMOOTH",
"104 60 OFFCURVE",
"91 74 OFFCURVE",
"83 82 CURVE",
"79 86 OFFCURVE",
"76 88 OFFCURVE",
"74 88 CURVE SMOOTH",
"71 88 OFFCURVE",
"70 87 OFFCURVE",
"68 85 CURVE SMOOTH",
"66 83 LINE",
"90 55 OFFCURVE",
"116 32 OFFCURVE",
"147 17 CURVE SMOOTH",
"178 1 OFFCURVE",
"214 -8 OFFCURVE",
"261 -8 CURVE SMOOTH"
);
},
{
closed = 1;
nodes = (
"304 769 LINE",
"420 901 LINE",
"410 901 LINE SMOOTH",
"406 901 OFFCURVE",
"403 901 OFFCURVE",
"400 897 CURVE",
"302 780 LINE",
"300 777 LINE",
"298 780 LINE",
"200 897 LINE",
"196 901 OFFCURVE",
"193 901 OFFCURVE",
"190 901 CURVE SMOOTH",
"180 901 LINE",
"296 769 LINE"
);
}
);
width = 551;
},
{
layerId = "F36DCCA2-8A71-42CF-9609-F852DF368EC0";
paths = (
{
closed = 1;
nodes = (
"350 -8 OFFCURVE",
"410 17 OFFCURVE",
"451 58 CURVE SMOOTH",
"492 98 OFFCURVE",
"514 155 OFFCURVE",
"514 218 CURVE SMOOTH",
"514 247 OFFCURVE",
"509 272 OFFCURVE",
"499 293 CURVE SMOOTH",
"479 333 OFFCURVE",
"446 361 OFFCURVE",
"405 379 CURVE SMOOTH",
"364 397 OFFCURVE",
"320 411 OFFCURVE",
"279 425 CURVE SMOOTH",
"259 432 OFFCURVE",
"240 440 OFFCURVE",
"224 449 CURVE SMOOTH",
"192 468 OFFCURVE",
"170 493 OFFCURVE",
"170 533 CURVE SMOOTH",
"170 564 OFFCURVE",
"182 592 OFFCURVE",
"204 612 CURVE SMOOTH",
"226 632 OFFCURVE",
"259 644 OFFCURVE",
"303 644 CURVE SMOOTH",
"326 644 OFFCURVE",
"345 641 OFFCURVE",
"362 636 CURVE SMOOTH",
"394 624 OFFCURVE",
"416 610 OFFCURVE",
"432 598 CURVE SMOOTH",
"439 593 OFFCURVE",
"446 590 OFFCURVE",
"452 590 CURVE SMOOTH",
"462 590 OFFCURVE",
"468 595 OFFCURVE",
"474 605 CURVE",
"498 651 LINE",
"448 699 OFFCURVE",
"382 725 OFFCURVE",
"302 725 CURVE SMOOTH",
"230 725 OFFCURVE",
"175 701 OFFCURVE",
"138 664 CURVE SMOOTH",
"100 628 OFFCURVE",
"80 578 OFFCURVE",
"80 528 CURVE SMOOTH",
"80 496 OFFCURVE",
"85 470 OFFCURVE",
"95 448 CURVE SMOOTH",
"114 405 OFFCURVE",
"147 377 OFFCURVE",
"188 359 CURVE SMOOTH",
"230 341 OFFCURVE",
"273 329 OFFCURVE",
"314 316 CURVE SMOOTH",
"335 309 OFFCURVE",
"353 301 OFFCURVE",
"369 292 CURVE SMOOTH",
"401 273 OFFCURVE",
"423 247 OFFCURVE",
"423 204 CURVE SMOOTH",
"423 164 OFFCURVE",
"409 132 OFFCURVE",
"384 109 CURVE SMOOTH",
"359 86 OFFCURVE",
"323 73 OFFCURVE",
"277 73 CURVE SMOOTH",
"240 73 OFFCURVE",
"211 81 OFFCURVE",
"188 91 CURVE SMOOTH",
"165 102 OFFCURVE",
"147 116 OFFCURVE",
"133 126 CURVE SMOOTH",
"119 137 OFFCURVE",
"108 145 OFFCURVE",
"100 145 CURVE SMOOTH",
"90 145 OFFCURVE",
"83 139 OFFCURVE",
"77 132 CURVE",
"49 86 LINE",
"103 28 OFFCURVE",
"180 -8 OFFCURVE",
"274 -8 CURVE SMOOTH"
);
},
{
closed = 1;
nodes = (
"352 773 LINE",
"471 909 LINE",
"406 909 LINE SMOOTH",
"398 909 OFFCURVE",
"385 909 OFFCURVE",
"377 897 CURVE",
"316 822 LINE",
"310 813 LINE",
"304 822 LINE",
"243 897 LINE",
"235 909 OFFCURVE",
"223 909 OFFCURVE",
"215 909 CURVE SMOOTH",
"150 909 LINE",
"269 773 LINE"
);
}
);
width = 573;
},
{
layerId = "A9E408DD-A955-440F-BEB6-B96F0772F152";
paths = (
{
closed = 1;
nodes = (
"359 -8 OFFCURVE",
"422 18 OFFCURVE",
"465 61 CURVE SMOOTH",
"508 103 OFFCURVE",
"530 161 OFFCURVE",
"530 227 CURVE SMOOTH",
"530 257 OFFCURVE",
"526 282 OFFCURVE",
"516 303 CURVE SMOOTH",
"497 345 OFFCURVE",
"465 374 OFFCURVE",
"425 393 CURVE SMOOTH",
"385 412 OFFCURVE",
"342 425 OFFCURVE",
"302 438 CURVE SMOOTH",
"282 444 OFFCURVE",
"264 451 OFFCURVE",
"248 459 CURVE SMOOTH",
"217 475 OFFCURVE",
"196 497 OFFCURVE",
"196 531 CURVE SMOOTH",
"196 557 OFFCURVE",
"206 580 OFFCURVE",
"225 596 CURVE SMOOTH",
"244 612 OFFCURVE",
"271 622 OFFCURVE",
"309 622 CURVE SMOOTH",
"329 622 OFFCURVE",
"347 619 OFFCURVE",
"363 614 CURVE SMOOTH",
"393 604 OFFCURVE",
"415 590 OFFCURVE",
"432 580 CURVE",
"440 574 OFFCURVE",
"447 572 OFFCURVE",
"454 572 CURVE SMOOTH",
"468 572 OFFCURVE",
"476 578 OFFCURVE",
"484 592 CURVE SMOOTH",
"517 655 LINE",
"467 703 OFFCURVE",
"393 731 OFFCURVE",
"307 731 CURVE SMOOTH",
"231 731 OFFCURVE",
"172 706 OFFCURVE",
"132 667 CURVE SMOOTH",
"92 629 OFFCURVE",
"71 576 OFFCURVE",
"71 524 CURVE SMOOTH",
"71 491 OFFCURVE",
"76 463 OFFCURVE",
"85 441 CURVE SMOOTH",
"104 396 OFFCURVE",
"136 366 OFFCURVE",
"176 348 CURVE SMOOTH",
"216 329 OFFCURVE",
"258 317 OFFCURVE",
"298 305 CURVE SMOOTH",
"318 300 OFFCURVE",
"336 293 OFFCURVE",
"352 285 CURVE SMOOTH",
"383 268 OFFCURVE",
"404 246 OFFCURVE",
"404 208 CURVE SMOOTH",
"404 140 OFFCURVE",
"360 102 OFFCURVE",
"283 102 CURVE SMOOTH",
"258 102 OFFCURVE",
"237 106 OFFCURVE",
"219 113 CURVE SMOOTH",
"183 126 OFFCURVE",
"157 144 OFFCURVE",
"138 158 CURVE SMOOTH",
"128 165 OFFCURVE",
"119 168 OFFCURVE",
"111 168 CURVE SMOOTH",
"99 168 OFFCURVE",
"87 161 OFFCURVE",
"81 152 CURVE",
"41 87 LINE",
"69 59 OFFCURVE",
"106 35 OFFCURVE",
"147 18 CURVE SMOOTH",
"188 2 OFFCURVE",
"233 -8 OFFCURVE",
"279 -8 CURVE SMOOTH"
);
},
{
closed = 1;
nodes = (
"373 775 LINE",
"493 912 LINE",
"404 912 LINE SMOOTH",
"394 912 OFFCURVE",
"378 912 OFFCURVE",
"366 897 CURVE SMOOTH",
"322 839 LINE",
"321 837 OFFCURVE",
"319 835 OFFCURVE",
"318 833 CURVE",
"317 831 OFFCURVE",
"316 829 OFFCURVE",
"315 828 CURVE",
"314 829 OFFCURVE",
"313 831 OFFCURVE",
"312 833 CURVE",
"310 835 OFFCURVE",
"309 837 OFFCURVE",
"307 839 CURVE",
"263 897 LINE SMOOTH",
"251 912 OFFCURVE",
"236 912 OFFCURVE",
"226 912 CURVE SMOOTH",
"136 912 LINE",
"257 775 LINE"
);
}
);
width = 582;
}
);
leftKerningGroup = S;
note = Scaron;
rightKerningGroup = S;
unicode = 0160;
},
{
glyphname = T;
lastChange = "2026-06-19 17:27:37 +0000";
layers = (
{
layerId = "7DA69401-B8BB-4CEF-A33A-65E5ADA83450";
paths = (
{
closed = 1;
nodes = (
"329 0 LINE",
"329 689 LINE",
"592 689 LINE",
"592 700 LINE",
"52 700 LINE",
"52 689 LINE",
"317 689 LINE",
"317 0 LINE"
);
}
);
width = 644;
},
{
layerId = "F36DCCA2-8A71-42CF-9609-F852DF368EC0";
paths = (
{
closed = 1;
nodes = (
"368 0 LINE",
"368 635 LINE",
"600 635 LINE",
"600 717 LINE",
"39 717 LINE",
"39 635 LINE",
"272 635 LINE",
"272 0 LINE"
);
}
);
width = 638;
},
{
layerId = "A9E408DD-A955-440F-BEB6-B96F0772F152";
paths = (
{
closed = 1;
nodes = (
"385 0 LINE",
"385 613 LINE",
"603 613 LINE",
"603 723 LINE",
"32 723 LINE",
"32 613 LINE",
"250 613 LINE",
"250 0 LINE"
);
}
);
width = 635;
}
);
leftKerningGroup = T;
note = T;
rightKerningGroup = T;
unicode = 0054;
},
{
glyphname = U;
lastChange = "2026-06-19 17:27:37 +0000";
layers = (
{
layerId = "7DA69401-B8BB-4CEF-A33A-65E5ADA83450";
paths = (
{
closed = 1;
nodes = (
"444 -9 OFFCURVE",
"507 22 OFFCURVE",
"551 70 CURVE SMOOTH",
"595 119 OFFCURVE",
"619 186 OFFCURVE",
"619 260 CURVE SMOOTH",
"619 700 LINE",
"607 700 LINE",
"607 260 LINE SMOOTH",
"607 189 OFFCURVE",
"585 124 OFFCURVE",
"543 78 CURVE SMOOTH",
"502 31 OFFCURVE",
"442 2 OFFCURVE",
"366 2 CURVE SMOOTH",
"291 2 OFFCURVE",
"231 31 OFFCURVE",
"189 78 CURVE SMOOTH",
"148 125 OFFCURVE",
"125 190 OFFCURVE",
"125 261 CURVE SMOOTH",
"125 700 LINE",
"113 700 LINE",
"113 260 LINE SMOOTH",
"113 186 OFFCURVE",
"137 119 OFFCURVE",
"181 70 CURVE SMOOTH",
"225 22 OFFCURVE",
"288 -9 OFFCURVE",
"366 -9 CURVE SMOOTH"
);
}
);
width = 732;
},
{
layerId = "F36DCCA2-8A71-42CF-9609-F852DF368EC0";
paths = (
{
closed = 1;
nodes = (
"465 -9 OFFCURVE",
"537 23 OFFCURVE",
"586 75 CURVE SMOOTH",
"635 126 OFFCURVE",
"662 199 OFFCURVE",
"662 281 CURVE SMOOTH",
"662 717 LINE",
"566 717 LINE",
"566 281 LINE SMOOTH",
"566 221 OFFCURVE",
"548 170 OFFCURVE",
"516 134 CURVE SMOOTH",
"484 98 OFFCURVE",
"437 77 OFFCURVE",
"377 77 CURVE SMOOTH",
"318 77 OFFCURVE",
"270 99 OFFCURVE",
"238 135 CURVE SMOOTH",
"206 171 OFFCURVE",
"188 222 OFFCURVE",
"188 282 CURVE SMOOTH",
"188 717 LINE",
"92 717 LINE",
"92 281 LINE SMOOTH",
"92 199 OFFCURVE",
"119 126 OFFCURVE",
"168 75 CURVE SMOOTH",
"218 23 OFFCURVE",
"289 -9 OFFCURVE",
"377 -9 CURVE SMOOTH"
);
}
);
width = 754;
},
{
layerId = "A9E408DD-A955-440F-BEB6-B96F0772F152";
paths = (
{
closed = 1;
nodes = (
"475 -8 OFFCURVE",
"550 24 OFFCURVE",
"602 77 CURVE SMOOTH",
"654 130 OFFCURVE",
"682 204 OFFCURVE",
"682 290 CURVE SMOOTH",
"682 723 LINE",
"548 723 LINE",
"548 290 LINE SMOOTH",
"548 235 OFFCURVE",
"532 190 OFFCURVE",
"504 158 CURVE SMOOTH",
"476 127 OFFCURVE",
"435 109 OFFCURVE",
"383 109 CURVE SMOOTH",
"331 109 OFFCURVE",
"289 127 OFFCURVE",
"261 159 CURVE SMOOTH",
"233 190 OFFCURVE",
"217 235 OFFCURVE",
"217 291 CURVE SMOOTH",
"217 723 LINE",
"83 723 LINE",
"83 290 LINE SMOOTH",
"83 204 OFFCURVE",
"111 130 OFFCURVE",
"163 77 CURVE SMOOTH",
"215 24 OFFCURVE",
"289 -8 OFFCURVE",
"383 -8 CURVE SMOOTH"
);
}
);
width = 765;
}
);
leftKerningGroup = U;
note = U;
rightKerningGroup = U;
unicode = 0055;
},
{
glyphname = Uacute;
lastChange = "2026-06-19 17:27:37 +0000";
layers = (
{
layerId = "7DA69401-B8BB-4CEF-A33A-65E5ADA83450";
paths = (
{
closed = 1;
nodes = (
"444 -9 OFFCURVE",
"507 22 OFFCURVE",
"551 70 CURVE SMOOTH",
"595 119 OFFCURVE",
"619 186 OFFCURVE",
"619 260 CURVE SMOOTH",
"619 700 LINE",
"607 700 LINE",
"607 260 LINE SMOOTH",
"607 189 OFFCURVE",
"585 124 OFFCURVE",
"543 78 CURVE SMOOTH",
"502 31 OFFCURVE",
"442 2 OFFCURVE",
"366 2 CURVE SMOOTH",
"291 2 OFFCURVE",
"231 31 OFFCURVE",
"189 78 CURVE SMOOTH",
"148 125 OFFCURVE",
"125 190 OFFCURVE",
"125 261 CURVE SMOOTH",
"125 700 LINE",
"113 700 LINE",
"113 260 LINE SMOOTH",
"113 186 OFFCURVE",
"137 119 OFFCURVE",
"181 70 CURVE SMOOTH",
"225 22 OFFCURVE",
"288 -9 OFFCURVE",
"366 -9 CURVE SMOOTH"
);
},
{
closed = 1;
nodes = (
"334 769 LINE SMOOTH",
"338 769 OFFCURVE",
"341 770 OFFCURVE",
"343 772 CURVE",
"508 916 LINE",
"490 916 LINE SMOOTH",
"478 916 OFFCURVE",
"474 915 OFFCURVE",
"469 909 CURVE SMOOTH",
"328 769 LINE"
);
}
);
width = 732;
},
{
layerId = "F36DCCA2-8A71-42CF-9609-F852DF368EC0";
paths = (
{
closed = 1;
nodes = (
"465 -9 OFFCURVE",
"537 23 OFFCURVE",
"586 75 CURVE SMOOTH",
"635 126 OFFCURVE",
"662 199 OFFCURVE",
"662 281 CURVE SMOOTH",
"662 717 LINE",
"566 717 LINE",
"566 281 LINE SMOOTH",
"566 221 OFFCURVE",
"548 170 OFFCURVE",
"516 134 CURVE SMOOTH",
"484 98 OFFCURVE",
"437 77 OFFCURVE",
"377 77 CURVE SMOOTH",
"318 77 OFFCURVE",
"270 99 OFFCURVE",
"238 135 CURVE SMOOTH",
"206 171 OFFCURVE",
"188 222 OFFCURVE",
"188 282 CURVE SMOOTH",
"188 717 LINE",
"92 717 LINE",
"92 281 LINE SMOOTH",
"92 199 OFFCURVE",
"119 126 OFFCURVE",
"168 75 CURVE SMOOTH",
"218 23 OFFCURVE",
"289 -9 OFFCURVE",
"377 -9 CURVE SMOOTH"
);
},
{
closed = 1;
nodes = (
"372 773 LINE SMOOTH",
"385 773 OFFCURVE",
"393 774 OFFCURVE",
"403 783 CURVE",
"566 926 LINE",
"466 926 LINE SMOOTH",
"444 926 OFFCURVE",
"435 925 OFFCURVE",
"423 910 CURVE SMOOTH",
"308 773 LINE"
);
}
);
width = 754;
},
{
layerId = "A9E408DD-A955-440F-BEB6-B96F0772F152";
paths = (
{
closed = 1;
nodes = (
"475 -8 OFFCURVE",
"550 24 OFFCURVE",
"602 77 CURVE SMOOTH",
"654 130 OFFCURVE",
"682 204 OFFCURVE",
"682 290 CURVE SMOOTH",
"682 723 LINE",
"548 723 LINE",
"548 290 LINE SMOOTH",
"548 235 OFFCURVE",
"532 190 OFFCURVE",
"504 158 CURVE SMOOTH",
"476 127 OFFCURVE",
"435 109 OFFCURVE",
"383 109 CURVE SMOOTH",
"331 109 OFFCURVE",
"289 127 OFFCURVE",
"261 159 CURVE SMOOTH",
"233 190 OFFCURVE",
"217 235 OFFCURVE",
"217 291 CURVE SMOOTH",
"217 723 LINE",
"83 723 LINE",
"83 290 LINE SMOOTH",
"83 204 OFFCURVE",
"111 130 OFFCURVE",
"163 77 CURVE SMOOTH",
"215 24 OFFCURVE",
"289 -8 OFFCURVE",
"383 -8 CURVE SMOOTH"
);
},
{
closed = 1;
nodes = (
"389 775 LINE SMOOTH",
"407 775 OFFCURVE",
"417 776 OFFCURVE",
"431 788 CURVE SMOOTH",
"593 931 LINE",
"455 931 LINE SMOOTH",
"442 931 OFFCURVE",
"433 930 OFFCURVE",
"425 928 CURVE SMOOTH",
"417 925 OFFCURVE",
"410 920 OFFCURVE",
"404 910 CURVE",
"299 775 LINE"
);
}
);
width = 765;
}
);
leftKerningGroup = U;
note = Uacute;
rightKerningGroup = U;
unicode = 00DA;
},
{
glyphname = Ucircumflex;
lastChange = "2026-06-19 17:27:37 +0000";
layers = (
{
layerId = "7DA69401-B8BB-4CEF-A33A-65E5ADA83450";
paths = (
{
closed = 1;
nodes = (
"444 -9 OFFCURVE",
"507 22 OFFCURVE",
"551 70 CURVE SMOOTH",
"595 119 OFFCURVE",
"619 186 OFFCURVE",
"619 260 CURVE SMOOTH",
"619 700 LINE",
"607 700 LINE",
"607 260 LINE SMOOTH",
"607 189 OFFCURVE",
"585 124 OFFCURVE",
"543 78 CURVE SMOOTH",
"502 31 OFFCURVE",
"442 2 OFFCURVE",
"366 2 CURVE SMOOTH",
"291 2 OFFCURVE",
"231 31 OFFCURVE",
"189 78 CURVE SMOOTH",
"148 125 OFFCURVE",
"125 190 OFFCURVE",
"125 261 CURVE SMOOTH",
"125 700 LINE",
"113 700 LINE",
"113 260 LINE SMOOTH",
"113 186 OFFCURVE",
"137 119 OFFCURVE",
"181 70 CURVE SMOOTH",
"225 22 OFFCURVE",
"288 -9 OFFCURVE",
"366 -9 CURVE SMOOTH"
);
},
{
closed = 1;
nodes = (
"256 769 LINE SMOOTH",
"260 769 OFFCURVE",
"263 770 OFFCURVE",
"266 773 CURVE",
"364 885 LINE",
"365 886 OFFCURVE",
"366 887 OFFCURVE",
"366 888 CURVE",
"367 887 OFFCURVE",
"368 886 OFFCURVE",
"368 885 CURVE",
"466 773 LINE",
"470 770 OFFCURVE",
"473 769 OFFCURVE",
"476 769 CURVE SMOOTH",
"486 769 LINE",
"370 901 LINE",
"362 901 LINE",
"246 769 LINE"
);
}
);
width = 732;
},
{
layerId = "F36DCCA2-8A71-42CF-9609-F852DF368EC0";
paths = (
{
closed = 1;
nodes = (
"465 -9 OFFCURVE",
"537 23 OFFCURVE",
"586 75 CURVE SMOOTH",
"635 126 OFFCURVE",
"662 199 OFFCURVE",
"662 281 CURVE SMOOTH",
"662 717 LINE",
"566 717 LINE",
"566 281 LINE SMOOTH",
"566 221 OFFCURVE",
"548 170 OFFCURVE",
"516 134 CURVE SMOOTH",
"484 98 OFFCURVE",
"437 77 OFFCURVE",
"377 77 CURVE SMOOTH",
"318 77 OFFCURVE",
"270 99 OFFCURVE",
"238 135 CURVE SMOOTH",
"206 171 OFFCURVE",
"188 222 OFFCURVE",
"188 282 CURVE SMOOTH",
"188 717 LINE",
"92 717 LINE",
"92 281 LINE SMOOTH",
"92 199 OFFCURVE",
"119 126 OFFCURVE",
"168 75 CURVE SMOOTH",
"218 23 OFFCURVE",
"289 -9 OFFCURVE",
"377 -9 CURVE SMOOTH"
);
},
{
closed = 1;
nodes = (
"282 773 LINE SMOOTH",
"290 773 OFFCURVE",
"301 774 OFFCURVE",
"313 788 CURVE SMOOTH",
"371 858 LINE",
"377 867 LINE",
"383 858 LINE",
"442 788 LINE SMOOTH",
"453 774 OFFCURVE",
"465 773 OFFCURVE",
"473 773 CURVE SMOOTH",
"538 773 LINE",
"419 909 LINE",
"339 909 LINE",
"219 773 LINE"
);
}
);
width = 754;
},
{
layerId = "A9E408DD-A955-440F-BEB6-B96F0772F152";
paths = (
{
closed = 1;
nodes = (
"475 -8 OFFCURVE",
"550 24 OFFCURVE",
"602 77 CURVE SMOOTH",
"654 130 OFFCURVE",
"682 204 OFFCURVE",
"682 290 CURVE SMOOTH",
"682 723 LINE",
"548 723 LINE",
"548 290 LINE SMOOTH",
"548 235 OFFCURVE",
"532 190 OFFCURVE",
"504 158 CURVE SMOOTH",
"476 127 OFFCURVE",
"435 109 OFFCURVE",
"383 109 CURVE SMOOTH",
"331 109 OFFCURVE",
"289 127 OFFCURVE",
"261 159 CURVE SMOOTH",
"233 190 OFFCURVE",
"217 235 OFFCURVE",
"217 291 CURVE SMOOTH",
"217 723 LINE",
"83 723 LINE",
"83 290 LINE SMOOTH",
"83 204 OFFCURVE",
"111 130 OFFCURVE",
"163 77 CURVE SMOOTH",
"215 24 OFFCURVE",
"289 -8 OFFCURVE",
"383 -8 CURVE SMOOTH"
);
},
{
closed = 1;
nodes = (
"294 775 LINE SMOOTH",
"304 775 OFFCURVE",
"319 776 OFFCURVE",
"334 794 CURVE",
"375 847 LINE SMOOTH",
"379 851 OFFCURVE",
"381 855 OFFCURVE",
"383 858 CURVE",
"384 855 OFFCURVE",
"387 851 OFFCURVE",
"390 847 CURVE SMOOTH",
"431 794 LINE",
"447 776 OFFCURVE",
"462 775 OFFCURVE",
"472 775 CURVE SMOOTH",
"561 775 LINE",
"441 912 LINE",
"329 912 LINE",
"208 775 LINE"
);
}
);
width = 765;
}
);
leftKerningGroup = U;
note = Ucircumflex;
rightKerningGroup = U;
unicode = 00DB;
},
{
glyphname = Udieresis;
lastChange = "2026-06-19 17:27:37 +0000";
layers = (
{
layerId = "7DA69401-B8BB-4CEF-A33A-65E5ADA83450";
paths = (
{
closed = 1;
nodes = (
"444 -9 OFFCURVE",
"507 22 OFFCURVE",
"551 70 CURVE SMOOTH",
"595 119 OFFCURVE",
"619 186 OFFCURVE",
"619 260 CURVE SMOOTH",
"619 700 LINE",
"607 700 LINE",
"607 260 LINE SMOOTH",
"607 189 OFFCURVE",
"585 124 OFFCURVE",
"543 78 CURVE SMOOTH",
"502 31 OFFCURVE",
"442 2 OFFCURVE",
"366 2 CURVE SMOOTH",
"291 2 OFFCURVE",
"231 31 OFFCURVE",
"189 78 CURVE SMOOTH",
"148 125 OFFCURVE",
"125 190 OFFCURVE",
"125 261 CURVE SMOOTH",
"125 700 LINE",
"113 700 LINE",
"113 260 LINE SMOOTH",
"113 186 OFFCURVE",
"137 119 OFFCURVE",
"181 70 CURVE SMOOTH",
"225 22 OFFCURVE",
"288 -9 OFFCURVE",
"366 -9 CURVE SMOOTH"
);
},
{
closed = 1;
nodes = (
"288 805 OFFCURVE",
"302 818 OFFCURVE",
"302 832 CURVE SMOOTH",
"302 848 OFFCURVE",
"288 860 OFFCURVE",
"274 860 CURVE SMOOTH",
"259 860 OFFCURVE",
"246 848 OFFCURVE",
"246 832 CURVE SMOOTH",
"246 818 OFFCURVE",
"259 805 OFFCURVE",
"274 805 CURVE SMOOTH"
);
},
{
closed = 1;
nodes = (
"472 805 OFFCURVE",
"486 818 OFFCURVE",
"486 832 CURVE SMOOTH",
"486 848 OFFCURVE",
"472 860 OFFCURVE",
"458 860 CURVE SMOOTH",
"443 860 OFFCURVE",
"430 848 OFFCURVE",
"430 832 CURVE SMOOTH",
"430 818 OFFCURVE",
"443 805 OFFCURVE",
"458 805 CURVE SMOOTH"
);
}
);
width = 732;
},
{
layerId = "F36DCCA2-8A71-42CF-9609-F852DF368EC0";
paths = (
{
closed = 1;
nodes = (
"465 -9 OFFCURVE",
"537 23 OFFCURVE",
"586 75 CURVE SMOOTH",
"635 126 OFFCURVE",
"662 199 OFFCURVE",
"662 281 CURVE SMOOTH",
"662 717 LINE",
"566 717 LINE",
"566 281 LINE SMOOTH",
"566 221 OFFCURVE",
"548 170 OFFCURVE",
"516 134 CURVE SMOOTH",
"484 98 OFFCURVE",
"437 77 OFFCURVE",
"377 77 CURVE SMOOTH",
"318 77 OFFCURVE",
"270 99 OFFCURVE",
"238 135 CURVE SMOOTH",
"206 171 OFFCURVE",
"188 222 OFFCURVE",
"188 282 CURVE SMOOTH",
"188 717 LINE",
"92 717 LINE",
"92 281 LINE SMOOTH",
"92 199 OFFCURVE",
"119 126 OFFCURVE",
"168 75 CURVE SMOOTH",
"218 23 OFFCURVE",
"289 -9 OFFCURVE",
"377 -9 CURVE SMOOTH"
);
},
{
closed = 1;
nodes = (
"286 779 OFFCURVE",
"301 785 OFFCURVE",
"311 795 CURVE SMOOTH",
"321 805 OFFCURVE",
"328 819 OFFCURVE",
"328 833 CURVE SMOOTH",
"328 849 OFFCURVE",
"321 863 OFFCURVE",
"311 873 CURVE SMOOTH",
"301 883 OFFCURVE",
"286 889 OFFCURVE",
"272 889 CURVE SMOOTH",
"258 889 OFFCURVE",
"244 883 OFFCURVE",
"234 873 CURVE SMOOTH",
"224 863 OFFCURVE",
"218 849 OFFCURVE",
"218 833 CURVE SMOOTH",
"218 819 OFFCURVE",
"224 805 OFFCURVE",
"234 795 CURVE SMOOTH",
"244 785 OFFCURVE",
"258 779 OFFCURVE",
"272 779 CURVE SMOOTH"
);
},
{
closed = 1;
nodes = (
"496 779 OFFCURVE",
"510 785 OFFCURVE",
"520 795 CURVE SMOOTH",
"530 805 OFFCURVE",
"537 819 OFFCURVE",
"537 833 CURVE SMOOTH",
"537 849 OFFCURVE",
"530 863 OFFCURVE",
"520 873 CURVE SMOOTH",
"510 883 OFFCURVE",
"496 889 OFFCURVE",
"482 889 CURVE SMOOTH",
"466 889 OFFCURVE",
"453 883 OFFCURVE",
"443 873 CURVE SMOOTH",
"433 863 OFFCURVE",
"427 849 OFFCURVE",
"427 833 CURVE SMOOTH",
"427 819 OFFCURVE",
"433 805 OFFCURVE",
"443 795 CURVE SMOOTH",
"453 785 OFFCURVE",
"466 779 OFFCURVE",
"482 779 CURVE SMOOTH"
);
}
);
width = 754;
},
{
layerId = "A9E408DD-A955-440F-BEB6-B96F0772F152";
paths = (
{
closed = 1;
nodes = (
"475 -8 OFFCURVE",
"550 24 OFFCURVE",
"602 77 CURVE SMOOTH",
"654 130 OFFCURVE",
"682 204 OFFCURVE",
"682 290 CURVE SMOOTH",
"682 723 LINE",
"548 723 LINE",
"548 290 LINE SMOOTH",
"548 235 OFFCURVE",
"532 190 OFFCURVE",
"504 158 CURVE SMOOTH",
"476 127 OFFCURVE",
"435 109 OFFCURVE",
"383 109 CURVE SMOOTH",
"331 109 OFFCURVE",
"289 127 OFFCURVE",
"261 159 CURVE SMOOTH",
"233 190 OFFCURVE",
"217 235 OFFCURVE",
"217 291 CURVE SMOOTH",
"217 723 LINE",
"83 723 LINE",
"83 290 LINE SMOOTH",
"83 204 OFFCURVE",
"111 130 OFFCURVE",
"163 77 CURVE SMOOTH",
"215 24 OFFCURVE",
"289 -8 OFFCURVE",
"383 -8 CURVE SMOOTH"
);
},
{
closed = 1;
nodes = (
"290 768 OFFCURVE",
"307 775 OFFCURVE",
"320 787 CURVE SMOOTH",
"332 799 OFFCURVE",
"340 816 OFFCURVE",
"340 834 CURVE SMOOTH",
"340 852 OFFCURVE",
"332 869 OFFCURVE",
"320 881 CURVE",
"307 893 OFFCURVE",
"290 901 OFFCURVE",
"271 901 CURVE SMOOTH",
"254 901 OFFCURVE",
"238 893 OFFCURVE",
"226 881 CURVE SMOOTH",
"214 869 OFFCURVE",
"206 852 OFFCURVE",
"206 834 CURVE SMOOTH",
"206 816 OFFCURVE",
"214 799 OFFCURVE",
"226 787 CURVE SMOOTH",
"238 775 OFFCURVE",
"254 768 OFFCURVE",
"271 768 CURVE SMOOTH"
);
},
{
closed = 1;
nodes = (
"511 768 OFFCURVE",
"528 775 OFFCURVE",
"540 787 CURVE SMOOTH",
"552 799 OFFCURVE",
"560 816 OFFCURVE",
"560 834 CURVE SMOOTH",
"560 852 OFFCURVE",
"552 869 OFFCURVE",
"540 881 CURVE",
"528 893 OFFCURVE",
"511 901 OFFCURVE",
"493 901 CURVE SMOOTH",
"474 901 OFFCURVE",
"457 893 OFFCURVE",
"445 881 CURVE SMOOTH",
"433 869 OFFCURVE",
"426 852 OFFCURVE",
"426 834 CURVE SMOOTH",
"426 816 OFFCURVE",
"433 799 OFFCURVE",
"445 787 CURVE SMOOTH",
"457 775 OFFCURVE",
"474 768 OFFCURVE",
"493 768 CURVE SMOOTH"
);
}
);
width = 765;
}
);
leftKerningGroup = U;
note = Udieresis;
rightKerningGroup = U;
unicode = 00DC;
},
{
glyphname = Ugrave;
lastChange = "2026-06-19 17:27:37 +0000";
layers = (
{
layerId = "7DA69401-B8BB-4CEF-A33A-65E5ADA83450";
paths = (
{
closed = 1;
nodes = (
"444 -9 OFFCURVE",
"507 22 OFFCURVE",
"551 70 CURVE SMOOTH",
"595 119 OFFCURVE",
"619 186 OFFCURVE",
"619 260 CURVE SMOOTH",
"619 700 LINE",
"607 700 LINE",
"607 260 LINE SMOOTH",
"607 189 OFFCURVE",
"585 124 OFFCURVE",
"543 78 CURVE SMOOTH",
"502 31 OFFCURVE",
"442 2 OFFCURVE",
"366 2 CURVE SMOOTH",
"291 2 OFFCURVE",
"231 31 OFFCURVE",
"189 78 CURVE SMOOTH",
"148 125 OFFCURVE",
"125 190 OFFCURVE",
"125 261 CURVE SMOOTH",
"125 700 LINE",
"113 700 LINE",
"113 260 LINE SMOOTH",
"113 186 OFFCURVE",
"137 119 OFFCURVE",
"181 70 CURVE SMOOTH",
"225 22 OFFCURVE",
"288 -9 OFFCURVE",
"366 -9 CURVE SMOOTH"
);
},
{
closed = 1;
nodes = (
"408 769 LINE",
"284 909 LINE SMOOTH",
"278 915 OFFCURVE",
"274 916 OFFCURVE",
"263 916 CURVE SMOOTH",
"245 916 LINE",
"393 772 LINE SMOOTH",
"396 770 OFFCURVE",
"399 769 OFFCURVE",
"402 769 CURVE SMOOTH"
);
}
);
width = 732;
},
{
layerId = "F36DCCA2-8A71-42CF-9609-F852DF368EC0";
paths = (
{
closed = 1;
nodes = (
"465 -9 OFFCURVE",
"537 23 OFFCURVE",
"586 75 CURVE SMOOTH",
"635 126 OFFCURVE",
"662 199 OFFCURVE",
"662 281 CURVE SMOOTH",
"662 717 LINE",
"566 717 LINE",
"566 281 LINE SMOOTH",
"566 221 OFFCURVE",
"548 170 OFFCURVE",
"516 134 CURVE SMOOTH",
"484 98 OFFCURVE",
"437 77 OFFCURVE",
"377 77 CURVE SMOOTH",
"318 77 OFFCURVE",
"270 99 OFFCURVE",
"238 135 CURVE SMOOTH",
"206 171 OFFCURVE",
"188 222 OFFCURVE",
"188 282 CURVE SMOOTH",
"188 717 LINE",
"92 717 LINE",
"92 281 LINE SMOOTH",
"92 199 OFFCURVE",
"119 126 OFFCURVE",
"168 75 CURVE SMOOTH",
"218 23 OFFCURVE",
"289 -9 OFFCURVE",
"377 -9 CURVE SMOOTH"
);
},
{
closed = 1;
nodes = (
"445 773 LINE",
"331 910 LINE SMOOTH",
"319 925 OFFCURVE",
"311 926 OFFCURVE",
"289 926 CURVE SMOOTH",
"194 926 LINE",
"350 783 LINE SMOOTH",
"360 773 OFFCURVE",
"366 773 OFFCURVE",
"381 773 CURVE SMOOTH"
);
}
);
width = 754;
},
{
layerId = "A9E408DD-A955-440F-BEB6-B96F0772F152";
paths = (
{
closed = 1;
nodes = (
"475 -8 OFFCURVE",
"550 24 OFFCURVE",
"602 77 CURVE SMOOTH",
"654 130 OFFCURVE",
"682 204 OFFCURVE",
"682 290 CURVE SMOOTH",
"682 723 LINE",
"548 723 LINE",
"548 290 LINE SMOOTH",
"548 235 OFFCURVE",
"532 190 OFFCURVE",
"504 158 CURVE SMOOTH",
"476 127 OFFCURVE",
"435 109 OFFCURVE",
"383 109 CURVE SMOOTH",
"331 109 OFFCURVE",
"289 127 OFFCURVE",
"261 159 CURVE SMOOTH",
"233 190 OFFCURVE",
"217 235 OFFCURVE",
"217 291 CURVE SMOOTH",
"217 723 LINE",
"83 723 LINE",
"83 290 LINE SMOOTH",
"83 204 OFFCURVE",
"111 130 OFFCURVE",
"163 77 CURVE SMOOTH",
"215 24 OFFCURVE",
"289 -8 OFFCURVE",
"383 -8 CURVE SMOOTH"
);
},
{
closed = 1;
nodes = (
"461 775 LINE",
"352 910 LINE SMOOTH",
"345 920 OFFCURVE",
"339 925 OFFCURVE",
"331 928 CURVE SMOOTH",
"323 931 OFFCURVE",
"314 931 OFFCURVE",
"301 931 CURVE SMOOTH",
"171 931 LINE",
"331 787 LINE SMOOTH",
"344 775 OFFCURVE",
"352 775 OFFCURVE",
"372 775 CURVE SMOOTH"
);
}
);
width = 765;
}
);
leftKerningGroup = U;
note = Ugrave;
rightKerningGroup = U;
unicode = 00D9;
},
{
glyphname = V;
lastChange = "2026-06-19 17:27:37 +0000";
layers = (
{
layerId = "7DA69401-B8BB-4CEF-A33A-65E5ADA83450";
paths = (
{
closed = 1;
nodes = (
"360 0 LINE",
"652 700 LINE",
"644 700 LINE SMOOTH",
"640 700 OFFCURVE",
"638 699 OFFCURVE",
"637 695 CURVE",
"363 37 LINE SMOOTH",
"361 34 OFFCURVE",
"360 30 OFFCURVE",
"359 27 CURVE",
"357 23 OFFCURVE",
"356 20 OFFCURVE",
"355 16 CURVE",
"353 20 OFFCURVE",
"352 23 OFFCURVE",
"351 27 CURVE",
"350 30 OFFCURVE",
"348 34 OFFCURVE",
"347 37 CURVE SMOOTH",
"73 695 LINE",
"72 699 OFFCURVE",
"70 700 OFFCURVE",
"67 700 CURVE SMOOTH",
"58 700 LINE",
"350 0 LINE"
);
}
);
width = 710;
},
{
layerId = "F36DCCA2-8A71-42CF-9609-F852DF368EC0";
paths = (
{
closed = 1;
nodes = (
"416 0 LINE",
"708 717 LINE",
"631 717 LINE SMOOTH",
"614 717 OFFCURVE",
"602 705 OFFCURVE",
"598 694 CURVE",
"396 188 LINE SMOOTH",
"388 166 OFFCURVE",
"380 139 OFFCURVE",
"374 109 CURVE",
"367 139 OFFCURVE",
"358 166 OFFCURVE",
"350 188 CURVE SMOOTH",
"148 694 LINE SMOOTH",
"142 707 OFFCURVE",
"132 717 OFFCURVE",
"115 717 CURVE SMOOTH",
"37 717 LINE",
"329 0 LINE"
);
}
);
width = 745;
},
{
layerId = "A9E408DD-A955-440F-BEB6-B96F0772F152";
paths = (
{
closed = 1;
nodes = (
"441 0 LINE",
"733 723 LINE",
"625 723 LINE SMOOTH",
"602 723 OFFCURVE",
"586 708 OFFCURVE",
"580 693 CURVE SMOOTH",
"411 252 LINE SMOOTH",
"399 223 OFFCURVE",
"390 188 OFFCURVE",
"382 151 CURVE",
"373 188 OFFCURVE",
"363 223 OFFCURVE",
"351 252 CURVE SMOOTH",
"181 693 LINE SMOOTH",
"173 711 OFFCURVE",
"159 723 OFFCURVE",
"136 723 CURVE SMOOTH",
"28 723 LINE",
"320 0 LINE"
);
}
);
width = 761;
}
);
leftKerningGroup = V;
note = V;
rightKerningGroup = V;
unicode = 0056;
},
{
glyphname = W;
lastChange = "2026-06-19 17:27:37 +0000";
layers = (
{
layerId = "7DA69401-B8BB-4CEF-A33A-65E5ADA83450";
paths = (
{
closed = 1;
nodes = (
"294 0 LINE",
"527 672 LINE",
"529 679 OFFCURVE",
"531 684 OFFCURVE",
"532 688 CURVE",
"532 686 OFFCURVE",
"533 684 OFFCURVE",
"534 681 CURVE SMOOTH",
"534 679 OFFCURVE",
"535 676 OFFCURVE",
"536 672 CURVE",
"769 0 LINE",
"779 0 LINE",
"1001 700 LINE",
"993 700 LINE SMOOTH",
"990 700 OFFCURVE",
"987 699 OFFCURVE",
"986 695 CURVE SMOOTH",
"782 42 LINE SMOOTH",
"779 34 OFFCURVE",
"777 25 OFFCURVE",
"774 15 CURVE",
"772 25 OFFCURVE",
"769 34 OFFCURVE",
"767 42 CURVE SMOOTH",
"539 695 LINE",
"538 699 OFFCURVE",
"536 700 OFFCURVE",
"533 700 CURVE SMOOTH",
"531 700 LINE SMOOTH",
"528 700 OFFCURVE",
"525 699 OFFCURVE",
"524 695 CURVE",
"297 42 LINE SMOOTH",
"294 34 OFFCURVE",
"292 25 OFFCURVE",
"289 15 CURVE",
"287 25 OFFCURVE",
"284 34 OFFCURVE",
"282 42 CURVE SMOOTH",
"77 695 LINE SMOOTH",
"76 699 OFFCURVE",
"74 700 OFFCURVE",
"71 700 CURVE SMOOTH",
"62 700 LINE",
"284 0 LINE"
);
}
);
width = 1063;
},
{
layerId = "F36DCCA2-8A71-42CF-9609-F852DF368EC0";
paths = (
{
closed = 1;
nodes = (
"351 0 LINE",
"534 547 LINE SMOOTH",
"537 557 OFFCURVE",
"540 569 OFFCURVE",
"544 583 CURVE",
"547 569 OFFCURVE",
"550 557 OFFCURVE",
"553 547 CURVE SMOOTH",
"735 0 LINE",
"822 0 LINE",
"1045 717 LINE",
"970 717 LINE SMOOTH",
"953 717 OFFCURVE",
"941 706 OFFCURVE",
"937 694 CURVE SMOOTH",
"789 196 LINE",
"784 178 OFFCURVE",
"780 158 OFFCURVE",
"777 136 CURVE",
"772 158 OFFCURVE",
"767 178 OFFCURVE",
"761 196 CURVE SMOOTH",
"593 694 LINE",
"588 707 OFFCURVE",
"578 717 OFFCURVE",
"560 717 CURVE SMOOTH",
"532 717 LINE SMOOTH",
"516 717 OFFCURVE",
"503 705 OFFCURVE",
"499 694 CURVE SMOOTH",
"331 196 LINE SMOOTH",
"325 178 OFFCURVE",
"320 157 OFFCURVE",
"315 134 CURVE",
"311 157 OFFCURVE",
"307 178 OFFCURVE",
"302 196 CURVE",
"154 694 LINE",
"151 707 OFFCURVE",
"139 717 OFFCURVE",
"121 717 CURVE SMOOTH",
"41 717 LINE",
"264 0 LINE"
);
}
);
width = 1086;
},
{
layerId = "A9E408DD-A955-440F-BEB6-B96F0772F152";
paths = (
{
closed = 1;
nodes = (
"377 0 LINE",
"536 494 LINE SMOOTH",
"541 507 OFFCURVE",
"545 522 OFFCURVE",
"549 538 CURVE",
"552 521 OFFCURVE",
"556 506 OFFCURVE",
"561 494 CURVE",
"719 0 LINE",
"840 0 LINE",
"1065 723 LINE",
"959 723 LINE SMOOTH",
"937 723 OFFCURVE",
"919 709 OFFCURVE",
"915 693 CURVE",
"792 260 LINE SMOOTH",
"786 239 OFFCURVE",
"782 215 OFFCURVE",
"777 189 CURVE",
"772 216 OFFCURVE",
"765 240 OFFCURVE",
"758 260 CURVE SMOOTH",
"617 693 LINE",
"609 711 OFFCURVE",
"595 723 OFFCURVE",
"572 723 CURVE SMOOTH",
"532 723 LINE SMOOTH",
"510 723 OFFCURVE",
"493 708 OFFCURVE",
"488 693 CURVE SMOOTH",
"346 260 LINE SMOOTH",
"338 239 OFFCURVE",
"332 214 OFFCURVE",
"327 186 CURVE",
"321 214 OFFCURVE",
"317 239 OFFCURVE",
"311 260 CURVE SMOOTH",
"188 693 LINE SMOOTH",
"183 711 OFFCURVE",
"167 723 OFFCURVE",
"143 723 CURVE SMOOTH",
"31 723 LINE",
"255 0 LINE"
);
}
);
width = 1096;
}
);
leftKerningGroup = W;
note = W;
rightKerningGroup = W;
unicode = 0057;
},
{
glyphname = X;
lastChange = "2026-06-19 17:27:37 +0000";
layers = (
{
layerId = "7DA69401-B8BB-4CEF-A33A-65E5ADA83450";
paths = (
{
closed = 1;
nodes = (
"70 0 LINE SMOOTH",
"72 0 OFFCURVE",
"74 1 OFFCURVE",
"75 3 CURVE",
"76 4 OFFCURVE",
"78 6 OFFCURVE",
"79 7 CURVE",
"326 346 LINE",
"328 348 OFFCURVE",
"329 349 OFFCURVE",
"329 350 CURVE SMOOTH",
"330 351 OFFCURVE",
"330 352 OFFCURVE",
"331 353 CURVE",
"581 7 LINE",
"582 6 OFFCURVE",
"583 5 OFFCURVE",
"585 3 CURVE",
"586 1 OFFCURVE",
"588 0 OFFCURVE",
"590 0 CURVE SMOOTH",
"601 0 LINE",
"339 360 LINE",
"589 700 LINE",
"578 700 LINE SMOOTH",
"574 700 OFFCURVE",
"571 697 OFFCURVE",
"569 693 CURVE",
"335 372 LINE",
"334 371 OFFCURVE",
"333 369 OFFCURVE",
"333 368 CURVE SMOOTH",
"332 367 OFFCURVE",
"331 366 OFFCURVE",
"331 365 CURVE",
"91 693 LINE",
"90 694 OFFCURVE",
"89 696 OFFCURVE",
"88 698 CURVE",
"87 699 OFFCURVE",
"85 700 OFFCURVE",
"82 700 CURVE SMOOTH",
"71 700 LINE",
"323 359 LINE",
"59 0 LINE"
);
}
);
width = 661;
},
{
layerId = "F36DCCA2-8A71-42CF-9609-F852DF368EC0";
paths = (
{
closed = 1;
nodes = (
"129 0 LINE SMOOTH",
"143 0 OFFCURVE",
"149 9 OFFCURVE",
"156 19 CURVE SMOOTH",
"343 299 LINE SMOOTH",
"346 305 OFFCURVE",
"349 312 OFFCURVE",
"352 320 CURVE",
"544 19 LINE",
"549 9 OFFCURVE",
"557 0 OFFCURVE",
"571 0 CURVE SMOOTH",
"667 0 LINE",
"422 373 LINE",
"659 717 LINE",
"567 717 LINE SMOOTH",
"557 717 OFFCURVE",
"550 711 OFFCURVE",
"544 701 CURVE",
"368 439 LINE",
"363 431 OFFCURVE",
"360 423 OFFCURVE",
"357 416 CURVE",
"170 703 LINE SMOOTH",
"165 712 OFFCURVE",
"160 717 OFFCURVE",
"146 717 CURVE SMOOTH",
"49 717 LINE",
"286 368 LINE",
"39 0 LINE"
);
}
);
width = 707;
},
{
layerId = "A9E408DD-A955-440F-BEB6-B96F0772F152";
paths = (
{
closed = 1;
nodes = (
"155 0 LINE SMOOTH",
"172 0 OFFCURVE",
"181 12 OFFCURVE",
"189 23 CURVE",
"350 279 LINE SMOOTH",
"353 285 OFFCURVE",
"357 292 OFFCURVE",
"359 301 CURVE",
"527 23 LINE",
"533 11 OFFCURVE",
"544 0 OFFCURVE",
"562 0 CURVE SMOOTH",
"696 0 LINE",
"457 378 LINE",
"690 723 LINE",
"561 723 LINE SMOOTH",
"548 723 OFFCURVE",
"540 717 OFFCURVE",
"533 705 CURVE SMOOTH",
"382 467 LINE",
"377 459 OFFCURVE",
"373 451 OFFCURVE",
"370 442 CURVE",
"205 707 LINE SMOOTH",
"198 719 OFFCURVE",
"192 723 OFFCURVE",
"173 723 CURVE SMOOTH",
"39 723 LINE",
"270 372 LINE",
"30 0 LINE"
);
}
);
width = 728;
}
);
leftKerningGroup = X;
note = X;
rightKerningGroup = X;
unicode = 0058;
},
{
glyphname = Y;
lastChange = "2026-06-19 17:27:37 +0000";
layers = (
{
layerId = "7DA69401-B8BB-4CEF-A33A-65E5ADA83450";
paths = (
{
closed = 1;
nodes = (
"327 0 LINE",
"327 298 LINE",
"588 700 LINE",
"578 700 LINE SMOOTH",
"575 700 OFFCURVE",
"573 699 OFFCURVE",
"571 696 CURVE SMOOTH",
"336 331 LINE",
"333 327 OFFCURVE",
"331 323 OFFCURVE",
"328 319 CURVE",
"326 315 OFFCURVE",
"323 311 OFFCURVE",
"321 307 CURVE",
"320 311 OFFCURVE",
"317 315 OFFCURVE",
"315 319 CURVE",
"312 323 OFFCURVE",
"309 327 OFFCURVE",
"307 331 CURVE",
"71 696 LINE SMOOTH",
"70 699 OFFCURVE",
"67 700 OFFCURVE",
"64 700 CURVE SMOOTH",
"54 700 LINE",
"315 298 LINE",
"315 0 LINE"
);
}
);
width = 642;
},
{
layerId = "F36DCCA2-8A71-42CF-9609-F852DF368EC0";
paths = (
{
closed = 1;
nodes = (
"393 0 LINE",
"393 286 LINE",
"655 717 LINE",
"570 717 LINE SMOOTH",
"553 717 OFFCURVE",
"543 706 OFFCURVE",
"537 694 CURVE",
"373 416 LINE",
"362 392 OFFCURVE",
"353 373 OFFCURVE",
"345 352 CURVE",
"338 373 OFFCURVE",
"328 392 OFFCURVE",
"316 416 CURVE",
"152 694 LINE SMOOTH",
"144 708 OFFCURVE",
"136 717 OFFCURVE",
"118 717 CURVE SMOOTH",
"33 717 LINE",
"296 286 LINE",
"296 0 LINE"
);
}
);
width = 688;
},
{
layerId = "A9E408DD-A955-440F-BEB6-B96F0772F152";
paths = (
{
closed = 1;
nodes = (
"422 0 LINE",
"422 280 LINE",
"686 723 LINE",
"567 723 LINE SMOOTH",
"544 723 OFFCURVE",
"530 708 OFFCURVE",
"522 693 CURVE SMOOTH",
"391 452 LINE SMOOTH",
"376 423 OFFCURVE",
"365 399 OFFCURVE",
"356 373 CURVE",
"347 399 OFFCURVE",
"336 423 OFFCURVE",
"320 452 CURVE SMOOTH",
"188 693 LINE SMOOTH",
"179 711 OFFCURVE",
"167 723 OFFCURVE",
"143 723 CURVE SMOOTH",
"24 723 LINE",
"288 280 LINE",
"288 0 LINE"
);
}
);
width = 710;
}
);
leftKerningGroup = Y;
note = Y;
rightKerningGroup = Y;
unicode = 0059;
},
{
glyphname = Yacute;
lastChange = "2026-06-19 17:27:37 +0000";
layers = (
{
layerId = "7DA69401-B8BB-4CEF-A33A-65E5ADA83450";
paths = (
{
closed = 1;
nodes = (
"327 0 LINE",
"327 298 LINE",
"588 700 LINE",
"578 700 LINE SMOOTH",
"575 700 OFFCURVE",
"573 699 OFFCURVE",
"571 696 CURVE SMOOTH",
"336 331 LINE",
"333 327 OFFCURVE",
"331 323 OFFCURVE",
"328 319 CURVE",
"326 315 OFFCURVE",
"323 311 OFFCURVE",
"321 307 CURVE",
"320 311 OFFCURVE",
"317 315 OFFCURVE",
"315 319 CURVE",
"312 323 OFFCURVE",
"309 327 OFFCURVE",
"307 331 CURVE",
"71 696 LINE SMOOTH",
"70 699 OFFCURVE",
"67 700 OFFCURVE",
"64 700 CURVE SMOOTH",
"54 700 LINE",
"315 298 LINE",
"315 0 LINE"
);
},
{
closed = 1;
nodes = (
"289 769 LINE SMOOTH",
"293 769 OFFCURVE",
"296 770 OFFCURVE",
"298 772 CURVE",
"463 916 LINE",
"445 916 LINE SMOOTH",
"433 916 OFFCURVE",
"429 915 OFFCURVE",
"424 909 CURVE SMOOTH",
"283 769 LINE"
);
}
);
width = 642;
},
{
layerId = "F36DCCA2-8A71-42CF-9609-F852DF368EC0";
paths = (
{
closed = 1;
nodes = (
"393 0 LINE",
"393 286 LINE",
"655 717 LINE",
"570 717 LINE SMOOTH",
"553 717 OFFCURVE",
"543 706 OFFCURVE",
"537 694 CURVE",
"373 416 LINE",
"362 392 OFFCURVE",
"353 373 OFFCURVE",
"345 352 CURVE",
"338 373 OFFCURVE",
"328 392 OFFCURVE",
"316 416 CURVE",
"152 694 LINE SMOOTH",
"144 708 OFFCURVE",
"136 717 OFFCURVE",
"118 717 CURVE SMOOTH",
"33 717 LINE",
"296 286 LINE",
"296 0 LINE"
);
},
{
closed = 1;
nodes = (
"340 773 LINE SMOOTH",
"353 773 OFFCURVE",
"361 774 OFFCURVE",
"371 783 CURVE",
"534 926 LINE",
"434 926 LINE SMOOTH",
"412 926 OFFCURVE",
"403 925 OFFCURVE",
"391 910 CURVE SMOOTH",
"276 773 LINE"
);
}
);
width = 688;
},
{
layerId = "A9E408DD-A955-440F-BEB6-B96F0772F152";
paths = (
{
closed = 1;
nodes = (
"422 0 LINE",
"422 280 LINE",
"686 723 LINE",
"567 723 LINE SMOOTH",
"544 723 OFFCURVE",
"530 708 OFFCURVE",
"522 693 CURVE SMOOTH",
"391 452 LINE SMOOTH",
"376 423 OFFCURVE",
"365 399 OFFCURVE",
"356 373 CURVE",
"347 399 OFFCURVE",
"336 423 OFFCURVE",
"320 452 CURVE SMOOTH",
"188 693 LINE SMOOTH",
"179 711 OFFCURVE",
"167 723 OFFCURVE",
"143 723 CURVE SMOOTH",
"24 723 LINE",
"288 280 LINE",
"288 0 LINE"
);
},
{
closed = 1;
nodes = (
"363 775 LINE SMOOTH",
"381 775 OFFCURVE",
"391 776 OFFCURVE",
"405 788 CURVE SMOOTH",
"567 931 LINE",
"429 931 LINE SMOOTH",
"416 931 OFFCURVE",
"407 930 OFFCURVE",
"399 928 CURVE SMOOTH",
"391 925 OFFCURVE",
"384 920 OFFCURVE",
"378 910 CURVE",
"273 775 LINE"
);
}
);
width = 710;
}
);
leftKerningGroup = Y;
note = Yacute;
rightKerningGroup = Y;
unicode = 00DD;
},
{
glyphname = Ydieresis;
lastChange = "2026-06-19 17:27:37 +0000";
layers = (
{
layerId = "7DA69401-B8BB-4CEF-A33A-65E5ADA83450";
paths = (
{
closed = 1;
nodes = (
"327 0 LINE",
"327 298 LINE",
"588 700 LINE",
"578 700 LINE SMOOTH",
"575 700 OFFCURVE",
"573 699 OFFCURVE",
"571 696 CURVE SMOOTH",
"336 331 LINE",
"333 327 OFFCURVE",
"331 323 OFFCURVE",
"328 319 CURVE",
"326 315 OFFCURVE",
"323 311 OFFCURVE",
"321 307 CURVE",
"320 311 OFFCURVE",
"317 315 OFFCURVE",
"315 319 CURVE",
"312 323 OFFCURVE",
"309 327 OFFCURVE",
"307 331 CURVE",
"71 696 LINE SMOOTH",
"70 699 OFFCURVE",
"67 700 OFFCURVE",
"64 700 CURVE SMOOTH",
"54 700 LINE",
"315 298 LINE",
"315 0 LINE"
);
},
{
closed = 1;
nodes = (
"243 805 OFFCURVE",
"257 818 OFFCURVE",
"257 832 CURVE SMOOTH",
"257 848 OFFCURVE",
"243 860 OFFCURVE",
"229 860 CURVE SMOOTH",
"214 860 OFFCURVE",
"201 848 OFFCURVE",
"201 832 CURVE SMOOTH",
"201 818 OFFCURVE",
"214 805 OFFCURVE",
"229 805 CURVE SMOOTH"
);
},
{
closed = 1;
nodes = (
"427 805 OFFCURVE",
"441 818 OFFCURVE",
"441 832 CURVE SMOOTH",
"441 848 OFFCURVE",
"427 860 OFFCURVE",
"413 860 CURVE SMOOTH",
"398 860 OFFCURVE",
"385 848 OFFCURVE",
"385 832 CURVE SMOOTH",
"385 818 OFFCURVE",
"398 805 OFFCURVE",
"413 805 CURVE SMOOTH"
);
}
);
width = 642;
},
{
layerId = "F36DCCA2-8A71-42CF-9609-F852DF368EC0";
paths = (
{
closed = 1;
nodes = (
"393 0 LINE",
"393 286 LINE",
"655 717 LINE",
"570 717 LINE SMOOTH",
"553 717 OFFCURVE",
"543 706 OFFCURVE",
"537 694 CURVE",
"373 416 LINE",
"362 392 OFFCURVE",
"353 373 OFFCURVE",
"345 352 CURVE",
"338 373 OFFCURVE",
"328 392 OFFCURVE",
"316 416 CURVE",
"152 694 LINE SMOOTH",
"144 708 OFFCURVE",
"136 717 OFFCURVE",
"118 717 CURVE SMOOTH",
"33 717 LINE",
"296 286 LINE",
"296 0 LINE"
);
},
{
closed = 1;
nodes = (
"254 779 OFFCURVE",
"269 785 OFFCURVE",
"279 795 CURVE SMOOTH",
"289 805 OFFCURVE",
"296 819 OFFCURVE",
"296 833 CURVE SMOOTH",
"296 849 OFFCURVE",
"289 863 OFFCURVE",
"279 873 CURVE SMOOTH",
"269 883 OFFCURVE",
"254 889 OFFCURVE",
"240 889 CURVE SMOOTH",
"226 889 OFFCURVE",
"212 883 OFFCURVE",
"202 873 CURVE SMOOTH",
"192 863 OFFCURVE",
"186 849 OFFCURVE",
"186 833 CURVE SMOOTH",
"186 819 OFFCURVE",
"192 805 OFFCURVE",
"202 795 CURVE SMOOTH",
"212 785 OFFCURVE",
"226 779 OFFCURVE",
"240 779 CURVE SMOOTH"
);
},
{
closed = 1;
nodes = (
"464 779 OFFCURVE",
"478 785 OFFCURVE",
"488 795 CURVE SMOOTH",
"498 805 OFFCURVE",
"505 819 OFFCURVE",
"505 833 CURVE SMOOTH",
"505 849 OFFCURVE",
"498 863 OFFCURVE",
"488 873 CURVE SMOOTH",
"478 883 OFFCURVE",
"464 889 OFFCURVE",
"450 889 CURVE SMOOTH",
"434 889 OFFCURVE",
"421 883 OFFCURVE",
"411 873 CURVE SMOOTH",
"401 863 OFFCURVE",
"395 849 OFFCURVE",
"395 833 CURVE SMOOTH",
"395 819 OFFCURVE",
"401 805 OFFCURVE",
"411 795 CURVE SMOOTH",
"421 785 OFFCURVE",
"434 779 OFFCURVE",
"450 779 CURVE SMOOTH"
);
}
);
width = 688;
},
{
layerId = "A9E408DD-A955-440F-BEB6-B96F0772F152";
paths = (
{
closed = 1;
nodes = (
"422 0 LINE",
"422 280 LINE",
"686 723 LINE",
"567 723 LINE SMOOTH",
"544 723 OFFCURVE",
"530 708 OFFCURVE",
"522 693 CURVE SMOOTH",
"391 452 LINE SMOOTH",
"376 423 OFFCURVE",
"365 399 OFFCURVE",
"356 373 CURVE",
"347 399 OFFCURVE",
"336 423 OFFCURVE",
"320 452 CURVE SMOOTH",
"188 693 LINE SMOOTH",
"179 711 OFFCURVE",
"167 723 OFFCURVE",
"143 723 CURVE SMOOTH",
"24 723 LINE",
"288 280 LINE",
"288 0 LINE"
);
},
{
closed = 1;
nodes = (
"263 768 OFFCURVE",
"281 775 OFFCURVE",
"293 787 CURVE SMOOTH",
"305 799 OFFCURVE",
"313 816 OFFCURVE",
"313 834 CURVE SMOOTH",
"313 852 OFFCURVE",
"305 869 OFFCURVE",
"293 881 CURVE",
"281 893 OFFCURVE",
"263 901 OFFCURVE",
"245 901 CURVE SMOOTH",
"227 901 OFFCURVE",
"211 893 OFFCURVE",
"199 881 CURVE SMOOTH",
"187 869 OFFCURVE",
"179 852 OFFCURVE",
"179 834 CURVE SMOOTH",
"179 816 OFFCURVE",
"187 799 OFFCURVE",
"199 787 CURVE SMOOTH",
"211 775 OFFCURVE",
"227 768 OFFCURVE",
"245 768 CURVE SMOOTH"
);
},
{
closed = 1;
nodes = (
"484 768 OFFCURVE",
"501 775 OFFCURVE",
"514 787 CURVE SMOOTH",
"526 799 OFFCURVE",
"533 816 OFFCURVE",
"533 834 CURVE SMOOTH",
"533 852 OFFCURVE",
"526 869 OFFCURVE",
"514 881 CURVE",
"501 893 OFFCURVE",
"484 901 OFFCURVE",
"466 901 CURVE SMOOTH",
"448 901 OFFCURVE",
"431 893 OFFCURVE",
"419 881 CURVE SMOOTH",
"407 869 OFFCURVE",
"399 852 OFFCURVE",
"399 834 CURVE SMOOTH",
"399 816 OFFCURVE",
"407 799 OFFCURVE",
"419 787 CURVE SMOOTH",
"431 775 OFFCURVE",
"448 768 OFFCURVE",
"466 768 CURVE SMOOTH"
);
}
);
width = 710;
}
);
leftKerningGroup = Y;
note = Ydieresis;
rightKerningGroup = Y;
unicode = 0178;
},
{
glyphname = Z;
lastChange = "2026-06-19 17:27:37 +0000";
layers = (
{
layerId = "7DA69401-B8BB-4CEF-A33A-65E5ADA83450";
paths = (
{
closed = 1;
nodes = (
"567 0 LINE",
"567 11 LINE",
"77 11 LINE",
"564 688 LINE SMOOTH",
"566 692 OFFCURVE",
"568 695 OFFCURVE",
"568 698 CURVE SMOOTH",
"568 700 LINE",
"68 700 LINE",
"68 689 LINE",
"551 689 LINE",
"63 11 LINE",
"61 8 OFFCURVE",
"60 6 OFFCURVE",
"60 2 CURVE SMOOTH",
"60 0 LINE"
);
}
);
width = 629;
},
{
layerId = "F36DCCA2-8A71-42CF-9609-F852DF368EC0";
paths = (
{
closed = 1;
nodes = (
"586 0 LINE",
"586 79 LINE",
"176 79 LINE",
"582 649 LINE",
"588 659 OFFCURVE",
"592 670 OFFCURVE",
"592 681 CURVE SMOOTH",
"592 717 LINE",
"68 717 LINE",
"68 638 LINE",
"465 638 LINE",
"58 67 LINE",
"53 58 OFFCURVE",
"49 49 OFFCURVE",
"49 38 CURVE SMOOTH",
"49 0 LINE"
);
}
);
width = 643;
},
{
layerId = "A9E408DD-A955-440F-BEB6-B96F0772F152";
paths = (
{
closed = 1;
nodes = (
"593 0 LINE",
"593 108 LINE",
"218 108 LINE",
"589 632 LINE SMOOTH",
"597 644 OFFCURVE",
"602 658 OFFCURVE",
"602 674 CURVE SMOOTH",
"602 723 LINE",
"67 723 LINE",
"67 616 LINE",
"428 616 LINE",
"56 90 LINE SMOOTH",
"48 79 OFFCURVE",
"43 67 OFFCURVE",
"43 53 CURVE SMOOTH",
"43 0 LINE"
);
}
);
width = 649;
}
);
leftKerningGroup = Z;
note = Z;
rightKerningGroup = Z;
unicode = 005A;
},
{
glyphname = Zcaron;
lastChange = "2026-06-19 17:27:37 +0000";
layers = (
{
layerId = "7DA69401-B8BB-4CEF-A33A-65E5ADA83450";
paths = (
{
closed = 1;
nodes = (
"567 0 LINE",
"567 11 LINE",
"77 11 LINE",
"564 688 LINE SMOOTH",
"566 692 OFFCURVE",
"568 695 OFFCURVE",
"568 698 CURVE SMOOTH",
"568 700 LINE",
"68 700 LINE",
"68 689 LINE",
"551 689 LINE",
"63 11 LINE",
"61 8 OFFCURVE",
"60 6 OFFCURVE",
"60 2 CURVE SMOOTH",
"60 0 LINE"
);
},
{
closed = 1;
nodes = (
"325 769 LINE",
"441 901 LINE",
"431 901 LINE SMOOTH",
"427 901 OFFCURVE",
"424 901 OFFCURVE",
"421 897 CURVE",
"323 780 LINE",
"321 777 LINE",
"319 780 LINE",
"221 897 LINE",
"217 901 OFFCURVE",
"214 901 OFFCURVE",
"211 901 CURVE SMOOTH",
"201 901 LINE",
"317 769 LINE"
);
}
);
width = 629;
},
{
layerId = "F36DCCA2-8A71-42CF-9609-F852DF368EC0";
paths = (
{
closed = 1;
nodes = (
"586 0 LINE",
"586 79 LINE",
"176 79 LINE",
"582 649 LINE",
"588 659 OFFCURVE",
"592 670 OFFCURVE",
"592 681 CURVE SMOOTH",
"592 717 LINE",
"68 717 LINE",
"68 638 LINE",
"465 638 LINE",
"58 67 LINE",
"53 58 OFFCURVE",
"49 49 OFFCURVE",
"49 38 CURVE SMOOTH",
"49 0 LINE"
);
},
{
closed = 1;
nodes = (
"374 773 LINE",
"493 909 LINE",
"428 909 LINE SMOOTH",
"420 909 OFFCURVE",
"407 909 OFFCURVE",
"399 897 CURVE",
"338 822 LINE",
"332 813 LINE",
"326 822 LINE",
"265 897 LINE",
"257 909 OFFCURVE",
"245 909 OFFCURVE",
"237 909 CURVE SMOOTH",
"172 909 LINE",
"291 773 LINE"
);
}
);
width = 643;
},
{
layerId = "A9E408DD-A955-440F-BEB6-B96F0772F152";
paths = (
{
closed = 1;
nodes = (
"593 0 LINE",
"593 108 LINE",
"218 108 LINE",
"589 632 LINE SMOOTH",
"597 644 OFFCURVE",
"602 658 OFFCURVE",
"602 674 CURVE SMOOTH",
"602 723 LINE",
"67 723 LINE",
"67 616 LINE",
"428 616 LINE",
"56 90 LINE SMOOTH",
"48 79 OFFCURVE",
"43 67 OFFCURVE",
"43 53 CURVE SMOOTH",
"43 0 LINE"
);
},
{
closed = 1;
nodes = (
"394 775 LINE",
"515 912 LINE",
"425 912 LINE SMOOTH",
"415 912 OFFCURVE",
"399 912 OFFCURVE",
"388 897 CURVE SMOOTH",
"344 839 LINE",
"342 837 OFFCURVE",
"341 835 OFFCURVE",
"340 833 CURVE",
"338 831 OFFCURVE",
"337 829 OFFCURVE",
"336 828 CURVE",
"335 829 OFFCURVE",
"334 831 OFFCURVE",
"333 833 CURVE",
"332 835 OFFCURVE",
"330 837 OFFCURVE",
"329 839 CURVE",
"284 897 LINE SMOOTH",
"273 912 OFFCURVE",
"257 912 OFFCURVE",
"247 912 CURVE SMOOTH",
"158 912 LINE",
"278 775 LINE"
);
}
);
width = 649;
}
);
leftKerningGroup = Z;
note = Zcaron;
rightKerningGroup = Z;
unicode = 017D;
},
{
glyphname = a;
lastChange = "2026-06-19 17:27:37 +0000";
layers = (
{
layerId = "7DA69401-B8BB-4CEF-A33A-65E5ADA83450";
paths = (
{
closed = 1;
nodes = (
"224 -8 OFFCURVE",
"259 2 OFFCURVE",
"291 18 CURVE SMOOTH",
"322 35 OFFCURVE",
"349 59 OFFCURVE",
"377 88 CURVE",
"380 8 LINE",
"380 3 OFFCURVE",
"383 0 OFFCURVE",
"387 0 CURVE SMOOTH",
"389 0 LINE",
"389 324 LINE SMOOTH",
"389 378 OFFCURVE",
"378 422 OFFCURVE",
"354 452 CURVE SMOOTH",
"330 482 OFFCURVE",
"294 498 OFFCURVE",
"244 498 CURVE SMOOTH",
"176 498 OFFCURVE",
"128 471 OFFCURVE",
"80 420 CURVE",
"82 418 LINE SMOOTH",
"84 416 OFFCURVE",
"86 415 OFFCURVE",
"87 415 CURVE SMOOTH",
"89 415 OFFCURVE",
"92 417 OFFCURVE",
"95 421 CURVE SMOOTH",
"99 424 OFFCURVE",
"104 429 OFFCURVE",
"110 434 CURVE SMOOTH",
"122 445 OFFCURVE",
"138 459 OFFCURVE",
"160 469 CURVE SMOOTH",
"182 480 OFFCURVE",
"210 488 OFFCURVE",
"244 488 CURVE SMOOTH",
"288 488 OFFCURVE",
"322 473 OFFCURVE",
"344 445 CURVE SMOOTH",
"366 417 OFFCURVE",
"377 376 OFFCURVE",
"377 324 CURVE SMOOTH",
"377 261 LINE",
"267 259 OFFCURVE",
"186 244 OFFCURVE",
"133 219 CURVE SMOOTH",
"80 195 OFFCURVE",
"54 159 OFFCURVE",
"54 115 CURVE SMOOTH",
"54 71 OFFCURVE",
"71 40 OFFCURVE",
"95 21 CURVE SMOOTH",
"119 1 OFFCURVE",
"151 -8 OFFCURVE",
"180 -8 CURVE SMOOTH"
);
},
{
closed = 1;
nodes = (
"152 2 OFFCURVE",
"123 11 OFFCURVE",
"102 30 CURVE SMOOTH",
"80 48 OFFCURVE",
"66 76 OFFCURVE",
"66 115 CURVE SMOOTH",
"66 157 OFFCURVE",
"92 189 OFFCURVE",
"143 212 CURVE SMOOTH",
"194 235 OFFCURVE",
"272 248 OFFCURVE",
"377 251 CURVE",
"377 100 LINE",
"353 74 OFFCURVE",
"326 50 OFFCURVE",
"295 32 CURVE SMOOTH",
"263 14 OFFCURVE",
"226 2 OFFCURVE",
"180 2 CURVE SMOOTH"
);
}
);
width = 483;
},
{
layerId = "F36DCCA2-8A71-42CF-9609-F852DF368EC0";
paths = (
{
closed = 1;
nodes = (
"220 -8 OFFCURVE",
"251 -1 OFFCURVE",
"279 13 CURVE SMOOTH",
"307 26 OFFCURVE",
"331 45 OFFCURVE",
"358 69 CURVE",
"368 21 LINE",
"373 5 OFFCURVE",
"381 0 OFFCURVE",
"399 0 CURVE SMOOTH",
"438 0 LINE",
"438 324 LINE SMOOTH",
"438 381 OFFCURVE",
"423 429 OFFCURVE",
"393 463 CURVE SMOOTH",
"363 496 OFFCURVE",
"318 516 OFFCURVE",
"262 516 CURVE SMOOTH",
"183 516 OFFCURVE",
"120 489 OFFCURVE",
"64 435 CURVE",
"80 407 LINE",
"86 397 OFFCURVE",
"94 390 OFFCURVE",
"106 390 CURVE SMOOTH",
"114 390 OFFCURVE",
"122 393 OFFCURVE",
"130 399 CURVE SMOOTH",
"137 404 OFFCURVE",
"147 410 OFFCURVE",
"158 417 CURVE SMOOTH",
"179 431 OFFCURVE",
"207 444 OFFCURVE",
"251 444 CURVE SMOOTH",
"317 444 OFFCURVE",
"351 403 OFFCURVE",
"351 324 CURVE SMOOTH",
"351 285 LINE",
"236 282 OFFCURVE",
"158 262 OFFCURVE",
"109 234 CURVE SMOOTH",
"59 205 OFFCURVE",
"39 167 OFFCURVE",
"39 127 CURVE SMOOTH",
"39 81 OFFCURVE",
"55 47 OFFCURVE",
"81 25 CURVE SMOOTH",
"106 3 OFFCURVE",
"142 -8 OFFCURVE",
"181 -8 CURVE SMOOTH"
);
},
{
closed = 1;
nodes = (
"184 55 OFFCURVE",
"164 60 OFFCURVE",
"149 73 CURVE SMOOTH",
"134 85 OFFCURVE",
"124 104 OFFCURVE",
"124 131 CURVE SMOOTH",
"124 159 OFFCURVE",
"140 182 OFFCURVE",
"176 198 CURVE SMOOTH",
"212 215 OFFCURVE",
"269 226 OFFCURVE",
"351 228 CURVE",
"351 123 LINE",
"331 102 OFFCURVE",
"311 85 OFFCURVE",
"288 73 CURVE SMOOTH",
"265 61 OFFCURVE",
"239 55 OFFCURVE",
"208 55 CURVE SMOOTH"
);
}
);
width = 514;
},
{
layerId = "A9E408DD-A955-440F-BEB6-B96F0772F152";
paths = (
{
closed = 1;
nodes = (
"219 -8 OFFCURVE",
"249 -2 OFFCURVE",
"275 11 CURVE SMOOTH",
"302 23 OFFCURVE",
"326 40 OFFCURVE",
"352 64 CURVE",
"363 27 LINE",
"370 5 OFFCURVE",
"381 0 OFFCURVE",
"405 0 CURVE SMOOTH",
"461 0 LINE",
"461 324 LINE SMOOTH",
"461 382 OFFCURVE",
"443 432 OFFCURVE",
"411 467 CURVE SMOOTH",
"378 502 OFFCURVE",
"330 523 OFFCURVE",
"270 523 CURVE SMOOTH",
"187 523 OFFCURVE",
"116 496 OFFCURVE",
"57 442 CURVE",
"79 402 LINE",
"87 390 OFFCURVE",
"98 380 OFFCURVE",
"116 380 CURVE SMOOTH",
"136 380 OFFCURVE",
"150 391 OFFCURVE",
"170 403 CURVE SMOOTH",
"190 414 OFFCURVE",
"215 425 OFFCURVE",
"255 425 CURVE SMOOTH",
"310 425 OFFCURVE",
"340 393 OFFCURVE",
"340 324 CURVE SMOOTH",
"340 294 LINE",
"262 292 OFFCURVE",
"202 282 OFFCURVE",
"157 267 CURVE SMOOTH",
"111 251 OFFCURVE",
"80 230 OFFCURVE",
"61 207 CURVE SMOOTH",
"41 183 OFFCURVE",
"33 157 OFFCURVE",
"33 131 CURVE SMOOTH",
"33 85 OFFCURVE",
"48 51 OFFCURVE",
"75 27 CURVE SMOOTH",
"101 4 OFFCURVE",
"139 -8 OFFCURVE",
"182 -8 CURVE SMOOTH"
);
},
{
closed = 1;
nodes = (
"179 77 OFFCURVE",
"151 94 OFFCURVE",
"151 138 CURVE SMOOTH",
"151 160 OFFCURVE",
"162 179 OFFCURVE",
"192 193 CURVE SMOOTH",
"221 207 OFFCURVE",
"269 216 OFFCURVE",
"340 219 CURVE",
"340 133 LINE",
"305 95 OFFCURVE",
"271 77 OFFCURVE",
"220 77 CURVE SMOOTH"
);
}
);
width = 529;
}
);
leftKerningGroup = a;
note = a;
rightKerningGroup = a;
unicode = 0061;
},
{
glyphname = aacute;
lastChange = "2026-06-19 17:27:37 +0000";
layers = (
{
layerId = "7DA69401-B8BB-4CEF-A33A-65E5ADA83450";
paths = (
{
closed = 1;
nodes = (
"224 -8 OFFCURVE",
"259 2 OFFCURVE",
"291 18 CURVE SMOOTH",
"322 35 OFFCURVE",
"349 59 OFFCURVE",
"377 88 CURVE",
"380 8 LINE",
"380 3 OFFCURVE",
"383 0 OFFCURVE",
"387 0 CURVE SMOOTH",
"389 0 LINE",
"389 324 LINE SMOOTH",
"389 378 OFFCURVE",
"378 422 OFFCURVE",
"354 452 CURVE SMOOTH",
"330 482 OFFCURVE",
"294 498 OFFCURVE",
"244 498 CURVE SMOOTH",
"176 498 OFFCURVE",
"128 471 OFFCURVE",
"80 420 CURVE",
"82 418 LINE SMOOTH",
"84 416 OFFCURVE",
"86 415 OFFCURVE",
"87 415 CURVE SMOOTH",
"89 415 OFFCURVE",
"92 417 OFFCURVE",
"95 421 CURVE SMOOTH",
"99 424 OFFCURVE",
"104 429 OFFCURVE",
"110 434 CURVE SMOOTH",
"122 445 OFFCURVE",
"138 459 OFFCURVE",
"160 469 CURVE SMOOTH",
"182 480 OFFCURVE",
"210 488 OFFCURVE",
"244 488 CURVE SMOOTH",
"288 488 OFFCURVE",
"322 473 OFFCURVE",
"344 445 CURVE SMOOTH",
"366 417 OFFCURVE",
"377 376 OFFCURVE",
"377 324 CURVE SMOOTH",
"377 261 LINE",
"267 259 OFFCURVE",
"186 244 OFFCURVE",
"133 219 CURVE SMOOTH",
"80 195 OFFCURVE",
"54 159 OFFCURVE",
"54 115 CURVE SMOOTH",
"54 71 OFFCURVE",
"71 40 OFFCURVE",
"95 21 CURVE SMOOTH",
"119 1 OFFCURVE",
"151 -8 OFFCURVE",
"180 -8 CURVE SMOOTH"
);
},
{
closed = 1;
nodes = (
"152 2 OFFCURVE",
"123 11 OFFCURVE",
"102 30 CURVE SMOOTH",
"80 48 OFFCURVE",
"66 76 OFFCURVE",
"66 115 CURVE SMOOTH",
"66 157 OFFCURVE",
"92 189 OFFCURVE",
"143 212 CURVE SMOOTH",
"194 235 OFFCURVE",
"272 248 OFFCURVE",
"377 251 CURVE",
"377 100 LINE",
"353 74 OFFCURVE",
"326 50 OFFCURVE",
"295 32 CURVE SMOOTH",
"263 14 OFFCURVE",
"226 2 OFFCURVE",
"180 2 CURVE SMOOTH"
);
},
{
closed = 1;
nodes = (
"210 579 LINE SMOOTH",
"214 579 OFFCURVE",
"217 581 OFFCURVE",
"218 583 CURVE",
"319 708 LINE",
"306 708 LINE SMOOTH",
"295 708 OFFCURVE",
"291 707 OFFCURVE",
"285 697 CURVE",
"203 579 LINE"
);
}
);
width = 483;
},
{
layerId = "F36DCCA2-8A71-42CF-9609-F852DF368EC0";
paths = (
{
closed = 1;
nodes = (
"220 -8 OFFCURVE",
"251 -1 OFFCURVE",
"279 13 CURVE SMOOTH",
"307 26 OFFCURVE",
"331 45 OFFCURVE",
"358 69 CURVE",
"368 21 LINE",
"373 5 OFFCURVE",
"381 0 OFFCURVE",
"399 0 CURVE SMOOTH",
"438 0 LINE",
"438 324 LINE SMOOTH",
"438 381 OFFCURVE",
"423 429 OFFCURVE",
"393 463 CURVE SMOOTH",
"363 496 OFFCURVE",
"318 516 OFFCURVE",
"262 516 CURVE SMOOTH",
"183 516 OFFCURVE",
"120 489 OFFCURVE",
"64 435 CURVE",
"80 407 LINE",
"86 397 OFFCURVE",
"94 390 OFFCURVE",
"106 390 CURVE SMOOTH",
"114 390 OFFCURVE",
"122 393 OFFCURVE",
"130 399 CURVE SMOOTH",
"137 404 OFFCURVE",
"147 410 OFFCURVE",
"158 417 CURVE SMOOTH",
"179 431 OFFCURVE",
"207 444 OFFCURVE",
"251 444 CURVE SMOOTH",
"317 444 OFFCURVE",
"351 403 OFFCURVE",
"351 324 CURVE SMOOTH",
"351 285 LINE",
"236 282 OFFCURVE",
"158 262 OFFCURVE",
"109 234 CURVE SMOOTH",
"59 205 OFFCURVE",
"39 167 OFFCURVE",
"39 127 CURVE SMOOTH",
"39 81 OFFCURVE",
"55 47 OFFCURVE",
"81 25 CURVE SMOOTH",
"106 3 OFFCURVE",
"142 -8 OFFCURVE",
"181 -8 CURVE SMOOTH"
);
},
{
closed = 1;
nodes = (
"184 55 OFFCURVE",
"164 60 OFFCURVE",
"149 73 CURVE SMOOTH",
"134 85 OFFCURVE",
"124 104 OFFCURVE",
"124 131 CURVE SMOOTH",
"124 159 OFFCURVE",
"140 182 OFFCURVE",
"176 198 CURVE SMOOTH",
"212 215 OFFCURVE",
"269 226 OFFCURVE",
"351 228 CURVE",
"351 123 LINE",
"331 102 OFFCURVE",
"311 85 OFFCURVE",
"288 73 CURVE SMOOTH",
"265 61 OFFCURVE",
"239 55 OFFCURVE",
"208 55 CURVE SMOOTH"
);
},
{
closed = 1;
nodes = (
"249 582 LINE SMOOTH",
"263 582 OFFCURVE",
"270 586 OFFCURVE",
"280 596 CURVE SMOOTH",
"396 725 LINE",
"309 725 LINE SMOOTH",
"288 725 OFFCURVE",
"279 718 OFFCURVE",
"270 703 CURVE SMOOTH",
"196 582 LINE"
);
}
);
width = 514;
},
{
layerId = "A9E408DD-A955-440F-BEB6-B96F0772F152";
paths = (
{
closed = 1;
nodes = (
"219 -8 OFFCURVE",
"249 -2 OFFCURVE",
"275 11 CURVE SMOOTH",
"302 23 OFFCURVE",
"326 40 OFFCURVE",
"352 64 CURVE",
"363 27 LINE",
"370 5 OFFCURVE",
"381 0 OFFCURVE",
"405 0 CURVE SMOOTH",
"461 0 LINE",
"461 324 LINE SMOOTH",
"461 382 OFFCURVE",
"443 432 OFFCURVE",
"411 467 CURVE SMOOTH",
"378 502 OFFCURVE",
"330 523 OFFCURVE",
"270 523 CURVE SMOOTH",
"187 523 OFFCURVE",
"116 496 OFFCURVE",
"57 442 CURVE",
"79 402 LINE",
"87 390 OFFCURVE",
"98 380 OFFCURVE",
"116 380 CURVE SMOOTH",
"136 380 OFFCURVE",
"150 391 OFFCURVE",
"170 403 CURVE SMOOTH",
"190 414 OFFCURVE",
"215 425 OFFCURVE",
"255 425 CURVE SMOOTH",
"310 425 OFFCURVE",
"340 393 OFFCURVE",
"340 324 CURVE SMOOTH",
"340 294 LINE",
"262 292 OFFCURVE",
"202 282 OFFCURVE",
"157 267 CURVE SMOOTH",
"111 251 OFFCURVE",
"80 230 OFFCURVE",
"61 207 CURVE SMOOTH",
"41 183 OFFCURVE",
"33 157 OFFCURVE",
"33 131 CURVE SMOOTH",
"33 85 OFFCURVE",
"48 51 OFFCURVE",
"75 27 CURVE SMOOTH",
"101 4 OFFCURVE",
"139 -8 OFFCURVE",
"182 -8 CURVE SMOOTH"
);
},
{
closed = 1;
nodes = (
"179 77 OFFCURVE",
"151 94 OFFCURVE",
"151 138 CURVE SMOOTH",
"151 160 OFFCURVE",
"162 179 OFFCURVE",
"192 193 CURVE SMOOTH",
"221 207 OFFCURVE",
"269 216 OFFCURVE",
"340 219 CURVE",
"340 133 LINE",
"305 95 OFFCURVE",
"271 77 OFFCURVE",
"220 77 CURVE SMOOTH"
);
},
{
closed = 1;
nodes = (
"267 583 LINE SMOOTH",
"286 583 OFFCURVE",
"296 587 OFFCURVE",
"308 601 CURVE SMOOTH",
"432 731 LINE",
"312 731 LINE SMOOTH",
"285 731 OFFCURVE",
"274 722 OFFCURVE",
"264 705 CURVE SMOOTH",
"193 583 LINE"
);
}
);
width = 529;
}
);
leftKerningGroup = a;
note = aacute;
rightKerningGroup = a;
unicode = 00E1;
},
